<svg id="Layer_1" xmlns="http://www.w3.org/2000/svg" width="161" height="141" viewBox="0 0 161 141"><style>.st0{fill:#007ac3}.st1{fill:#3ca436}</style><path class="st0" d="M33.9 112H21.4l-.3-.2C10.8 103.2 4.9 90.6 4.9 77.1 4.9 52.3 25.1 32 50 32c24.8 0 45 20.3 45 45.1 0 7.2-1.8 14.4-5.1 20.8l-.3.5h5.5l.6-1.3c2.8-6.3 4.2-13 4.2-20 0-13.3-5.2-25.9-14.6-35.3-1.7-1.7-3.5-3.2-5.3-4.7l-.4-.3V9.2c0-5.1-4.1-9.2-9.2-9.2H29.6c-5.1 0-9.2 4.1-9.2 9.2v27.6l-.4.3c-1.9 1.4-3.7 3-5.4 4.6C5.2 51.2 0 63.8 0 77.1c0 15.4 6.9 29.7 19.1 39.2.4.3 1 .5 1.5.5H34V112zm30.6-82.7l-1.2-.3c-4.3-1.2-8.8-1.8-13.3-1.8s-9 .6-13.3 1.8l-1.2.3V15.1h29.1v14.2zM25.2 9.2c0-2.4 2-4.3 4.4-4.3h40.7c2.4 0 4.3 2 4.3 4.3v24.4l-1.4-.7c-1.1-.6-2.2-1.1-3.3-1.6l-.5-.3V16c0-3.2-2.6-5.8-5.8-5.8H36.4c-3.2 0-5.8 2.6-5.8 5.8v15l-.6.3c-1.1.5-2.3 1-3.3 1.6l-1.4.7V9.2z"/><path class="st1" d="M158.6 98.4h-11.1V94c0-5.1-4.1-9.2-9.2-9.2-1 0-2.1.2-3.1.5l-1.3.5v-1.9c0-5.1-4.1-9.2-9.2-9.2s-9.2 4.1-9.2 9.2v14.5h-36V83.9c0-5.1-4.1-9.2-9.2-9.2s-9.2 4.1-9.2 9.2v1.9l-1.3-.5c-1-.4-2-.5-3.1-.5-5.1 0-9.2 4.1-9.2 9.2v4.4H36.4c-1.3 0-2.4 1.1-2.4 2.4v16h13.6v4.3c0 5.1 4.1 9.2 9.2 9.2 1 0 2.1-.2 3.1-.5l1.3-.5v1.9c0 5.1 4.1 9.2 9.2 9.2s9.2-4.1 9.2-9.2v-14.5h35.8v14.5c0 5.1 4.1 9.2 9.2 9.2s9.2-4.1 9.2-9.2v-1.9l1.3.5c1 .4 2 .5 3.1.5 5.1 0 9.2-4.1 9.2-9.2v-4.3h11.1c1.3 0 2.4-1.1 2.4-2.4v-13.6c.1-1.3-1-2.4-2.3-2.4zM47.5 112h-7.7v-1.9c.7 0 1.3-.3 1.7-.7.5-.5.7-1.1.7-1.7 0-.7-.3-1.3-.7-1.7-.5-.5-1.1-.7-1.7-.7v-1.9h7.7v8.6zm13.6 9.2c0 2.4-2 4.3-4.4 4.3-2.4 0-4.4-1.9-4.4-4.3V94.1c0-2.4 2-4.3 4.4-4.3 2.4 0 4.4 1.9 4.4 4.3v27.1zm13.6 10.2c0 2.4-1.9 4.3-4.3 4.3s-4.4-1.9-4.4-4.3V83.9c0-2.4 2-4.3 4.4-4.3 2.4 0 4.3 1.9 4.3 4.3v47.5zm40.7-19.4H79.5v-8.7h35.8v8.7zm13.6 19.4c0 2.4-2 4.3-4.4 4.3-2.4 0-4.3-1.9-4.3-4.3V83.9c0-2.4 1.9-4.3 4.3-4.3s4.4 1.9 4.4 4.3v47.5zm13.5-10.2c0 2.4-2 4.3-4.4 4.3-2.4 0-4.3-1.9-4.3-4.3V94.1c0-2.4 2-4.3 4.3-4.3 2.4 0 4.4 1.9 4.4 4.3v27.1zm10.9-11.8c.5.5 1.1.7 1.7.7v1.9h-7.7v-8.7h7.7v1.9c-.7 0-1.3.3-1.7.7-.9 1-.9 2.5 0 3.5z"/></svg>