<svg id="Layer_1" xmlns="http://www.w3.org/2000/svg" width="132" height="136.6" viewBox="0 0 132 136.6"><style>.st0{fill:#007ac3}.st1{fill:#3ca436}</style><path class="st0" d="M99.8 65.7c1.4-4.7 2.1-9.7 2.1-14.7 0-14.9-6.5-29.1-17.9-38.8C74.9 4.3 63.1 0 51 0 38.8 0 26.9 4.4 17.7 12.4 6.4 22.1 0 36.2 0 51c0 5 .7 9.9 2.1 14.7 3.1 10.3 9.5 19.5 18.1 26 9 6.7 19.6 10.3 30.8 10.3s21.8-3.6 30.7-10.3c8.6-6.5 15.1-15.8 18.1-26zM95.2 51c0 3.2-.3 6.4-1 9.6L76.9 56l-7.8-23.6 12.9-13c8.4 8.3 13.2 19.7 13.2 31.6zM51 6.8c9.3 0 18.3 2.9 25.8 8.3L63.5 28.4H38.1L25 15.2c7.5-5.5 16.6-8.4 26-8.4zM6.8 51c0-11.8 4.7-23.1 13-31.4l13 13L25.1 56 7.8 60.6c-.7-3.2-1-6.4-1-9.6zm40.8 44.1C30.8 93.8 15.9 82.8 9.8 67l17.1-4.6 20.8 14.9v17.8zM51 71.5L31.6 57.6 39 35.1h24l.2.5 7.2 21.9-19.4 14zm3.4 5.8l20.7-14.9L92.2 67c-6.1 15.7-21 26.8-37.9 28.1V77.3zm0 0"/><path class="st1" d="M97.6 97.5c-1.3-1.3-3.5-1.3-4.8 0-1.3 1.3-1.3 3.5 0 4.8l29.1 29.1c.7.7 1.5 1 2.4 1 .9 0 1.7-.3 2.4-1 1.3-1.3 1.3-3.5 0-4.8L97.6 97.5zm33.3 4.7l-19-19c-1.3-1.3-3.5-1.3-4.8 0-1.3 1.3-1.3 3.5 0 4.8l19 19c.7.7 1.5 1 2.4 1 .9 0 1.7-.3 2.4-1 1.3-1.3 1.3-3.5 0-4.8zm-47.7 9.7c-1.3-1.3-3.5-1.3-4.8 0-1.3 1.3-1.3 3.5 0 4.8l19 19c.7.7 1.5 1 2.4 1 .9 0 1.7-.3 2.4-1 1.3-1.3 1.3-3.5 0-4.8l-19-19zm0 0"/></svg>