<svg id="Layer_1" xmlns="http://www.w3.org/2000/svg" width="180" height="159" viewBox="0 0 180 159"><style>.st0{fill:#007ac3}.st1,.st2{fill:#fff;stroke:#3ca436;stroke-width:5;stroke-miterlimit:10}.st2{fill:#3ca436;stroke-width:2}</style><path class="st0" d="M177.4 136.8h-8.8V52.5c0-5.7-4.7-10.3-10.5-10.3H21.9c-5.8 0-10.5 4.6-10.5 10.3v84.2H2.6c-1.2 0-2.1.9-2.1 2.1v9.4c0 5.7 4.7 10.3 10.5 10.3h158c5.8 0 10.5-4.6 10.5-10.3v-9.4c0-1.1-.9-2-2.1-2zM15.7 52.5c0-3.3 2.8-6.1 6.2-6.1h136.3c3.4 0 6.2 2.7 6.2 6.1v84.2H15.7V52.5zm95.4 88.5l-1.9 2.6c-1.5 2.1-4.1 3.4-6.7 3.4h-25c-2.6 0-5.2-1.3-6.7-3.4l-1.9-2.6h42.2zm64.1 7.3c0 3.3-2.8 6.1-6.2 6.1H11c-3.4 0-6.2-2.7-6.2-6.1V141h60.3l.3 1.2c1.5 5.3 6.5 9 12.1 9h25c5.6 0 10.6-3.7 12.1-9l.3-1.2h60.3v7.3z"/><path class="st0" d="M169 159H11c-6 0-11-4.8-11-10.7v-9.4c0-1.4 1.2-2.6 2.6-2.6h8.3V52.5c0-5.9 4.9-10.7 11-10.7h136.3c6 0 11 4.8 11 10.7v83.8h8.3c1.4 0 2.6 1.2 2.6 2.6v9.4c-.1 5.9-5 10.7-11.1 10.7zM2.6 137.2c-.9 0-1.7.7-1.7 1.6v9.4c0 5.4 4.5 9.8 10 9.8H169c5.5 0 10-4.4 10-9.8v-9.4c0-.9-.7-1.6-1.7-1.6h-9.2V52.5c0-5.4-4.5-9.8-10-9.8H21.9c-5.5 0-10 4.4-10 9.8v84.7H2.6zM169 154.8H11c-3.7 0-6.7-2.9-6.7-6.5v-7.8h61.2l.4 1.5c1.4 5.1 6.2 8.6 11.6 8.6h25c5.4 0 10.2-3.6 11.6-8.6l.4-1.5h61.2v7.8c0 3.6-3 6.5-6.7 6.5zM5.2 141.4v6.8c0 3.1 2.6 5.6 5.7 5.6H169c3.2 0 5.7-2.5 5.7-5.6v-6.8h-59.5l-.2.9c-1.6 5.5-6.7 9.3-12.5 9.3h-25c-5.8 0-11-3.8-12.5-9.3l-.2-.9H5.2zm97.3 6h-25c-2.8 0-5.5-1.3-7.1-3.6l-2.4-3.3h44l-2.4 3.3c-1.6 2.3-4.3 3.6-7.1 3.6zm-32.7-6l1.3 1.8c1.5 2 3.8 3.2 6.3 3.2h25c2.5 0 4.9-1.2 6.3-3.2l1.3-1.8H69.8zm95-4.2H15.2V52.5c0-3.6 3-6.5 6.7-6.5h136.3c3.7 0 6.7 2.9 6.7 6.5v84.7zm-148.7-.9h147.7V52.5c0-3.1-2.6-5.6-5.7-5.6H21.9c-3.2 0-5.7 2.5-5.7 5.6v83.8z"/><path class="st0" d="M154 55H26c-1.2 0-2.1.9-2.1 2.1v68.4c0 1.2 1 2.1 2.1 2.1h128c1.2 0 2.1-.9 2.1-2.1V57.1c.1-1.1-.9-2.1-2.1-2.1zm-2.1 68.5H28.1V59.2h123.7v64.3z"/><path class="st0" d="M154 128.1H26c-1.4 0-2.6-1.2-2.6-2.6V57.1c0-1.4 1.2-2.6 2.6-2.6h128c1.4 0 2.6 1.2 2.6 2.6v68.4c0 1.5-1.1 2.6-2.6 2.6zM26 55.5c-.9 0-1.7.7-1.7 1.6v68.4c0 .9.7 1.6 1.7 1.6h128c.9 0 1.7-.7 1.7-1.6V57.1c0-.9-.7-1.6-1.7-1.6H26zm126.3 68.4H27.7V58.8h124.7v65.1zM28.6 123h122.8V59.7H28.6V123z"/><path class="st1" d="M98.1 102.7c-4.5 4.4-11.7 4.4-16.1 0L40.6 62.2c-4.5-4.4-4.5-11.5 0-15.8L81.9 5.8c4.5-4.4 11.7-4.4 16.1 0l41.4 40.6c4.5 4.4 4.5 11.5 0 15.8l-41.3 40.5z"/><path class="st2" d="M116 41.2c-.7 0-1.3.1-2 .3-.8-3.1-3.7-5.4-7.1-5.4-4 0-7.3 3.2-7.3 7.2v5.2H80.4v-5.2c0-4-3.3-7.2-7.3-7.2-3.4 0-6.3 2.3-7.1 5.4-.6-.2-1.3-.3-2-.3-4 0-7.3 3.2-7.3 7.2v11.7c0 4 3.3 7.2 7.3 7.2.7 0 1.3-.1 2-.3.8 3.1 3.7 5.4 7.1 5.4 4 0 7.3-3.2 7.3-7.2V60h19.2v5.2c0 4 3.3 7.2 7.3 7.2 3.4 0 6.3-2.3 7.1-5.4.6.2 1.3.3 2 .3 4 0 7.3-3.2 7.3-7.2V48.4c0-4-3.3-7.2-7.3-7.2zM65.8 63.6c-.6.3-1.2.4-1.8.4-2.2 0-4-1.7-4-3.9V48.4c0-2.1 1.8-3.9 4-3.9.6 0 1.2.1 1.8.4v18.7zm11.3 1.7c0 2.1-1.8 3.9-4 3.9s-4-1.7-4-3.9V43.2c0-2.1 1.8-3.9 4-3.9s4 1.7 4 3.9v22.1zm22.5-8.4H80.4v-5.2h19.2v5.2zM110.9 44v21.3c0 2.1-1.8 3.9-4 3.9s-4-1.7-4-3.9V43.2c0-2.1 1.8-3.9 4-3.9s4 1.7 4 3.9v.8zm9 16.1c0 2.1-1.8 3.9-4 3.9-.6 0-1.2-.1-1.8-.4V44.9c.5-.3 1.1-.4 1.8-.4 2.2 0 4 1.7 4 3.9v11.7z"/></svg>