<svg id="Layer_1" xmlns="http://www.w3.org/2000/svg" width="90" height="112" viewBox="0 0 90 112"><style>.st0{fill:#007ac3}.st1{fill:#3ca436}</style><path class="st0" d="M90 96.8l-6.4-72.5c-.1-1.6-1.5-2.8-3.1-2.8h-71c-1.6 0-2.9 1.2-3.1 2.8L0 96.8v.3c0 8.3 7.6 15 16.9 15h56.2c9.3 0 16.9-6.7 16.9-15v-.3zm-16.9 9H16.9c-5.8 0-10.6-3.9-10.7-8.6l6.2-69.5h65.2l6.2 69.5c-.1 4.7-4.9 8.6-10.7 8.6z"/><path class="st1" d="M22.8 28.1v9.4c0 1.7 1.4 3.1 3.1 3.1s3.1-1.4 3.1-3.1V21.9c.2-8.7 7.3-15.7 16-15.7s15.8 7 16 15.7v15.6c0 1.7 1.4 3.1 3.1 3.1 1.7 0 3.1-1.4 3.1-3.1V21.9C67 9.8 57.1 0 45 0S23 9.8 22.8 21.9v6.2z"/></svg>