<svg id="Layer_1" xmlns="http://www.w3.org/2000/svg" width="110" height="122" viewBox="0 0 110 122"><style>.st0{fill:#007ac3}.st1{fill:#3ca436}</style><path class="st0" d="M17.8 44.1H69v5.2H17.8z"/><path class="st0" d="M81.5 106v10.2H5.2V16h17.1l2.3 8.8c.5 1 1.3 1.8 2.6 1.8h32.3c1 0 2.1-.8 2.9-1.8l2.3-8.8h16.8v40h5.2V10.8H66l2-7.5c.5-.8-.4-3.3-2.6-3.3h-44c-2.3.1-3 2.4-2.6 3.3l2 7.5H0v110.5h86.6V106h-5.1zM61.8 5.1l-4.4 16.3H29L24.6 5.1h37.2z"/><path class="st0" d="M17.8 93.7H65v5.2H17.8zm0-24.8H62v5.2H17.8z"/><path class="st1" d="M78.4 86.7L74 82.6l-3.6 3.6 8 8 19.4-19.6-3.7-3.6-15.7 15.7zm0 0"/><path class="st1" d="M84 55.5c-14.4 0-26 11.6-26 26s11.7 26 26 26c14.4 0 26-11.6 26-26s-11.7-26-26-26zm0 46.9c-11.4 0-20.9-9.5-20.9-20.9 0-11.4 9.3-20.9 20.9-20.9 11.6 0 20.9 9.5 20.9 20.9 0 11.4-9.3 20.9-20.9 20.9z"/></svg>