<svg id="Layer_1" xmlns="http://www.w3.org/2000/svg" width="150" height="126" viewBox="0 0 150 126"><style>.st0{fill:#007ac3}.st1{fill:#3ca436}</style><path class="st0" d="M37.5 86.1c-5.5 0-10-4.5-10-10s4.5-10 10-10 10 4.5 10 10-4.6 10-10 10zm0-15c-2.7 0-5 2.2-5 5s2.2 5 5 5c2.7 0 5-2.2 5-5s-2.3-5-5-5z"/><path class="st0" d="M37.5 96.1c-11 0-20-9-20-20s9-20 20-20c.7 0 1.5 0 2.2.2l75.2 4.7c6.7 0 12.5 5.7 12.5 12.5S121.9 86 115.2 86l-73.4 9.5c-1.4.3-2.8.6-4.3.6zm0-35c-8.2 0-15 6.7-15 15 0 9.2 8.5 17 18.5 14.5l73.7-9.5h.2c4.2 0 7.5-3.2 7.5-7.5s-3.2-7.5-7.5-7.5h-.2l-75.4-5h-1.8zm95.1-30.2c-1.2 0-2.7-.2-4-.5-7.7-2-8.7-8.5-8.7-14.2 0-1.5 1-2.5 2.5-2.5s2.5 1 2.5 2.5c0 6 1.2 8.5 5.2 9.5 2.2.5 4.7.5 7.2-.5l9.2-3.7c1.2-.5 2.7 0 3.2 1.5s0 2.7-1.5 3.2l-9.2 3.7c-2.2.5-4.4 1-6.4 1zm-113.1.2h-17c-1.5 0-2.5-1-2.5-2.5s1-2.5 2.5-2.5h17.2c1.5 0 2.5 1 2.5 2.5s-1.5 2.5-2.7 2.5z"/><path class="st0" d="M7.5 36.1c-1.5 0-2.5-1-2.5-2.5v-5c0-1.5 1-2.5 2.5-2.5s2.5 1 2.5 2.5v5c0 1.5-1.3 2.5-2.5 2.5zm107.4 72.5c-13.5 0-26-8-31.7-20.2l-1.5-3 33.2-4.2c4.2 0 7.5-3.2 7.5-7.5s-3.2-7.5-7.5-7.5L81.2 64l1.2-3.2c5.2-13.5 18-22.2 32.5-22.2 19.2 0 35 15.7 35 35s-15.8 35-35 35zM89.4 89.3c5.5 8.7 15 14.2 25.5 14.2 16.5 0 30-13.5 30-30s-13.5-30-30-30c-11.2 0-21.2 6-26.5 15.7l26.7 1.7c6.7 0 12.2 5.5 12.2 12.5 0 6.7-5.5 12.5-12.2 12.5l-25.7 3.4z"/><path class="st0" d="M121.1 116c-1.2 0-2.2-.7-2.5-2l-1.7-7.7c-.2-.7 0-1.5.5-2s1-1 1.7-1c4-.5 7.5-1.7 11-3.7.7-.5 1.5-.5 2.2-.2.7.2 1.2 1 1.5 1.7l2.5 11.7c.2.7 0 1.5-.5 2s-1.5 1.2-2.2 1.2h-12.5zm1.2-8.2l.7 3.2h7.5l-1.2-5.7c-2.2 1-4.5 1.8-7 2.5zm-16.4-62.9c-.5 0-1 0-1.2-.2-.5-.2-1-1-1.2-1.5l-6-26.5c-.2-.7 0-1.5.5-2 .5-.7 1.2-1 2-1h13.2c1.2 0 2.2.7 2.5 2l5.2 25.2c.2.7 0 1.5-.5 2.2-.5.7-1.2 1-2 .7-1.5-.2-2.5-.2-3.5-.2-2.7 0-5.5.5-8.2 1.2-.3.1-.6.1-.8.1zm-3-26.2l4.7 20.7c2.5-.5 5-.7 7.5-.7l-4.2-20h-8zM25 116H12.5c-.7 0-1.7-.5-2.2-1.2s-.5-1.7 0-2.5l12.5-25.2c.2-.7 1-1.2 1.7-1.2.7-.2 1.5.2 2.2.7 2.5 2.5 5.5 4 9 4.2.7 0 1.5.5 2 1.2s.5 1.5 0 2.2l-10.5 20.2c-.5 1.1-1.2 1.6-2.2 1.6zm-8.5-5h7l8.2-15.7c-2-.7-4-1.5-5.7-2.7L16.5 111zm11-47.9c-.2 0-.5 0-1-.2-.7-.2-1.2-1-1.5-1.7l-10-42c-.2-.7 0-1.5.5-2s1.2-1 2-1h12.2c1.2 0 2.2.7 2.5 2l9.7 39.5c.2.7 0 1.5-.5 2.2-.5.5-1.2 1-2 1h-2.1c-3 0-5.7.7-8.2 2.5-.6-.5-1.1-.3-1.6-.3zm-6.8-41.9l8.7 36c2.2-1 4.7-1.5 7.2-1.7l-9-34.2h-6.9z"/><path class="st1" d="M37 21.2H15.2c-4.2 0-7.7-3.5-7.7-7.7V7.9c0-2.5 1-4.7 3-6.2s4.2-2 6.7-1.5l21.7 5c3.5 1 6 4 6 7.7 0 4.8-3.5 8.3-7.9 8.3zM15.2 4.9c-.7 0-1.2.2-1.7.5-.7.7-1 1.5-1 2.5v5.5c0 1.5 1.2 2.7 2.7 2.7H37c1.7 0 3-1.2 3-3 0-1.5-1-2.7-2.2-3L16 5.2c-.3 0-.5-.3-.8-.3zM137.3 126H10c-4 0-7.5-3.2-7.5-7.5S5.7 111 10 111h127.3c4 0 7.5 3.2 7.5 7.5s-3.2 7.5-7.5 7.5zM10 116c-1.2 0-2.5 1-2.5 2.5s1 2.5 2.5 2.5h127.3c1.2 0 2.5-1 2.5-2.5s-1-2.5-2.5-2.5H10zm117.3-97.3H94.9c-2.7 0-5-2.2-5-5v-5c0-2.7 2.2-5 5-5h32.5c2.7 0 5 2.2 5 5v5c-.1 2.7-2.3 5-5.1 5zm-32.4-10v5h32.5v-5H94.9z"/></svg>