<svg xmlns="http://www.w3.org/2000/svg" width="112" height="62" viewBox="0 0 112 62"><circle fill="#3CA436" cx="59.2" cy="21.7" r="2.4"/><path fill="#007AC3" d="M88.3 32.2v16.6l-1.1-.5c-3.4-1.5-7.7-2.2-12.3-2.2-6.4 0-11.7 1.3-15.3 3.7l-.4.3-.4-.3c-3.6-2.4-8.9-3.7-15.3-3.7-4.6 0-8.9.8-12.3 2.2l-1.2.6V32.2l-4.7-1.8v22.8c0 1.3 1.1 2.4 2.4 2.4.6 0 1.2-.3 1.7-.7 2.3-2.3 8.4-4 14.1-4 5.7 0 11.8 1.7 14.1 4 .9.9 2.5.9 3.3 0 2.3-2.3 8.4-4 14.1-4 5.7 0 11.8 1.7 14.1 4 .9.9 2.5.9 3.3 0 .4-.4.7-1.1.7-1.7V30.5l-4.8 1.7z"/><path fill="#3CA436" d="M111.8 20.9c-.2-.6-.7-1.1-1.4-1.4L60 .6c-.3-.1-.5-.1-.8-.1h-.1c-.2 0-.5.1-.7.1L8.1 19.4c-1.2.3-2 1.5-1.8 2.7v10.2l-.5.2C2.3 33.7 0 37 0 40.7c0 3.6 2.3 6.9 5.8 8.2l.5.1v10.6c0 1.3 1 2.4 2.3 2.4 1.3 0 2.3-1 2.4-2.3V49l.5-.2c3.5-1.2 5.8-4.5 5.8-8.2 0-3.6-2.3-6.9-5.8-8.2l-.5-.1v-7.2l47.3 17.7c.5.2 1.1.2 1.7 0l50.5-18.9c.6-.2 1.1-.7 1.3-1.2s.3-1.2 0-1.8zM12.6 40.7c0 2.2-1.7 3.9-3.9 3.9s-3.9-1.7-3.9-3.9 1.7-3.9 3.9-3.9c2.2-.1 3.9 1.6 3.9 3.9zm46.6-2.6L15.4 21.7 59.2 5.3l43.7 16.4-43.7 16.4z"/></svg>