<svg xmlns="http://www.w3.org/2000/svg" width="300" height="190" viewBox="0 0 300 190"><path fill="#FFC36D" d="M13.6 190h272.7c7.5 0 13.6-6.1 13.6-13.6V13.6c.1-7.5-6-13.6-13.5-13.6H13.6C6.1 0 0 6.1 0 13.6v162.9c0 7.4 6.1 13.5 13.6 13.5"/><path fill="#ECAB5D" d="M266.9 99.7H237c-4.9 0-8.8-4.3-8.8-9.5s4-9.5 8.8-9.5h29.9c4.9 0 8.8 4.3 8.8 9.5 0 5.3-3.9 9.5-8.8 9.5m-133.7 0h-29.9c-4.9 0-8.8-4.3-8.8-9.5s4-9.5 8.8-9.5h29.9c4.9 0 8.8 4.3 8.8 9.5 0 5.3-4 9.5-8.8 9.5m66.8 0h-29.9c-4.9 0-8.8-4.3-8.8-9.5s4-9.5 8.8-9.5H200c4.9 0 8.8 4.3 8.8 9.5.1 5.3-3.9 9.5-8.8 9.5"/><path fill="#EDAB5D" d="M34 106.7h34c3.8 0 6.8-3 6.8-6.8V79.5c0-3.7-3.1-6.8-6.8-6.8H34c-3.8 0-6.8 3-6.8 6.8v20.4c-.1 3.7 3 6.8 6.8 6.8"/><path fill="#FFC36E" d="M41.5 105.9V93.1c0-4.2-3.4-7.6-7.6-7.6h-6v-6c0-3.3 2.7-6 6-6h26.5v32.4H41.5z"/><path fill="#EDAB5D" d="M59.7 74.3v30.9H42.3v-12c0-4.6-3.8-8.3-8.4-8.3h-5.3v-5.2c0-2.9 2.4-5.2 5.3-5.2h25.8m1.5-1.8H34c-3.8 0-6.8 3-6.8 6.8v6.8H34c3.8 0 6.8 3 6.8 6.8v13.6h20.5v-34z"/><path fill="#FFF" d="M270.2 163H186c-2.9 0-5.2-2.3-5.2-5.2v-31.1c0-2.9 2.3-5.2 5.2-5.2h84.2c2.9 0 5.2 2.3 5.2 5.2v31.1c0 2.9-2.3 5.2-5.2 5.2"/><path fill="#3DA536" d="M232.3 134.1l-4.7 10.1h-.5V132h-6.6v20.7h5.6c1.5 0 2.8-.9 3.4-2.2l4.7-10.1h.5v12.2h6.6v-20.7h-5.6c-1.4 0-2.8.9-3.4 2.2m-24.9.6l-2.8 9.5h-.5l-2.8-9.5c-.5-1.6-2-2.7-3.6-2.7h-6.6v20.7h6.6v-12.2h.5l3.8 12.2h4.7l3.8-12.2h.5v12.2h6.6V132H211c-1.6-.1-3.1 1.1-3.6 2.7m36.8 6.7v11.3h6.6v-6.6h7.1c3.1 0 5.7-2 6.7-4.7h-20.4z"/><path fill="#00A7E3" d="M257.9 131.9h-14.7c.9 4.8 5.1 8.5 10.2 8.5h11.4c.1-.5.1-.9.1-1.4.1-3.9-3.1-7.1-7-7.1"/></svg>