<svg xmlns="http://www.w3.org/2000/svg" width="97" height="63" viewBox="0 0 97 63"><path fill="#3CA436" d="M90.8 0H6.2C2.8 0 0 2.8 0 6.2v50.7C0 60.2 2.8 63 6.2 63h84.6c3.4 0 6.2-2.8 6.2-6.2V6.2C97 2.8 94.2 0 90.8 0zm2.1 56.8c0 1.1-.9 2.1-2.1 2.1H6.2c-1.1 0-2.1-.9-2.1-2.1V6.2c0-1.2.9-2.1 2.1-2.1h84.6c1.1 0 2.1.9 2.1 2.1v50.6z"/><path fill="#3CA436" d="M21.1 24.3h4.4v3.6h-4.4zm0 21h4.4v3.6h-4.4zm0-31.6h4.4v3.6h-4.4zm0 21.1h4.4v3.6h-4.4z"/><path fill="#007AC3" d="M45.6 15.1c-4.3 0-7.9 3.5-7.9 7.8s3.5 7.8 7.9 7.8c4.3 0 7.9-3.5 7.9-7.8-.1-4.2-3.7-7.8-7.9-7.8zm0 12.4c-2.6 0-4.6-2.1-4.6-4.6 0-2.5 2.1-4.6 4.6-4.6 2.6 0 4.6 2.1 4.6 4.6 0 2.6-2.1 4.6-4.6 4.6zM75.9 40c0-2.1-.8-4-2.3-5.5-1.5-1.5-3.5-2.3-5.5-2.3-4.4 0-7.9 3.5-7.9 7.8s3.5 7.9 7.8 7.9v.8-.8c4.4-.1 7.9-3.6 7.9-7.9zm-12.5 0c0-2.5 2.1-4.6 4.6-4.6 2.6 0 4.6 2.1 4.6 4.6 0 1.2-.5 2.4-1.4 3.3-.9.9-2 1.3-3.3 1.3-2.4 0-4.5-2-4.5-4.6zm.2-26L45.8 47.2l4 2.1 17.7-33.2z"/></svg>