<svg xmlns="http://www.w3.org/2000/svg" width="88" height="88" viewBox="0 0 88 88"><path fill="#3CA436" d="M30.3 46.8H9.9v15.4h20.4V46.8zm-3.7 11.6H13.7v-7.9h12.9v7.9zm3.5 13.1h36.7v3.8H30.1z"/><path fill="#007AC3" d="M79.3 0H19.8c-4.7 0-8.6 3.9-8.6 8.6v25.6H15V16.1h69.3v29c0 2.6-2.2 4.9-4.9 4.9h-.8v3.7h.8c4.7 0 8.6-3.9 8.6-8.8V8.6C88 3.9 84 0 79.3 0zm4.9 12.4H14.9V8.6c0-2.6 2.2-4.9 4.9-4.9h59.6c2.6 0 4.9 2.2 4.9 4.9v3.8z"/><path fill="#3CA436" d="M78.6 42.9c0-4.7-3.9-8.6-8.6-8.6H8.6c-4.7 0-8.6 3.9-8.6 8.6v36.5C0 84.1 3.9 88 8.6 88H70c4.7 0 8.6-3.9 8.6-8.8V42.9zm-3.7 36.3c0 2.6-2.3 4.9-4.9 4.9H8.6c-2.6 0-4.9-2.2-4.9-4.9V42.9C3.8 40.2 6 38 8.6 38H70c2.6 0 4.9 2.2 4.9 4.9v36.3z"/></svg>