<svg xmlns="http://www.w3.org/2000/svg" width="80" height="70" viewBox="0 0 80 70"><path fill="#3CA436" d="M46.7 26.9H33.3c-2 0-3.7 1.6-3.7 3.7v9.5c0 2 1.6 3.7 3.7 3.7h13.4c2 0 3.7-1.6 3.7-3.7v-9.5c0-2.1-1.7-3.7-3.7-3.7zm-.4 12.8H33.7V31h12.6v8.7z"/><path fill="#007AC3" d="M29.6 37.2v-4.1H4.1v-15c0-.7.6-1.2 1.2-1.2h69.4c.7 0 1.2.6 1.2 1.2v15.1H50.4v4.1H80V18.1c0-2.9-2.4-5.3-5.3-5.3H61.2V3.7c0-2-1.6-3.7-3.7-3.7h-35c-2 0-3.7 1.6-3.7 3.7v9.1H5.3c-2.9 0-5.3 2.4-5.3 5.3v19.2l29.6-.1zM22.9 4.1h34.3v8.7H22.9V4.1z"/><path fill="#3CA436" d="M75.9 37.2v27.5c0 .7-.6 1.2-1.2 1.2H5.3c-.7 0-1.2-.6-1.2-1.2V37.2H0v27.5C0 67.6 2.4 70 5.3 70h69.4c2.9 0 5.3-2.4 5.3-5.3V37.2h-4.1z"/></svg>