<svg xmlns="http://www.w3.org/2000/svg" width="109" height="69" viewBox="0 0 109 69"><path fill="#3CA436" d="M101.4 69H7.8C3.5 69 0 65.6 0 61.4V7.6C0 3.4 3.5 0 7.8 0h93.7c4.2 0 7.4 3.4 7.4 7.6v53.8c.1 4.2-3.2 7.6-7.5 7.6zM7.8 3.6c-2.4 0-4.2 1.8-4.2 4v53.8c0 2.2 1.8 4 4.2 4h93.7c2.2 0 4-1.8 4-4V7.6c-.2-2.2-1.8-4-4.2-4H7.8z"/><path fill="#007AC3" d="M83.4 36.8c-.5 0-.9-.2-1.3-.5-.7-.7-.7-1.8 0-2.5l7.8-7.8-7.8-7.8c-.7-.7-.7-1.8 0-2.5s1.8-.7 2.5 0l9.1 9.1c.7.7.7 1.8 0 2.5l-9.1 9.1c-.2.2-.6.4-1.2.4zM13.1 26.6c0 8.7 7.1 15.8 15.8 15.8 4.2 0 8.2-1.6 11.2-4.6 1-1 1.8-2.1 2.5-3.3H68c.4 0 .9-.2 1.2-.5l5.9-6.2c.6-.6.6-1.6 0-2.3l-5.9-6.2c-.3-.3-.7-.5-1.2-.5H42.6c-1.3-2.2-3.1-4.1-5.2-5.4-2.5-1.6-5.4-2.4-8.5-2.4-4.2 0-8.2 1.6-11.2 4.6-2.9 2.9-4.6 6.8-4.6 11zm15.8 12.5c-6.3 0-11.5-4.7-12.4-10.8h6.8c.3.9.7 1.6 1.4 2.3 1.1 1.1 2.5 1.6 3.9 1.6 1.5 0 2.9-.6 3.9-1.6 1.1-1.1 1.6-2.5 1.6-3.9 0-3.1-2.5-5.6-5.6-5.6-1.5 0-2.9.6-3.9 1.6-.7.6-1.1 1.4-1.4 2.3h-6.8c.4-2.7 1.6-5.2 3.5-7.1 2.4-2.4 5.5-3.6 8.8-3.6 4.8 0 9.1 2.7 11.2 7 .3.6.9.9 1.5.9h25.7l4.4 4.6-4.4 4.6h-6.9v-1.1c0-.9-.7-1.7-1.7-1.7-.9 0-1.7.7-1.7 1.7v1.1h-4.5v-1.1c0-.9-.7-1.7-1.7-1.7-.9 0-1.7.7-1.7 1.7v1.1h-7.6c-.6 0-1.2.4-1.5.9-.6 1.2-1.4 2.3-2.4 3.3-2 2.2-5.2 3.5-8.5 3.5zm-2.5-12.5c0-.6.2-1.2.7-1.6.4-.4 1-.7 1.6-.7 1.2 0 2.3 1 2.3 2.3 0 .6-.2 1.2-.7 1.6-.4.4-1 .7-1.6.7-.6 0-1.2-.2-1.6-.7-.5-.4-.7-1-.7-1.6zm0 0"/><path fill="#3CA436" d="M.2 49.6h108.4v3.8H.2z"/></svg>