<svg xmlns="http://www.w3.org/2000/svg" width="81" height="88" viewBox="0 0 81 88"><path fill="#3CA436" d="M40.5 4c2.3 0 4.7.6 6.7 1.8l23.1 13.3c4.1 2.4 6.7 6.8 6.7 11.6v26.6c0 4.8-2.6 9.2-6.7 11.6L47.2 82.2c-2 1.2-4.3 1.8-6.7 1.8s-4.7-.6-6.7-1.8L10.7 68.9C6.6 66.5 4 62.1 4 57.3V30.7c0-4.8 2.6-9.2 6.7-11.6L33.8 5.8c2-1.2 4.4-1.8 6.7-1.8m0-4c-3 0-6.1.8-8.7 2.3L8.7 15.6C3.3 18.7 0 24.5 0 30.7v26.6c0 6.2 3.3 11.9 8.7 15l23.1 13.3c2.6 1.5 5.6 2.3 8.7 2.3s6.1-.8 8.7-2.3l23.1-13.3c5.4-3.1 8.7-8.8 8.7-15V30.7c0-6.2-3.3-11.9-8.7-15L49.2 2.3C46.6.8 43.5 0 40.5 0z"/><path fill="#FFF" stroke="#007AC3" stroke-width="4" stroke-miterlimit="10" d="M26 28v33c0 1.4 1.1 2.5 2.4 2.5h10.1V69c2.5-2.5 5.4-5.6 10.5-5.6h6.6c1.3 0 2.4-1.1 2.4-2.5V28H26z"/></svg>