<svg xmlns="http://www.w3.org/2000/svg" width="93" height="83" viewBox="0 0 93 83"><path fill="#3CA436" d="M77.8 43.6v26.2c0 4.9-4.3 9.2-9.2 9.2H48.2V43.6h-4V79H23.8c-4.9 0-9.2-4.3-9.2-9.2V43.6h-4v26.2c0 7.4 5.8 13.2 13.2 13.2h44.8c7.4 0 13.2-5.8 13.2-13.2V43.6h-4z"/><path fill="#007AC3" d="M87.1 23.3H59.9l2.9-1.5c3-1.6 5.6-3.2 6.5-3.9 1.8-1.3 3-3.6 3.6-6.8.6-3-1-5.7-2.1-7.2-2.1-2.1-5-3.3-7.9-3.3-2.3 0-4.4.8-6.1 2.2l-.1.2c-1.4 1-5.2 5.2-8.2 9.8-.6.9-1 1.6-1.5 2.4l-1 1.7-.7-1.2c-.6-1-1.2-2.2-2.1-3.5-2.8-4.4-6.6-8.3-8.3-9.9C33.3.9 30.9 0 28.4 0c-3 0-5.7 1.3-7.3 3.4-1 1.4-2.7 4.2-2.1 7.2.6 3.2 1.9 5.5 3.6 6.8 1 .8 3.7 2.6 7.2 4.4l2.8 1.5H5.9C3 23.3 0 25.7 0 29.2v8.4c0 2.9 2.4 5.9 5.9 5.9h81.2c2.9 0 5.9-3 5.9-5.9v-8.4c0-2.8-2.4-5.9-5.9-5.9zM44.2 39.8H5.4c-1 0-1.9-.9-1.9-1.9v-9.2c0-1 .9-1.9 1.9-1.9h38.9v13zm-.8-17c-4.7 0-14.8-5.6-17.8-8-1.3-.7-2-2.6-2-4 0-1.8 0-3.1 1.4-4.5 1.3-1.3 2.7-1.9 4.5-1.9 1.3 0 2.5.6 3.7 1.2h.1l.1.1c3.5 3 10.3 12.6 10.9 16.2l.2.9h-1.1zm4.8-1c.6-3.5 7.4-13.2 10.9-16.2l.1-.1h.1c1.2-.5 2.4-1.1 3.7-1.1 1.8 0 3.1.6 4.5 1.9l.1.1.1.1c.6 1.2 1.2 3 1.2 4.3 0 1.3-.6 2.7-1.9 3.9l-.1.1c-2.9 2.3-13.1 8-17.9 8h-.9l.1-1zm40.3 16.1c0 1-.9 1.9-1.9 1.9H48.2v-13h38.3c1 0 1.9.9 1.9 1.9v9.2z"/></svg>