<svg xmlns="http://www.w3.org/2000/svg" width="189" height="189" viewBox="0 0 189 189"><circle fill="#EF472C" cx="94.5" cy="94.5" r="94.5"/><path fill="#FFF" d="M54.4 110.3c-2.1 0-3.8-1.7-3.8-3.8l-.1-47.9c0-2.1 1.7-3.8 3.8-3.8h24c2.1 0 3.8 1.7 3.8 3.8l.1 47.9c0 1-.4 2-1.1 2.7-.7.7-1.7 1.1-2.7 1.1h-24zm3.8-47.9l.1 40.2h16.3l-.1-40.2H58.2z"/><path fill="#FFF" d="M109.1 134.3c-5.9 0-7-3.9-7.2-5.1-.1-.3-1.3-6.9-4.4-11.8-4.3-4.1-15.1-10.5-20.8-12.9-1.4-.6-2.4-2-2.4-3.5V71.8c0-2 1.6-3.7 3.6-3.8 1.2-.1 3.2-.3 6.3-1.2 1.5-.5 3.2-1.1 5.1-1.8l5.6-2.2c3.7-1.5 7-2.7 9.1-3.7.9-.4 1.9-.8 2.9-1.1 1.7-.5 3.4-.8 4.9-.8 3.9 0 6.1 1.7 7.2 3.2.2.2.3.5.5.7 3.6.9 6.6 3.5 7.8 7.1v.1c2.6 1.3 4.6 3.5 5.6 6.2.3.8.5 1.7.6 2.6 2.2 1.6 3.7 3.8 4.5 6.5 1 3.2.6 6.7-1 9.6-1.6 3-4.3 5.1-7.5 6.1l-1.6.5c-7.7 2.3-12.1 4.5-13.7 5.6.2.7.5 1.5.8 2.3.2.4.4 1 .7 1.5.4 1 .9 1.9 1.2 2.8 2.7 7 3 13.4 1 17.6-1 2.1-2.6 3.5-4.5 4.1-.7.2-2.5.6-4.3.6zM82 98.5c6.9 3.2 16.9 9.4 21.2 13.8.2.2.3.4.5.6 3.3 5 4.9 11.1 5.5 13.8.7 0 1.3-.1 1.7-.2.7-1 1.4-5-1.2-11.6-.3-.7-.7-1.5-1-2.3-.3-.6-.6-1.2-.8-1.8-.6-1.6-1.1-2.9-1.4-4.1-.4-1.3-.3-2.9.4-4.2.7-1.2 2.7-5 18.7-9.8l1.7-.5c1.2-.4 2.3-1.2 2.9-2.4.6-1.2.8-2.5.4-3.8-.4-1.3-1.3-2.4-2.6-3-1.5-.7-2.3-2.3-2.1-3.9.1-.6 0-1.1-.2-1.7-.4-1.1-1.3-2-2.5-2.2-1.6-.4-2.7-1.7-2.9-3.3 0-.3-.1-.5-.2-.7-.5-1.4-1.8-2.4-3.3-2.5-1.5-.1-2.7-1-3.3-2.3-.2-.4-.4-.8-.6-1.1-.1-.1-1.9-.3-3.8.3-.7.2-1.4.5-2 .7-2.2 1-5.5 2.3-9.4 3.8l-5.5 2.2c-2 .8-4 1.5-5.7 2-1.6.5-3 .8-4.4 1.1L82 98.5z"/></svg>