<svg xmlns="http://www.w3.org/2000/svg" width="248" height="248" viewBox="0 0 248 248"><path fill="#AFB6BC" d="M122.4 20c31.3 0 62.8 1.6 81.7 13.5 6.6 4.1 11.8 10.9 15.5 20.2 2.1 5.2 3.5 11.8 4.9 18.2l.5 3.4.8 5.4v.3l.1.3c.3 1.7.4 4 .6 6.5.2 2.8.3 5.9.8 9.2l.2 4.2.4 8.3.1 5.2v21.4l-.5 11.5-.1 2.8-.1 1.9-1.2 13.6-.8 5.5-.8 5.5c-2.2 10-5 20.1-9.6 26.7-5.9 8.4-13.9 13.9-25.9 17.7-4.5 1.4-9.9 2.4-15.7 3.4-1.6.3-3.1.6-4.7.8l-3.9.4-6 .7-11.9.8h-.7l-3.4.1h-2.5l-12.2.2h-12.8l-10.9-.3-2.6-.1-2.2-.1-8.8-.7-5.6-.4-3.4-.5-7.5-1-8.5-1.7c-5.8-1.5-13-3.6-18.2-6.6-10.6-6.3-16.6-14.4-21.1-29.1-1.2-3.9-2-8.7-2.9-13.7-.3-2-.7-4-1.1-6.1-.3-1.5-.4-3.6-.6-5.8-.2-2.5-.3-5.3-.8-8.3l-.3-4.7-.3-8.2-.4-10.5v-14.4l.2-6.3.2-6.6.1-3.5v-.9l.6-7.1.5-6.3.9-6.7.6-4.1.2-1.2c2.2-10 4-18.7 7.5-24.6C38.5 35.3 47 29.6 65.9 24.8c2.3-.6 5.2-1 8.2-1.5 1.8-.3 3.6-.6 5.6-.9l6.1-.7 7.5-.6 5.1-.4 1.6-.1 2.9-.1 4.5-.2 2-.1 10.9-.2h2.1m0-20h-2.2c-3.7.1-7.5.1-11.2.2-2.3.1-4.6.2-6.9.2-1.6.1-3.3.2-4.9.2-4.4.3-8.8.7-13.2 1-2.4.3-4.8.6-7.2.8C71.3 3.5 66 4.1 61 5.4c-23.2 5.9-36.7 14.6-47.4 33C8.2 47.5 6 58.7 3.4 70.7c-.5 4-1.1 8.1-1.6 12.1-.4 4.8-.8 9.5-1.2 14.3-.1 1.6-.1 3.3-.2 4.9-.1 4.4-.3 8.8-.4 13.2v13.5c.1 4.1.2 8.3.2 12.4.1 2.9.2 5.8.3 8.6.1 2 .2 3.9.4 5.9.8 5.2.6 10.6 1.6 15.6 1.4 7.7 2.4 15.2 4.5 22.1 5.8 18.7 14.6 31.3 30.1 40.4 6.9 4.1 15.2 6.7 23.9 8.9 3.2.6 6.4 1.3 9.7 1.9 4 .5 8.1 1.1 12.1 1.6 5.2.4 10.3.8 15.5 1.2 1.8.1 3.5.1 5.3.2l11.1.3c1.9 0 3.7 0 5.6.1h7.7c5-.1 10.1-.2 15.1-.2 1.5-.1 2.9-.1 4.4-.2 4.3-.3 8.6-.6 12.9-.8l11.1-1.2c8.3-1.5 16.2-2.6 23.5-5 15.9-5 27.7-13 36.3-25.2 6.6-9.4 10-21.4 12.9-34.6.6-4.1 1.2-8.2 1.9-12.3.4-4.9.9-9.7 1.3-14.6.1-1.8.2-3.5.2-5.3.2-4 .3-8 .5-12v-3.2c0-1.9 0-3.7.1-5.6v-13.3c0-1.9-.1-3.8-.1-5.7l-.6-13.8c-.9-5.9-.6-11.8-1.6-17.5-.5-3.1-1-6.2-1.5-9.4-1.7-7.8-3.4-15.2-6-21.9-5-12.5-12.7-23-23.4-29.7C192.3 2.4 159 0 122.4 0z"/><path d="M29 219L219 29m0 190L29 29" fill="none" stroke="#AFB6BC" stroke-width="20" stroke-miterlimit="10"/></svg>