<svg xmlns="http://www.w3.org/2000/svg" width="248" height="248" viewBox="0 0 248 248"><path fill-rule="evenodd" clip-rule="evenodd" fill="#3CA436" d="M120.1 0c37.6-.1 71.7 2.2 94.6 16.6 10.7 6.7 18.4 17.2 23.4 29.7 2.7 6.7 4.3 14.1 6 21.9.5 3.1 1 6.2 1.5 9.4 1 5.6.7 11.6 1.6 17.5l.6 13.8c0 1.9.1 3.8.1 5.7v13.3c0 1.9 0 3.7-.1 5.6v3.2c-.2 4-.3 8-.5 12-.1 1.8-.2 3.5-.2 5.3-.4 4.9-.9 9.7-1.3 14.6-.6 4.1-1.2 8.2-1.9 12.3-2.9 13.2-6.3 25.1-12.9 34.6-8.6 12.2-20.4 20.2-36.3 25.2-7.3 2.3-15.2 3.4-23.5 5l-11.1 1.2c-4.3.3-8.6.6-12.9.8-1.5.1-2.9.1-4.4.2-5 .1-10.1.2-15.1.2H120c-1.9 0-3.7 0-5.6-.1l-11.1-.3c-1.8-.1-3.5-.1-5.3-.2-5.2-.4-10.3-.8-15.5-1.2-4-.5-8.1-1.1-12.1-1.6-3.2-.6-6.4-1.3-9.7-1.9-8.7-2.2-17-4.8-23.9-8.9-15.5-9.1-24.3-21.6-30.1-40.4-2.1-6.9-3.1-14.4-4.5-22.1-.9-5.1-.7-10.4-1.6-15.6-.1-2-.2-3.9-.4-5.9-.1-2.9-.2-5.8-.3-8.6-.1-4.1-.2-8.3-.2-12.4v-13.5c.1-4.4.3-8.8.4-13.2.1-1.6.1-3.3.2-4.9.4-4.8.8-9.6 1.1-14.4.5-4 1.1-8.1 1.6-12.1 3-12.1 5.2-23.3 10.5-32.4C24.3 20 37.8 11.3 61 5.4c5-1.3 10.3-1.8 15.7-2.8 2.4-.3 4.8-.6 7.2-.8 4.4-.3 8.8-.7 13.2-1 1.6-.1 3.3-.2 4.9-.2 2.3-.1 4.6-.2 6.9-.2 3.7-.3 7.5-.3 11.2-.4z"/><g fill="#FFF"><path d="M66.7 126.9l45.6 45.3c2.1 2.1 5 2.1 7.1 0 2.1-2.1 2.1-4.9 0-7l-45.6-45.3c-2.1-2.1-5-2.1-7.1 0-2.1 2.1-2.1 4.9 0 7z"/><path d="M173.6 76.4l-61.7 89.5c-1.7 2.5-1.2 5.3 1.3 6.9 2.5 1.6 5.3 1.2 7-1.3L181.9 82c1.7-2.5 1.2-5.3-1.3-6.9-2.5-1.6-5.3-1.2-7 1.3z"/></g></svg>