<svg xmlns="http://www.w3.org/2000/svg" width="189" height="189" viewBox="0 0 189 189"><circle fill="#3CA436" cx="94.5" cy="94.5" r="94.5"/><path fill="#FFF" d="M67.4 139.5c-1.6 0-3.1-1.1-3.6-2.7L50.7 92.2c-.6-2 .5-4 2.5-4.6L75.6 81c.9-.3 2-.2 2.8.3.9.5 1.5 1.3 1.8 2.2l13.2 44.7c.3.9.2 2-.3 2.8-.5.9-1.3 1.5-2.2 1.8l-22.4 6.6c-.4.1-.8.1-1.1.1zm-8.6-45.8l.1.2 11 37.3 15.2-4.5-11-37.5-15.3 4.5z"/><path fill="#FFF" d="M116.6 121.8c-1.1 0-2.1-.1-3-.2-2.2-.3-5.6-.6-9.5-.9l-5.8-.5c-6.1-.6-9.8-.1-11.4.3-1.9.5-3.9-.7-4.4-2.6l-8-27.2c-.4-1.5.1-3 1.3-4 4.7-3.8 13-12.7 15.9-17.8 1.5-5.4.8-11.9.8-12.2-.2-1.6.3-3.2 1.4-4.5 2.5-2.8 7.5-2.9 8-2.9 1.9 0 3.8.9 5.4 2.6 3.1 3.4 4.5 9.4 4 16.7-.1.9-.2 1.9-.4 2.9l-.3 1.8c-.1.7-.1 1.5-.1 2.2 1.8.7 6.5 1.5 14.3 1.5h1.5c6.9 0 12.4 5.5 12.4 12.3 0 2.7-.8 5.2-2.4 7.3.2.9.2 1.7.2 2.6-.1 2.8-1.4 5.4-3.5 7.3v.2c-.2 3.6-2.2 6.8-5.3 8.7-.1.3-.2.5-.3.8-1.6 3.7-5.4 5.6-10.8 5.6zM93 112.5c1.8 0 3.7.1 5.9.3l5.8.5c4 .3 7.6.6 9.8.9.6.1 1.3.1 2.1.1 2.5 0 3.5-.6 3.6-.8.1-.3.2-.7.3-1.2.2-1.4 1.1-2.6 2.5-3.1s2.3-1.7 2.4-3.1c0-.3 0-.5-.1-.8-.3-1.5.4-3.1 1.8-3.9 1-.6 1.7-1.6 1.7-2.8 0-.6-.1-1.1-.3-1.6-.6-1.5-.3-3.2.9-4.3 1-1 1.6-2.2 1.6-3.6 0-2.7-2.2-4.9-4.9-4.9h-1.6c-16.3 0-19.2-3-20.2-4-1.1-1.1-1.6-2.5-1.6-3.9 0-1.1.1-2.5.2-4 .1-.8.2-1.5.3-2.1.1-.9.2-1.7.3-2.4.6-7-1.3-10.5-2.1-11.2-.5 0-1.2.1-1.7.3.2 2.6.4 8.8-1.3 14.4-.1.2-.2.5-.3.7-2.9 5.3-10.5 13.8-16 18.7l6.4 21.7c1.4.2 2.9.1 4.5.1z"/></svg>