<svg xmlns="http://www.w3.org/2000/svg" width="189" height="189" viewBox="0 0 189 189"><g fill="#3ca436"><path d="M94.5 186.5c-50.7 0-92-41.3-92-92s41.3-92 92-92 92 41.3 92 92-41.3 92-92 92z"/><path d="M94.5 5C143.9 5 184 45.1 184 94.5S143.9 184 94.5 184 5 143.9 5 94.5 45.1 5 94.5 5m0-5C42.3 0 0 42.3 0 94.5S42.3 189 94.5 189 189 146.7 189 94.5 146.7 0 94.5 0z"/></g><g fill="#fff"><path d="M122.5 92.2c0 14.3-2.9 25-8.5 35.1-.3.5-.7 1-1 1.5-.9 1.5-3.1 1.5-4.2.9-1.6-.9-2.4-2.8-1.8-4.3.7-1.5 1.4-3 2.2-4.5 2.9-6 4.8-12.3 5.5-18.9 1.2-11.7-.2-23-5.5-33.7-.7-1.5-1.4-3-2.1-4.6-.7-1.6.1-3.6 1.8-4.3 1.7-.7 3.6-.2 4.6 1.4 2.9 4.7 4.9 9.8 6.4 15 1.8 6.2 2.7 12.6 2.6 16.4z"/><path d="M107.2 94.8c-.1 8.3-2 16.5-6 24.1-.5 1-1.2 2-2 2.8-1.2 1.3-2.9 1.4-4.3.5-1.5-1-2-2.8-1.3-4.3 1.1-2.4 2.2-4.7 3.2-7.2 2.7-6.8 3.6-13.8 2.8-21-.6-5.6-2.2-10.9-4.7-15.9-.5-1-1-2.1-1.4-3.1-.6-1.7.1-3.3 1.6-4.1 1.7-.8 3.7-.4 4.6 1.1 2.2 3.7 4 7.7 5.3 11.9 1.5 4.8 2.2 9.8 2.2 15.2zm-15.5 0c.2 6.5-1.7 12.6-4.9 18.3-.3.5-.7 1.1-1.1 1.6-1 1.2-2.3 1.5-3.7 1-1.4-.5-2.3-1.5-2.5-3-.1-.6.1-1.2.4-1.8.7-1.7 1.6-3.4 2.3-5.2 3.3-8.3 2.9-16.4-.9-24.4-.6-1.2-1.1-2.4-1.6-3.6-.7-1.8-.3-2.7 1.6-4.1 1-.7 3.1-.5 4 .5.7.8 1.4 1.7 1.9 2.7 3.1 5.5 4.7 11.4 4.5 18zm-14.3-.2c0 4.1-1 8-3.3 11.5-.5.8-1.2 1.6-1.9 2.3-1.2 1-2.8 1-3.9.2-1.5-1.1-2-2.7-1.5-4.2.2-.6.5-1.2.9-1.8 2-2.8 2.4-6 2.2-9.4-.1-2.3-.8-4.4-2-6.3-.4-.7-.8-1.4-1.1-2.1-.6-1.4-.1-3.1 1.3-4.1 1.3-1 3-1 4.2.1.7.7 1.3 1.5 1.9 2.3 2.1 3.4 3.1 7.3 3.2 11.5z"/></g></svg>