<svg xmlns="http://www.w3.org/2000/svg" width="84" height="79" viewBox="0 0 84 79"><path fill="none" d="M71.6 60.5l-13.4 3.4-4.7 1.1c-1 .2-2 .4-3 .4-.8 0-1.6-.1-2.4-.2l-15.2-3c-.9-.2-1.6-1.1-1.4-2.1.2-.9 1.1-1.6 2.1-1.4l15.2 3c1.3.3 2.6.2 3.8-.1l3.4-.8c-.2-3.2-1.8-4.7-5.6-5.7l-30.1-6.7C19 54.3 17 61.3 15.6 66.1l25.2 8.4c6.3 2.4 6.8 2.6 21.5-3.5l17.3-7.9c-1.8-2.3-5-3.4-8-2.6zM3.5 41.3v27.9H11c1.3-4.1 5.5-17.7 6.4-25.4-2.2-1.1-8.3-2.1-13.9-2.5z"/><path fill="#3CA436" d="M83.8 62.6c-2.4-4.9-7.8-7.3-13.1-6l-11.3 2.8c-.5-4.4-3.1-7-8.3-8.2l-30.4-6.7c.1-.7.2-1.3.2-1.9 0-.5-.2-1.1-.5-1.4-3-2.8-15-3.8-18.6-4-.5 0-1 .1-1.3.5-.3.2-.5.7-.5 1.2v31.5c0 1 .8 1.7 1.7 1.7h10.5c.8 0 1.4-.5 1.7-1.2 0-.1.3-.9.6-2l25.1 8.4c2.9 1.1 5 1.8 7.3 1.8 3.5 0 7.7-1.6 16.8-5.3L83 65c.4-.2.8-.6.9-1 .2-.5.1-1-.1-1.4zm-72.8 6H3.5V40.7c5.6.4 11.7 1.4 13.9 2.5-.9 7.7-5.1 21.3-6.4 25.4zm51.3 1.9c-14.7 6-15.2 5.8-21.5 3.5l-25.2-8.4c1.4-4.8 3.4-11.8 4.6-17.7l30.1 6.7c3.9 1 5.4 2.5 5.6 5.7l-3.4.8c-1.2.3-2.6.3-3.8.1l-15.2-3c-1-.2-1.9.4-2.1 1.4-.2.9.4 1.9 1.4 2.1l15.2 3c.8.2 1.6.2 2.4.2 1 0 2-.1 3-.4l4.7-1.2L71.6 60c3.1-.8 6.2.3 8.1 2.6l-17.4 7.9z"/><path fill="#007AC3" d="M74.7 40.7l-.2-.1.1-.2c.1-.3.1-3.2.1-5.1 0-1.1-.9-2-2-2h-3.3V15c0-1.1-.9-2-2-2H42.1V2c0-1.1-.9-2-2-2H28.2c-1.1 0-2 .9-2 2s.9 2 2 2H38v21.2h-.2c-3.2.5-6.1 2.2-8.3 4.7-2.2 2.5-3.3 5.8-3.3 9.1 0 .1.1.5.1.9 0 .2 0 .4.1.5l3.8-.8V39c0-5.5 4.4-9.9 9.9-9.9 2.7 0 5.3 1.1 7.1 3C49 34 50 36.4 50 39c0 2-.6 3.8-1.6 5.5l3.4 2.1c1.5-2.3 2.2-4.9 2.2-7.5 0-.4 0-.9-.1-1.5v-.3h16.8v.2c0 1.1.1 2.6.1 2.8l.1.2-.2.1c-2.6.9-4.3 3.3-4.3 6 0 3.5 2.8 6.3 6.3 6.3s6.3-2.8 6.3-6.3c0-2.7-1.7-5.1-4.3-5.9zm-9.4-7.4H52.6l-.1-.1c-2-4.1-5.8-7-10.2-7.8h-.2V17h23.2v16.3zM75 46.8c0 1.3-1 2.4-2.3 2.4-1.2 0-2.3-1.1-2.3-2.4 0-1.3 1-2.4 2.3-2.4.7 0 1.3.3 1.7.7.4.4.6 1 .6 1.7z"/><circle fill="#007AC3" cx="28.3" cy="40.3" r="2"/><circle fill="#007AC3" cx="49.8" cy="45.7" r="2"/></svg>