<svg id="Layer_1" xmlns="http://www.w3.org/2000/svg" width="87" height="79" viewBox="0 0 87 79"><style>.st0{fill:#3ca436}.st1{fill:#007ac3}</style><path class="st0" d="M86.8 62c-2.5-5-8.1-7.6-13.5-6.2l-11.7 2.9c-.5-4.5-3.2-7.2-8.6-8.5l-31.4-7c.1-.7.2-1.3.2-2 0-.6-.2-1.1-.6-1.5-3.1-2.9-15.5-3.9-19.3-4.1-.5 0-1 .1-1.4.5-.3.3-.5.8-.5 1.3V70c0 1 .8 1.8 1.8 1.8h10.9c.8 0 1.5-.5 1.7-1.3 0-.1.3-.9.7-2.1l26 8.7c3 1.1 5.2 1.8 7.5 1.8 3.7 0 8-1.6 17.4-5.5l19.9-9.1c.4-.2.8-.6 1-1 .2-.4.1-.9-.1-1.3m-75.4 6.2H3.6V39.4c5.8.5 12.1 1.5 14.4 2.6-.9 7.9-5.3 22-6.6 26.2m53.2 2c-15.2 6.2-15.8 6-22.3 3.6l-26.1-8.7c1.5-4.9 3.6-12.3 4.8-18.3l31.2 6.9c4 1 5.6 2.6 5.9 5.9l-3.5.9c-1.3.3-2.7.4-4 .1l-15.7-3.1c-1-.2-1.9.4-2.1 1.4-.2 1 .4 1.9 1.4 2.1l15.7 3.1c.8.2 1.7.2 2.5.2 1 0 2.1-.1 3.1-.4l4.9-1.2 13.9-3.5c3.2-.8 6.4.3 8.4 2.7l-18.1 8.3z"/><path class="st1" d="M68.9 3.6C66.4 1.2 63 0 58.7 0c-1.2 0-2.4.2-3.7.6-1.3.4-2.4 1-3.5 1.7s-2 1.4-2.8 2c-.8.6-1.5 1.3-2.2 2-.7-.7-1.4-1.4-2.2-2-.8-.6-1.7-1.3-2.8-2C40.4 1.6 39.2 1 38 .6 36.7.2 35.5 0 34.3 0c-4.4 0-7.8 1.2-10.2 3.6-2.5 2.4-3.7 5.8-3.7 10 0 1.3.2 2.6.7 4 .5 1.4 1 2.6 1.6 3.5.6 1 1.2 1.9 2 2.8.7.9 1.3 1.6 1.6 1.9l.8.8 18.2 17.6c.3.3.8.5 1.3.5s.9-.2 1.3-.5l18.2-17.5c4.5-4.5 6.7-8.8 6.7-13.1-.2-4.2-1.4-7.6-3.9-10M63.4 24L46.5 40.3 29.5 24c-3.6-3.6-5.5-7.1-5.5-10.4 0-1.6.2-3 .6-4.2.4-1.2 1-2.2 1.6-2.9.7-.7 1.4-1.3 2.4-1.7.9-.4 1.8-.7 2.7-.9.9-.2 1.8-.2 2.9-.2 1 0 2.1.2 3.3.7 1.2.5 2.2 1.1 3.2 1.9 1 .7 1.8 1.4 2.5 2.1.7.7 1.3 1.2 1.7 1.8.3.4.8.6 1.4.6.6 0 1.1-.2 1.4-.6.5-.5 1-1.1 1.7-1.8s1.5-1.3 2.5-2.1c1-.7 2.1-1.4 3.2-1.9 1.2-.5 2.3-.7 3.3-.7s2 .1 2.9.2c.9.2 1.8.5 2.7.9.9.4 1.7 1 2.4 1.7s1.2 1.7 1.6 2.9c.4 1.2.6 2.6.6 4.2.3 3.3-1.6 6.8-5.2 10.4"/></svg>