<svg xmlns="http://www.w3.org/2000/svg" width="95.4" height="62" viewBox="8.3 0 95.4 62"><path fill="#3CA436" d="M98 0H14c-3.1 0-5.7 2.6-5.7 5.7v50.5c0 3.2 2.6 5.8 5.7 5.8h83.9c3.1 0 5.7-2.6 5.7-5.7V5.7c.1-3.1-2.4-5.7-5.6-5.7zm2.4 56.3c0 1.4-1.1 2.5-2.5 2.5H14c-1.4 0-2.5-1.1-2.5-2.5V5.7c0-1.4 1.1-2.5 2.5-2.5h83.9c1.4 0 2.5 1.1 2.5 2.5v50.6z"/><path fill="#3CA436" d="M87.2 17.9H65.3c-.9 0-1.7.8-1.7 1.7 0 .9.8 1.7 1.7 1.7h21.9c.9 0 1.7-.8 1.7-1.7 0-.9-.7-1.7-1.7-1.7zm0 11.4H65.3c-.9 0-1.7.8-1.7 1.7s.8 1.7 1.7 1.7h21.9c.9 0 1.7-.8 1.7-1.7 0-.9-.7-1.7-1.7-1.7zm0 11.4H65.3c-.9 0-1.7.8-1.7 1.7s.8 1.7 1.7 1.7h21.9c.9 0 1.7-.8 1.7-1.7 0-1-.7-1.7-1.7-1.7z"/><path fill="#007AC3" d="M45.6 37.8c-.7 0-4.1-.2-5.1-4.1l-.1-.2.2-.2c1.3-1.1 2.5-2.5 3.2-4.2l.1-.2h.3c.5.1 1-.2 1.3-.6 1.7-2.2 2.6-4.9 2.5-7.8-.2-6-4.3-10.7-9.4-10.8h-.7c-1.3-.5-2.6-.8-3.9-.8-2.9.1-5.5 1.5-7.5 4-1.9 2.5-2.9 5.6-2.8 8.9 0 .6.1 1.1.1 1.6.2 1.4.6 2.8 1.2 4 .2.5.7.8 1.3.9h.4l.3-.1.1.3c.8 2 2 3.6 3.4 4.8l.2.2.2.2c-1 4-4.7 4.2-5.1 4.2-3.8.1-6.9 3.2-6.9 7.1v7.5c0 .8.7 1.5 1.5 1.5h30.7c.8 0 1.5-.7 1.5-1.5V45c-.1-4-3.1-7-7-7.2zm-18.5-14L27 23c-.1-.4-.1-.8-.1-1.3-.1-2.7.7-5.1 2.1-7 1.4-1.8 3.2-2.9 5.2-2.9h.3c.6 0 1.7.1 2.7.7.2.1.4.1.6.1h.7c3.5 0 6.5 3.6 6.6 8 0 .5 0 1-.1 1.5l-.1 1.1-.6-1c-1.2-2.1-3-3.5-5-4.4-.4-.2-.8-.2-1.2 0-.4.2-.7.5-.8.8-.2.4-.3.8-.5 1.2-.5 1-1.6 1.6-2.8 1.6h-.7c-1.1 0-2.1.2-3.1.6-1 .4-1.9.9-2.7 1.6l-.4.2zm2.4 2l-.1-.2.2-.2c.4-.3.9-.6 1.6-.9.9-.4 2-.4 2.4-.4h.4c2.2 0 4-1 5.2-2.8l.2-.4.3.3c1 .8 1.8 1.8 2.4 3v.2c-.6 4.3-3.3 7.6-6.4 7.6-2.8.1-5.3-2.4-6.2-6.2zm.7 13.7c1.6-1 2.8-2.6 3.3-4.3l.1-.3.3.1c1.1.3 2.3.3 3.3 0l.3-.1.1.3c.6 1.8 1.8 3.3 3.3 4.3l.3.2v.3c-.9 2.4-3.1 3.9-5.6 3.9-2.5 0-4.7-1.6-5.6-3.9l-.1-.3.3-.2zm-8.4 11.4v-6c0-2.4 1.9-4.2 4.2-4.2.1 0 .7 0 1-.1h.3l.1.3c1.3 3.4 4.6 5.8 8.4 5.8s7.1-2.4 8.4-5.8l.1-.3h.3c.3 0 .9.1 1 .1 2.3 0 4.2 1.9 4.2 4.2v6h-28z"/></svg>