<svg xmlns="http://www.w3.org/2000/svg" width="58" height="75" viewBox="0 0 58 75"><path fill="#3CA436" d="M50.8 0H7.3C3.3 0 0 3.3 0 7.3V59c0 2.2 1.2 4.1 3 5.4 0 .1-.1.2-.1.4v5.1C2.9 72.8 5.1 75 8 75h1.5c2.8 0 5.1-2.2 5.1-5.1v-3.6h29v3.6c0 2.8 2.2 5.1 5.1 5.1H50c2.8 0 5.1-2.2 5.1-5.1v-5.1c1.7-1.3 2.9-3.4 2.9-5.8V7.3c0-4-3.3-7.3-7.2-7.3zM2.9 7.3c0-2.4 2-4.3 4.3-4.3h43.5C53.1 3 55 5 55 7.3v4.3H2.9V7.3zm8.7 62.6c0 1.2-.9 2.2-2.2 2.2H8c-1.2 0-2.2-.9-2.2-2.2v-4c.7.2 1.4.4 2.2.4h3.6v3.6zm40.6 0c0 1.2-.9 2.2-2.2 2.2h-1.5c-1.2 0-2.2-.9-2.2-2.2v-3.6h4.3c.5 0 1-.1 1.4-.1v3.7zM55.1 59c0 2.4-2 4.4-4.3 4.4H8c-2.3 0-5.1-2-5.1-4.4V46h52.2v13zm0-15.9H2.9V14.5h52.2v28.6z"/><path fill="#007AC3" d="M42 5.8H16.7c-.8 0-1.5.7-1.5 1.4 0 .8.7 1.4 1.5 1.4H42c.8 0 1.5-.7 1.5-1.4-.1-.7-.7-1.4-1.5-1.4zm0 0"/><path fill="#3CA436" d="M29.7 13c-.8 0-1.4.7-1.4 1.7V43c0 .9.7 1.7 1.4 1.7.8 0 1.4-.7 1.4-1.7V14.7c0-1-.6-1.7-1.4-1.7z"/><path fill="#007AC3" d="M10.9 58.3c2.4 0 4.3-2 4.3-4.3 0-2.4-2-4.3-4.3-4.3-2.4 0-4.3 2-4.3 4.3-.1 2.4 1.9 4.3 4.3 4.3zm0-5.8c.8 0 1.4.7 1.4 1.4 0 .8-.7 1.4-1.4 1.4-.8 0-1.4-.7-1.4-1.4-.1-.7.6-1.4 1.4-1.4zm36.2 5.8c2.4 0 4.3-2 4.3-4.3 0-2.4-2-4.3-4.3-4.3-2.4 0-4.3 2-4.3 4.3 0 2.4 1.9 4.3 4.3 4.3zm0-5.8c.8 0 1.4.7 1.4 1.4 0 .8-.7 1.4-1.4 1.4s-1.4-.7-1.4-1.4.6-1.4 1.4-1.4zm0 0"/></svg>