<svg xmlns="http://www.w3.org/2000/svg" width="52" height="75" viewBox="0 0 52 75"><path fill="#007AC3" d="M12.1 49.1c-2.9 0-5.2 2.3-5.2 5.2 0 2.9 2.3 5.2 5.2 5.2 2.9 0 5.2-2.3 5.2-5.2 0-2.9-2.3-5.2-5.2-5.2zm0 7c-1 0-1.8-.8-1.8-1.8s.8-1.8 1.8-1.8 1.8.8 1.8 1.8-.8 1.8-1.8 1.8zm27.8-7c-2.9 0-5.2 2.3-5.2 5.2 0 2.9 2.3 5.2 5.2 5.2 2.9 0 5.2-2.3 5.2-5.2s-2.3-5.2-5.2-5.2zm0 7c-1 0-1.8-.8-1.8-1.8s.8-1.8 1.8-1.8 1.8.8 1.8 1.8c-.1 1-.8 1.8-1.8 1.8zm1.4-45.3l-3.6 22.7H14.2l-3.5-22.7H7.2l4.9 31.6c.1.8.9 1.4 1.7 1.4h24.3c.8 0 1.6-.6 1.7-1.4l5.1-31.6h-3.6zm-4.7 29.7H15.3l-.6-3.5h22.5l-.6 3.5z"/><path fill="#3CA436" d="M45 7.4H6.8C3 7.4 0 10.5 0 14.4v45.1c0 3.7 3.1 6.8 6.8 6.8h2.3l-3.6 6c-.5.8-.2 1.9.6 2.3.3.3.6.4.9.4.6 0 1.1-.3 1.5-.8l4.6-7.8h25.8l4.6 7.8c.3.5.9.8 1.5.8.3 0 .6-.1.9-.2.8-.5 1.1-1.5.6-2.3l-3.6-6H45c3.9 0 7-3.1 7-6.8V14.4c0-3.8-3.1-7-7-7zm3.6 52.2c0 1.9-1.6 3.4-3.6 3.4H6.8c-1.8 0-3.4-1.6-3.4-3.4V14.4c0-1.9 1.6-3.6 3.4-3.6H45c2 0 3.6 1.6 3.6 3.6v45.2zM35.3 3.4c.9 0 1.7-.8 1.7-1.7 0-.9-.7-1.7-1.7-1.7H17.4c-.9 0-1.7.8-1.7 1.7 0 .9.8 1.7 1.7 1.7h17.9zm0 0"/></svg>