<svg id="Layer_1" xmlns="http://www.w3.org/2000/svg" width="49" height="57" viewBox="0 0 49 57"><style>.st0{fill:#3ca436}</style><path class="st0" d="M24.3 31h.4c3.5-.1 6.3-1.3 8.4-3.6 4.6-5.2 3.8-14.1 3.7-14.9-.3-6.4-3.3-9.4-5.8-10.8C29.2.6 27 0 24.6 0h-.2c-1.3 0-3.9.2-6.4 1.6-2.5 1.4-5.6 4.5-5.9 10.9-.1.8-.8 9.7 3.7 14.9 2.2 2.4 5 3.6 8.5 3.6zm-9-18.2s0-.1 0 0c.4-8.6 6.5-9.6 9.1-9.6h.1c3.2.1 8.7 1.4 9.1 9.5v.1c0 .1.8 8.2-2.9 12.5-1.5 1.7-3.5 2.5-6.1 2.6h-.1c-2.6 0-4.6-.9-6.1-2.6-3.9-4.3-3.1-12.4-3.1-12.5zm0 0"/><path class="st0" d="M49 45.2v-.3c-.1-2.4-.2-7.9-5.4-9.7h-.1c-5.4-1.4-9.9-4.5-9.9-4.5-.7-.5-1.7-.3-2.2.4-.5.7-.3 1.7.4 2.2.2.1 5 3.4 10.9 5 2.8 1 3.1 4 3.2 6.7v.3c0 1.1-.1 2.7-.3 3.7-1.9 1.1-9.5 4.9-21 4.9S5.5 50.1 3.6 49c-.2-1-.3-2.6-.3-3.7V45c.1-2.7.4-5.7 3.2-6.7 5.9-1.5 10.7-4.8 10.9-5 .7-.5.9-1.5.4-2.2-.5-.7-1.5-.9-2.2-.4 0 0-4.5 3.1-9.9 4.5h-.1C.4 37 .3 42.5.2 44.9v.3c0 .6 0 3.8.6 5.4.1.3.3.6.6.8.4.2 8.9 5.7 23.3 5.7s22.9-5.5 23.3-5.7c.3-.2.5-.4.6-.8.4-1.6.4-4.8.4-5.4zm0 0"/><path class="st0" d="M14.9 31l1.9-5 2.9 1.9-1.9 4.8zM34 31l-1.9-5-2.9 1.9 1.9 4.8z"/></svg>