<svg xmlns="http://www.w3.org/2000/svg" width="106" height="140" viewBox="0 0 106 140"><path fill="#3CA436" d="M30.9 113.6c-.5-.5-1.1-.7-1.8-.7s-1.3.3-1.8.7c-.5.5-.7 1.1-.7 1.8s.3 1.3.7 1.8c.5.5 1.1.7 1.8.7s1.3-.3 1.8-.7c.5-.5.7-1.1.7-1.8 0-.6-.2-1.3-.7-1.8zm0 0"/><path fill="#007AC3" d="M31.8 63.5h42.5c2.8 0 5.1-2.3 5.1-5.2V27.5c0-2.8-2.3-5.1-5.1-5.1H31.8c-2.8 0-5.1 2.3-5.1 5.1v30.8c-.1 2.9 2.2 5.2 5.1 5.2zm42.5-5h-5.5V38h5.6v20.4c.1.1 0 .1-.1.1zm.2-31V33h-5.6v-5.6h5.5s.1 0 .1.1zm-42.9 0c0-.1.1-.2.2-.2h32.1v31.2H31.8c-.1 0-.2-.1-.2-.2V27.5zm0 0"/><path fill="#3CA436" d="M101.9 124.4H90V74.8H16v49.5H4.8c-2.7 0-4.8 2.2-4.8 4.8v8.3c0 1.4 1.1 2.5 2.5 2.5h101c1.4 0 2.5-1.1 2.5-2.5v-8.3c0-2.3-1.8-4.3-4.1-4.7zm-81-41.8v-6.5H85v48.4H20.9V82.6zM101 135H5v-5.6h96v5.6z"/><path fill="#007AC3" d="M90.1 74.8V5.1C90 2.3 87.7 0 84.9 0H21.1c-2.5 0-4.5 1.8-5 4.1v70.7h74zM20.9 5.1s.1-.1.2-.1h63.8c.1 0 .2.1.2.2v8.1H20.9V5.1zm0 13.2H85v53.5H20.9V18.3z"/></svg>