<svg xmlns="http://www.w3.org/2000/svg" width="74" height="141" viewBox="0 0 74 141"><path fill="#007AC3" d="M16.2 25.2h-3.3c-1.2 0-2.3 1-2.3 2.3 0 1.2 1 2.3 2.3 2.3H61c1.2 0 2.3-1 2.3-2.3 0-1.2-1-2.3-2.3-2.3h-3V2.3C58 1.1 57 0 55.7 0H18.4c-1.2 0-2.3 1-2.3 2.3v22.9zm4.5-20.6h32.8v20.6H20.7V4.6z"/><path fill="#3CA436" d="M60 11.4h-2v4.5h2c5.2 0 9.5 4.2 9.5 9.5v101.7c0 5.2-4.2 9.5-9.5 9.5H14c-5.2 0-9.5-4.2-9.5-9.5v-101C4.5 20.7 8.9 16 14 16h2.2v-4.5H14c-7.6 0-14 6.7-14 14.7v101c0 7.7 6.3 14 14 14h46c7.7 0 14-6.3 14-14V25.4c0-7.7-6.3-14-14-14z"/><path fill="#3CA436" d="M21 75.1h-5.3c-2.7 0-4.9 2.2-4.9 4.9v2.6c0 2.7 2.2 4.9 4.9 4.9H21c2.7 0 4.9-2.2 4.9-4.9V80c.1-2.6-2.1-4.9-4.9-4.9zm.5 8h-6.1v-3.5h6.1v3.5zm18.3-8h-5.3c-2.7 0-4.9 2.2-4.9 4.9v2.6c0 2.7 2.2 4.9 4.9 4.9h5.3c2.7 0 4.9-2.2 4.9-4.9V80c0-2.6-2.2-4.9-4.9-4.9zm-5.7 8v-3.5h6.1v3.5h-6.1zm24.3-8h-5.3c-2.7 0-4.9 2.2-4.9 4.9v2.6c0 2.7 2.2 4.9 4.9 4.9h5.3c2.7 0 4.9-2.2 4.9-4.9V80c0-2.6-2.2-4.9-4.9-4.9zm-5.7 8v-3.5h6.1v3.5h-6.1zM21 91.3h-5.3c-2.7 0-4.9 2.2-4.9 4.9v2.6c0 2.7 2.2 4.9 4.9 4.9H21c2.7 0 4.9-2.2 4.9-4.9v-2.6c.1-2.7-2.1-4.9-4.9-4.9zm.5 8h-6.1v-3.5h6.1v3.5zm18.3-8h-5.3c-2.7 0-4.9 2.2-4.9 4.9v2.6c0 2.7 2.2 4.9 4.9 4.9h5.3c2.7 0 4.9-2.2 4.9-4.9v-2.6c0-2.7-2.2-4.9-4.9-4.9zm-5.7 8v-3.5h6.1v3.5h-6.1zm24.3-8h-5.3c-2.7 0-4.9 2.2-4.9 4.9v2.6c0 2.7 2.2 4.9 4.9 4.9h5.3c2.7 0 4.9-2.2 4.9-4.9v-2.6c0-2.7-2.2-4.9-4.9-4.9zm-5.7 8v-3.5h6.1v3.5h-6.1zM21 107.2h-5.3c-2.7 0-4.9 2.2-4.9 4.9v2.6c0 2.7 2.2 4.9 4.9 4.9H21c2.7 0 4.9-2.2 4.9-4.9v-2.6c.1-2.7-2.1-4.9-4.9-4.9zm.5 8h-6.1v-3.5h6.1v3.5zm18.3-8h-5.3c-2.7 0-4.9 2.2-4.9 4.9v2.6c0 2.7 2.2 4.9 4.9 4.9h5.3c2.7 0 4.9-2.2 4.9-4.9v-2.6c0-2.7-2.2-4.9-4.9-4.9zm-5.7 8v-3.5h6.1v3.5h-6.1zm24.3-8h-5.3c-2.7 0-4.9 2.2-4.9 4.9v2.6c0 2.7 2.2 4.9 4.9 4.9h5.3c2.7 0 4.9-2.2 4.9-4.9v-2.6c0-2.7-2.2-4.9-4.9-4.9zm-5.7 8v-3.5h6.1v3.5h-6.1zm-10.3 10.7H31.8c-1.2 0-2.3 1-2.3 2.3 0 1.2 1 2.3 2.3 2.3h10.6c1.2 0 2.3-1 2.3-2.3 0-1.3-1-2.3-2.3-2.3z"/><path fill="#007AC3" d="M15.6 66.4h42.8c2.7 0 4.9-2.2 4.9-4.9v-19c0-2.7-2.2-4.9-4.9-4.9H15.6c-2.7 0-4.9 2.2-4.9 4.9v19c-.1 2.7 2.1 4.9 4.9 4.9zM15.1 42h43.6v19.9H15.1V42z"/></svg>