<svg xmlns="http://www.w3.org/2000/svg" width="136" height="108" viewBox="0 0 136 108"><path fill="#007AC3" d="M128 0h-19.8c-4.4 0-8 3.6-8 8v97.8c0 1.2 1 2.2 2.2 2.2h31.3c1.2 0 2.2-1 2.2-2.2V8c.1-4.4-3.5-8-7.9-8zm3.5 103.5h-26.9v-6.7h26.9v6.7zm0-11.1h-26.9V24h26.9v68.4zm0-72.9h-26.9V8c0-2 1.6-3.5 3.5-3.5H128c2 0 3.5 1.6 3.5 3.5v11.5zM35.8 8c0-4.4-3.6-8-8-8H8C3.6 0 0 3.6 0 8v97.8c0 1.2 1 2.2 2.2 2.2h31.3c1.2 0 2.2-1 2.2-2.2V8zm-4.5 95.5H4.5v-6.7h26.9v6.7zm0-11.1H4.5V24h26.9v68.4zm0-72.9H4.5V8C4.5 6 6 4.5 8 4.5h19.8c1.9 0 3.5 1.6 3.5 3.5v11.5z"/><path fill="#3CA436" d="M86.4 15.7H35.8v21.5l6.6 28.2c.3 1.2 1.5 1.9 2.7 1.7 1.2-.3 1.9-1.5 1.7-2.7l-9.6-40.9L74 52.2c1 .8 2.4.6 3.1-.4.8-1 .6-2.4-.4-3.1L40 20.1h46.3c1.2 0 2.2-1 2.2-2.2.1-1.2-.9-2.2-2.1-2.2z"/></svg>