<svg xmlns="http://www.w3.org/2000/svg" xmlns:xlink="http://www.w3.org/1999/xlink" width="37" height="40" viewBox="0 0 37 40"><defs><path id="a" d="M0 0h37v40H0z"/></defs><clipPath id="b"><use xlink:href="#a" overflow="visible"/></clipPath><path clip-path="url(#b)" fill="#3CA436" d="M26.5 0h-16C4.7 0 0 4.7 0 10.5V40h2.5V10.5c0-4.4 3.6-8 8-8h16c4.4 0 8 3.6 8 8V40H37V10.5C37 4.7 32.3 0 26.5 0"/><path clip-path="url(#b)" fill="#3CA436" d="M30.5 30.7L28.6 6.9H8.4L6.5 30.7h2.9l-6.3 6.8V40h30.7v-2.5l-6.3-6.8h3zM26.3 9.4l.7 8.9H10l.7-8.9h15.6zM9.8 20.8h17.4l.6 7.4H9.2l.6-7.4zM6.5 37.5l2-2.2h20l2 2.2h-24zm19.7-4.6H10.8l2-2.2h11.4l2 2.2z"/><path clip-path="url(#b)" fill="#3CA436" d="M11.5 23.2h3.3v2.5h-3.3zm10.7 0h3.3v2.5h-3.3z"/></svg>