<svg xmlns="http://www.w3.org/2000/svg" width="22" height="22" viewBox="0 0 22 22"><path fill="#007AC3" d="M7.1 14.4c-.9 0-1.5.7-1.5 1.5 0 .9.7 1.5 1.5 1.5s1.5-.7 1.5-1.5-.6-1.5-1.5-1.5zm0 2.1c-.3 0-.5-.2-.5-.5s.2-.5.5-.5.5.2.5.5c0 .2-.2.5-.5.5zm8.2-2.1c-.9 0-1.5.7-1.5 1.5 0 .9.7 1.5 1.5 1.5.9 0 1.5-.7 1.5-1.5s-.7-1.5-1.5-1.5zm0 2.1c-.3 0-.5-.2-.5-.5s.2-.5.5-.5.5.2.5.5c0 .2-.3.5-.5.5zm.4-13.3l-1.1 6.7H7.7l-1-6.7h-1l1.4 9.3c0 .2.3.4.5.4h7.1c.2 0 .5-.2.5-.4l1.5-9.3h-1zm-1.4 8.7H8l-.2-1h6.6l-.1 1z"/><path fill="#3CA436" d="M16.8 2.2H5.5c-1.1 0-2 .9-2 2.1v13.2c0 1.1.9 2 2 2h.7l-1.1 1.8c-.1.2-.1.6.2.7h.3c.2 0 .3-.1.4-.2l1.3-2.3H15l1.3 2.3c.1.1.3.2.4.2.1 0 .2 0 .3-.1.2-.1.3-.4.2-.7l-1.1-1.8h.6c1.1 0 2.1-.9 2.1-2V4.2c0-1.1-.9-2-2-2zm1 15.3c0 .6-.5 1-1.1 1H5.5c-.5 0-1-.5-1-1V4.2c0-.6.5-1.1 1-1.1h11.2c.6 0 1.1.5 1.1 1.1v13.3zM13.9 1c.3 0 .5-.2.5-.5s-.2-.5-.5-.5H8.7c-.3 0-.5.2-.5.5s.2.5.5.5h5.2z"/></svg>