<svg xmlns="http://www.w3.org/2000/svg" width="16" height="18" viewBox="0 0 16 18"><path fill="#FFF" d="M11.7 18H4.3c-1.5 0-2.7-1.2-2.7-2.7V7.1c0-.3.2-.5.5-.5s.5.2.5.5v8.3c0 1 .8 1.8 1.8 1.8h7.4c1 0 1.8-.8 1.8-1.8V7.1c0-.3.2-.5.5-.5s.5.2.5.5v8.3c-.2 1.4-1.5 2.6-2.9 2.6zm2.4-15.8h-3.5C10.4 1 9.3 0 8 0S5.6 1 5.3 2.2H1.9C.8 2.2 0 3.1 0 4.1s.8 1.8 1.9 1.8h12.3c1 0 1.9-.8 1.9-1.9s-1-1.8-2-1.8zM8 .9c.8 0 1.5.5 1.7 1.3H6.2C6.5 1.5 7.2.9 8 .9zM14.1 5H1.9c-.5 0-1-.4-1-1 0-.5.4-1 1-1h12.3c.5 0 1 .4 1 1-.2.6-.6 1-1.1 1z"/><path fill="#FFF" d="M4.8 15.8c-.3 0-.5-.2-.5-.5V7.7c0-.3.2-.5.5-.5s.5.2.5.5v7.6c-.1.2-.3.5-.5.5zm6.4 0c-.3 0-.5-.2-.5-.5V7.7c0-.3.2-.5.5-.5s.5.2.5.5v7.6c-.1.2-.3.5-.5.5zm-3.2 0c-.3 0-.5-.2-.5-.5V7.7c0-.3.2-.5.5-.5s.5.2.5.5v7.6c-.1.2-.3.5-.5.5z"/></svg>