<svg xmlns="http://www.w3.org/2000/svg" width="20" height="22" viewBox="0 0 20 22"><path fill="#FFF" d="M14.6 22H5.4C3.5 22 2 20.5 2 18.6V8.3c0-.3.2-.5.6-.5s.5.2.5.5v10.3c0 1.3 1 2.2 2.2 2.2h9.2c1.3 0 2.2-1 2.2-2.2V8.3c0-.3.2-.6.6-.6.3 0 .6.2.6.6v10.3c0 1.9-1.5 3.4-3.3 3.4zm3-19.2h-4.3C13 1.2 11.6 0 10 0S7 1.2 6.7 2.8H2.3C1 2.8 0 3.8 0 5.1s1 2.3 2.3 2.3h15.3c1.3 0 2.3-1 2.3-2.3s-1-2.3-2.3-2.3zM10 1.1c1 0 1.9.7 2.1 1.7H7.8c.3-1 1.1-1.7 2.2-1.7zm7.6 5.2H2.3c-.6 0-1.2-.5-1.2-1.2 0-.6.5-1.2 1.2-1.2h15.3c.6 0 1.2.5 1.2 1.2s-.5 1.2-1.2 1.2z"/><path fill="#FFF" d="M6 19.2c-.3 0-.6-.2-.6-.6V9.1c0-.3.2-.6.6-.6.3 0 .6.2.6.6v9.5c0 .3-.3.6-.6.6zm8 0c-.3 0-.6-.2-.6-.6V9.1c0-.3.2-.6.6-.6s.6.2.6.6v9.5c-.1.3-.4.6-.6.6zm-4 0c-.3 0-.6-.2-.6-.6V9.1c0-.3.2-.6.6-.6s.6.2.6.6v9.5c-.1.3-.3.6-.6.6z"/></svg>