<svg xmlns="http://www.w3.org/2000/svg" width="1190.6" height="841.9" viewBox="0 0 1190.6 841.9"><path d="M670.2 415.2c3.1 3.1 8.2 3 11.3-.1 5.9-6 12.1-7.6 14.9-6.1 3.3 1.8 4.2 7.7 2.3 14.3-1.3 4.2 1.2 8.7 5.4 9.9.7.2 1.5.3 2.2.3 3.4 0 6.6-2.2 7.7-5.7 4.2-14.3.2-27.2-9.9-32.8-9.9-5.5-23.3-2.1-34 8.8-3.1 3.3-3 8.3.1 11.4zm0 0"/><path d="M787.8 376.8c-1.6-2.2-4.2-3.4-6.8-3.2-33.9 1.8-69.2-6.6-99.4-23.8-28.9-16.4-52.6-40.2-68.4-68.8-1.3-2.3-3.7-3.8-6.3-4.1-2.6-.2-5.2.9-6.9 3-10.1 12.4-17.8 23.8-23.4 34.7-10 17.8-17.2 34.6-21.9 51.4-15.2 6.6-31.4 11.3-48.5 13.8-32.7 4.7-66.8.6-95.8-11.8-2.4-1-5.2-.8-7.4.6s-3.6 3.8-3.8 6.4c-.6 14.2 0 28.2 1.9 41.8 8.2 55.1 33.9 103.5 68.9 129.4 17.4 12.9 36.2 19.5 54.8 19.5 3.9 0 7.8-.3 11.8-.9 25.7-3.7 48.1-19.8 64.3-46.1 9.6 3.8 19.9 5.6 30.7 5.6 17.7 0 36.6-5 55.7-15 32.6-17 62.2-46.7 83.4-83.7.1-.1.1-.2.2-.3 7.3-14.1 13.4-27.9 18.2-41.3.7-2.2.3-5-1.3-7.2zm-195.6 125c-.1.1-.1.2-.2.2-.5.9-1 1.8-1.4 2.7-13.9 25.4-33.7 41.1-56.4 44.3-18.2 2.7-37.1-2.6-54.6-15.7-31.7-23.4-55-67.8-62.6-118.8-1.3-9-1.9-18.2-2-27.6 29.1 10.2 61.9 13.3 93.5 8.7 21.3-3.2 41.5-9.4 60.1-18.5 11.8-5.6 22.6-12.3 33-20.3.3 1.2.7 2.5 1 3.7 0 .1.1.2.1.3.1.4.2.7.3 1.1.1.3.2.6.2.9.1.2.1.4.2.6.1.5.2 1 .3 1.4 1.9 7.8 3.3 15.1 4.3 21.5v.2c5.8 42.6 0 84.4-15.8 115.3zm164.5-83.7c-37.6 65.8-102.2 102.8-148.2 86.6 0-.1.1-.1.1-.2.1-.2.2-.2.2-.4.2-.6.6-1.1.8-1.7.2-.4.3-.7.5-1.1.3-.6.6-1.3.9-2 .2-.4.4-.9.6-1.3.2-.6.6-1.3.8-2 .2-.4.3-.9.6-1.3.3-.7.6-1.4.8-2.2.2-.4.3-.7.4-1.1.3-.9.6-1.7 1-2.6l.2-.7c.4-1 .7-2.2 1.1-3.2v-.1c.7-2.2 1.4-4.5 2.1-6.8 9.5 3.8 19.8 5.8 29.9 5.8 13.8 0 27.3-3.5 38.4-10.6 3.8-2.3 4.9-7.3 2.5-11-2.3-3.8-7.3-4.9-11-2.5-15.6 9.8-37.5 10.8-55.9 2.6h-.1c4.8-24.4 5.4-51 1.7-77.9v-.3c-.4-2.4-.9-4.9-1.4-7.5 4.1-1.6 8-1.5 9.8.2 2.4 2.5 2.8 7.7 1 13.9-1.2 4.2 1.3 8.6 5.5 9.8.7.2 1.4.3 2.2.3 3.5 0 6.7-2.3 7.7-5.8 3.4-12.2 1.7-22.6-5-29.4-5.9-6-15.1-7.7-24.6-4.8-1.6-6.6-3.6-13.4-6-20.2-.9-2.5-3-4.4-5.5-5-1-.2-1.9-.3-2.9-.2-.2 0-.5.1-.6.1-.1 0-.2 0-.3.1-.9.2-1.7.6-2.4 1-.1.1-.2.1-.2.2-.2.2-.6.4-.8.6-.9.8-1.8 1.5-2.6 2.2-.7.6-1.4 1.2-2.2 1.8-.1.1-.2.1-.2.2-6.5 5.2-13.3 10-20.5 14.3 4.1-10.9 9.3-21.8 15.7-33.3.1-.1.1-.2.2-.2 3.8-7.3 8.6-14.9 14.6-23 17 26.6 40.4 48.8 68.3 64.6 29.3 16.6 62.9 25.6 96 26.1-3.9 9-8.3 18.4-13.2 28zm0 0"/><path d="M464 450.3c3.9 0 7.4-2.9 8-7 .7-5.8 3.8-9.5 6.2-9.8 3.9-.3 8.4 3 11.2 8.2 2.1 3.8 6.9 5.4 10.8 3.3 3.8-2.1 5.4-6.9 3.3-10.8-5.8-11-16.3-17.5-26.7-16.6-10.6 1-18.9 10.5-20.6 23.7-.6 4.4 2.5 8.4 6.9 9h.9zm72.1-8.7c.4.1.7.1 1.1.1 3.9 0 7.4-2.9 7.9-6.9.8-5.4 3.8-9 6.2-9.3.2 0 .4-.1.6-.1 3.5-.6 7.8 2.6 10.4 8 2 4 6.7 5.6 10.7 3.7 4-2 5.6-6.7 3.7-10.7-5.8-11.9-16.5-18.5-27.1-16.8-10.2 1.1-18.6 10.6-20.3 23-.6 4.4 2.4 8.4 6.8 9zm43.5 25.9c-4.2-1-8.6 1.5-9.8 5.8-4.7 17.9-20.8 31.7-41 35-20.2 2.6-40.2-6.1-50-21.8-2.3-3.8-7.3-4.9-11-2.6-3.8 2.3-4.9 7.3-2.6 11 11.7 18.6 33 29.8 56.2 29.8 3.2 0 6.4-.2 9.7-.6h.2c26.6-4.3 47.8-22.6 54.1-46.8 1-4.3-1.6-8.7-5.8-9.8zm0 0"/></svg>