<svg xmlns="http://www.w3.org/2000/svg" width="161" height="143" viewBox="0 0 161 143"><path fill="#3CA436" d="M7.2 69.6c.9.9 2.3.9 3.2 0l1.5-1.5v9.3c0 1.3 1 2.3 2.3 2.3 1.3 0 2.3-1 2.3-2.3v-9.3l1.5 1.5c.9.9 2.3.9 3.2 0 .9-.9.9-2.3 0-3.2l-5.5-5.5c-.9-.9-2.3-.9-3.2 0L7 66.4c-.7.9-.7 2.3.2 3.2z"/><path fill="#007AC3" d="M71.9 72.9c.4.2.7.3 1.1.3.4 0 .8-.1 1.1-.3.7-.4 1.1-1.2 1.1-2V54.2c0-.8-.4-1.6-1.1-2-.7-.4-1.6-.4-2.3 0l-14.4 8.3c-.7.4-1.1 1.2-1.1 2s.4 1.6 1.1 2l14.5 8.4zm-1.1-14.7v8.7l-7.6-4.4 7.6-4.3zm-42.3 6.6h7.1c1.3 0 2.3-1 2.3-2.3 0-1.3-1-2.3-2.3-2.3h-7.1v4.6z"/><path fill="#007AC3" d="M132.4 120.5H82.8V4.6h49.6V0H28.5v4.6h49.7v115.9H28.5v4.6h103.9z"/><path fill="#007AC3" d="M132.4 104.5h-7.1c-1.3 0-2.3 1-2.3 2.3s1 2.3 2.3 2.3h7.1v-4.6z"/><path fill="#3CA436" d="M150.4 51.7H137V2.3c0-1.3-1-2.3-2.3-2.3h-2.3v140.7c0 1.3 1 2.3 2.3 2.3h23.9c1.3 0 2.3-1 2.3-2.3V62.2c0-5.8-4.7-10.5-10.5-10.5zm5.9 86.7H137V56.2h13.4c3.3 0 6 2.7 6 6v76.2z"/><path fill="#007AC3" d="M132.4 60.2h-7.1c-1.3 0-2.3 1-2.3 2.3 0 1.3 1 2.3 2.3 2.3h7.1v-4.6z"/><path fill="#3CA436" d="M23.9 2.3v49.4H10.5C4.7 51.7 0 56.4 0 62.2v78.5c0 1.3 1 2.3 2.3 2.3h23.9c1.3 0 2.3-1 2.3-2.3V0h-2.3c-1.3 0-2.3 1-2.3 2.3zm0 136.1H4.6V62.2c0-3.3 2.7-6 6-6H24v82.2z"/><path fill="#007AC3" d="M28.5 109.1h7.1c1.3 0 2.3-1 2.3-2.3s-1-2.3-2.3-2.3h-7.1v4.6zm58.2-36.2c.4.2.7.3 1.1.3.4 0 .8-.1 1.1-.3l14.4-8.3c.7-.4 1.1-1.2 1.1-2s-.4-1.6-1.1-2L89 52.2c-.7-.4-1.6-.4-2.3 0-.7.4-1.1 1.2-1.1 2v16.7c0 .8.4 1.5 1.1 2zm3.4-14.7l7.6 4.4-7.6 4.4v-8.8z"/><path fill="#3CA436" d="M148.3 60.9c-.9-.9-2.3-.9-3.2 0l-5.5 5.5c-.9.9-.9 2.3 0 3.2.9.9 2.3.9 3.2 0l1.5-1.5v9.3c0 1.3 1 2.3 2.3 2.3 1.3 0 2.3-1 2.3-2.3v-9.3l1.5 1.5c.9.9 2.3.9 3.2 0 .9-.9.9-2.3 0-3.2l-5.3-5.5z"/></svg>