<svg id="Layer_1" xmlns="http://www.w3.org/2000/svg" width="490" height="477" viewBox="0 0 490 477"><style>.st0{fill-rule:evenodd;clip-rule:evenodd;fill:#fff}.st1{fill:#007ac3}.st2{fill:#fff}.st3{fill:#f87a14}.st4{fill:#3ca436}.st5{font-family:&amp;apos;Roboto-Bold&amp;apos;}.st6{font-size:25}.st7{font-size:40}</style><g id="est-side"><g id="sector-8"><path class="st0" d="M257 474.5c-.7 0-1.3-.3-1.7-.7-.5-.5-.8-1.1-.8-1.8V332.5c0-1.3 1-2.4 2.2-2.5 18.9-2 36.5-9.6 50.9-22.2.5-.4 1.1-.6 1.6-.6.6 0 1.3.2 1.8.7l100.7 100.6c.5.5.7 1.1.7 1.8s-.3 1.3-.8 1.8c-42.2 39.1-97.1 61.2-154.6 62.4z"/><path class="st1" d="M309.3 309.7L410 410.4c-40.4 37.2-94 60.4-153 61.6V332.5c19.9-2.1 38-10.3 52.3-22.8m0-5c-1.2 0-2.3.4-3.3 1.2-14 12.2-31.2 19.7-49.6 21.6-2.5.3-4.5 2.4-4.5 5V472c0 1.3.5 2.6 1.5 3.6.9.9 2.2 1.4 3.5 1.4h.1c58.1-1.2 113.6-23.6 156.3-62.9 1-.9 1.6-2.2 1.6-3.6s-.5-2.7-1.5-3.6L312.9 306.2c-1-1-2.3-1.5-3.6-1.5z"/></g><g id="sector-7"><path class="st0" d="M426.2 396.5c-.7 0-1.3-.3-1.8-.7L323 294.4c-.9-.9-1-2.2-.3-3.2 9-12.8 14.7-27.9 16.3-43.5.1-1.3 1.2-2.2 2.5-2.2H485c.7 0 1.3.3 1.8.8s.7 1.2.7 1.8c-2.1 54.4-23.2 106.8-59.5 147.5-.4.5-1.1.8-1.8.9z"/><path class="st1" d="M485 248c-2.1 56-24 106.9-58.8 146L324.8 292.6c9.1-12.9 15-28.1 16.8-44.6H485m0-5H341.5c-2.6 0-4.7 1.9-5 4.5-1.6 15.2-7.1 29.8-15.9 42.3-1.4 2-1.2 4.7.6 6.4l101.4 101.3c.9.9 2.2 1.5 3.5 1.5h.1c1.4 0 2.7-.6 3.6-1.7 18-20.2 32.4-43.1 42.6-68.1 10.6-25.8 16.5-53 17.5-81 .1-1.4-.5-2.7-1.4-3.7-.8-.9-2.1-1.5-3.5-1.5z"/></g><g id="sector-6"><path class="st0" d="M341.2 227.5c-1.3 0-2.3-.9-2.5-2.2-2.2-16.3-8.8-31.7-19.1-44.6-.8-1-.7-2.4.2-3.3l100.1-100c.5-.5 1.1-.7 1.8-.7s1.3.3 1.8.8c37.9 40.1 60.5 92.5 63.8 147.4 0 .7-.2 1.4-.7 1.9-.5.5-1.1.8-1.8.8H341.2z"/><path class="st1" d="M421.7 79.1c36.4 38.6 59.7 89.5 63.1 145.9H341.2c-2.4-17.2-9.3-32.9-19.6-45.9l100.1-100m0-5c-1.3 0-2.6.5-3.5 1.5l-100.1 100c-1.8 1.8-2 4.6-.4 6.6 10 12.6 16.4 27.6 18.5 43.4.3 2.5 2.5 4.3 5 4.3h143.6c1.4 0 2.7-.6 3.6-1.6.9-1 1.4-2.4 1.4-3.7-1.7-28.2-8.3-55.6-19.6-81.3-11-25-26.1-47.8-44.9-67.7-.9-.9-2.2-1.4-3.6-1.5z"/></g><g id="sector-5"><path class="st2" d="M305.3 165.4c-.5 0-1.1-.2-1.5-.5-13.6-10.6-29.9-17.1-47-18.9-1.3-.1-2.2-1.2-2.2-2.5V6c0-.7.3-1.3.8-1.8s1.1-.7 1.7-.7h.1c55 1.2 108.2 21.7 149.7 57.8.5.5.8 1.1.9 1.8 0 .7-.2 1.4-.7 1.9L307 164.7c-.5.5-1.1.7-1.7.7z"/><path class="st1" d="M257 6c56.6 1.2 108.3 22.5 148.1 57.2L305.3 163c-13.6-10.6-30.2-17.5-48.3-19.4V6m0-5c-1.3 0-2.6.5-3.5 1.4-1 .9-1.5 2.2-1.5 3.6v137.5c0 2.6 1.9 4.7 4.5 5 16.6 1.7 32.4 8.1 45.7 18.4.9.7 2 1.1 3.1 1.1 1.3 0 2.6-.5 3.5-1.5l99.8-99.8c1-1 1.5-2.3 1.5-3.7 0-1.4-.7-2.7-1.7-3.6-20.6-17.9-43.9-32.1-69.2-42C313 7.1 285.4 1.6 257.1 1h-.1z"/></g></g><g id="west-side"><g id="sector-4"><path class="st2" d="M184.7 165.4c-.6 0-1.3-.2-1.8-.7L83.2 65c-.5-.5-.8-1.2-.7-1.9s.3-1.3.9-1.8C124.9 25.2 178 4.7 233.1 3.5h.1c.7 0 1.3.3 1.7.7.5.5.8 1.1.8 1.8v137.5c0 1.3-1 2.4-2.2 2.5-17.1 1.8-33.4 8.3-47 18.9-.7.4-1.2.5-1.8.5z"/><path class="st3" d="M233 6v137.5c-18.1 1.9-34.6 8.9-48.3 19.4L84.9 63.2C124.7 28.5 176.4 7.2 233 6m0-5h-.1c-28.3.6-55.9 6.1-82.1 16.4-25.3 10-48.6 24.1-69.2 42-1 .9-1.7 2.2-1.7 3.6s.5 2.7 1.5 3.7l99.8 99.8c1 1 2.3 1.5 3.5 1.5 1.1 0 2.2-.3 3.1-1.1 13.3-10.3 29.1-16.7 45.7-18.4 2.5-.3 4.5-2.4 4.5-5V6c0-1.3-.5-2.6-1.5-3.6-.9-.9-2.2-1.4-3.5-1.4z"/></g><g id="sector-3"><path class="st0" d="M5.2 227.5c-.7 0-1.3-.3-1.8-.8s-.7-1.2-.7-1.9c3.3-54.9 26-107.3 63.8-147.4.5-.5 1.1-.8 1.8-.8s1.3.3 1.8.7l100.1 100c.9.9 1 2.3.2 3.3-10.2 12.9-16.8 28.4-19.1 44.6-.2 1.2-1.2 2.2-2.5 2.2H5.2z"/><path class="st3" d="M68.3 79.1l100.1 100c-10.3 13-17.2 28.7-19.6 45.9H5.2c3.4-56.4 26.7-107.3 63.1-145.9m0-5c-1.4 0-2.7.6-3.6 1.6-18.8 19.9-33.9 42.7-44.9 67.7C8.5 169.1 1.9 196.5.2 224.7c-.1 1.4.4 2.7 1.4 3.7.9 1 2.3 1.6 3.6 1.6h143.6c2.5 0 4.6-1.8 5-4.3 2.2-15.8 8.6-30.8 18.5-43.4 1.6-2 1.4-4.8-.4-6.6L71.9 75.6c-1-.9-2.2-1.5-3.6-1.5z"/></g><g id="sector-2"><path class="st0" d="M63.8 396.5c-.7 0-1.3-.3-1.8-.8-36.3-40.8-57.4-93.2-59.5-147.6 0-.7.2-1.3.7-1.8.5-.5 1.1-.8 1.8-.8h143.5c1.3 0 2.4 1 2.5 2.2 1.6 15.6 7.3 30.6 16.3 43.5.7 1 .6 2.3-.3 3.2L65.6 395.7c-.5.5-1.1.8-1.8.8z"/><path class="st3" d="M148.5 248c1.7 16.5 7.7 31.7 16.8 44.6L63.8 394C29 354.9 7.1 304 5 248h143.5m0-5H5c-1.4 0-2.7.6-3.6 1.5-.9 1-1.4 2.3-1.4 3.7 1.1 28 7 55.3 17.5 81 10.2 25 24.6 47.9 42.6 68.1.9 1 2.2 1.6 3.6 1.7h.1c1.3 0 2.6-.5 3.5-1.5l101.4-101.3c1.7-1.7 2-4.4.6-6.4-8.8-12.5-14.3-27.1-15.9-42.3-.2-2.6-2.4-4.5-4.9-4.5z"/></g><g id="sector-1"><path class="st0" d="M232.9 474.5c-57.5-1.2-112.4-23.3-154.7-62.3-.5-.5-.8-1.1-.8-1.8s.3-1.3.7-1.8L178.9 308c.5-.5 1.1-.7 1.8-.7.6 0 1.2.2 1.6.6 14.4 12.5 32 20.2 50.9 22.2 1.3.1 2.2 1.2 2.2 2.5V472c0 .7-.3 1.3-.8 1.8-.3.4-.9.7-1.7.7.1 0 .1 0 0 0z"/><path class="st3" d="M180.7 309.7c14.3 12.4 32.4 20.7 52.3 22.8V472c-59-1.2-112.6-24.4-153-61.6l100.7-100.7m0-5c-1.3 0-2.6.5-3.5 1.5L76.4 406.8c-1 1-1.5 2.3-1.5 3.6 0 1.4.6 2.7 1.6 3.6 42.7 39.4 98.2 61.7 156.3 62.9h.1c1.3 0 2.6-.5 3.5-1.4 1-.9 1.5-2.2 1.5-3.6V332.5c0-2.6-1.9-4.7-4.5-5-18.4-1.9-35.5-9.4-49.6-21.6-.8-.8-2-1.2-3.1-1.2z"/></g></g><g id="manej"><path class="st4" d="M245 164c40.6 0 73.5 33.3 73.5 74.5S285.6 313 245 313s-73.5-33.3-73.5-74.5S204.4 164 245 164m0-5c-43.3 0-78.5 35.7-78.5 79.5S201.7 318 245 318s78.5-35.7 78.5-79.5S288.3 159 245 159z" id="manej-ellipse"/><text id="manej-text" transform="translate(204.283 245.806)" class="st4 st5 st6">манеж</text></g><g id="num5-8"><text id="num-8" transform="translate(300 410.63)" class="st1 st5 st7">8</text><text id="num-7" transform="translate(398 315.5)" class="st1 st5 st7">7</text><text id="num-6" transform="translate(391.5 189)" class="st1 st5 st7">6</text><text id="num-5" transform="translate(297.5 95.5)" class="st1 st5 st7">5</text></g><g id="num1-4"><text id="num-4" transform="translate(168 95.5)" class="st3 st5 st7">4</text><text id="num-3" transform="translate(77 189)" class="st3 st5 st7">3</text><text id="num-2" transform="translate(70 315.5)" class="st3 st5 st7">2</text><text id="num-1" transform="translate(168 410.63)" class="st3 st5 st7">1</text></g></svg>