<svg xmlns="http://www.w3.org/2000/svg" xmlns:xlink="http://www.w3.org/1999/xlink" viewBox="0 0 220 60.9"><defs><path id="a" d="M158.7 0c1.9 14.8 16 26.3 33 26.3H220V16.2C217.3 6.9 208 0 196.8 0h-38.1z"/></defs><clipPath id="b"><use xlink:href="#a" overflow="visible"/></clipPath><linearGradient id="c" gradientUnits="userSpaceOnUse" x1="-180.489" y1="453.615" x2="-178.542" y2="453.615" gradientTransform="matrix(31.8691 0 0 -31.8691 5910.731 14469.473)"><stop offset="0" stop-color="#18a6df"/><stop offset=".201" stop-color="#16a0db"/><stop offset=".534" stop-color="#1291d0"/><stop offset=".954" stop-color="#0f7ac0"/><stop offset="1" stop-color="#0e78be"/></linearGradient><path clip-path="url(#b)" fill="url(#c)" d="M158.7 0H220v26.3h-61.3z"/><path fill="#3FA548" d="M124.8 6.5l-14.3 31.1h-1.2V0H90.1v60.9h17.8c4.4 0 8.3-2.5 10.1-6.5l13.7-29.9h1.1v36.4H152V0h-17c-4.4 0-8.3 2.5-10.2 6.5M46.9 9l-5.3 27.2h-1.2L34.5 8.8C33.4 3.7 28.9 0 23.6 0H0v60.9h18.8V15.1H20l11.4 45.8H49l11.4-45.8h1.2v45.8h19.6V0H57.9c-5.4 0-10 3.8-11 9m113.9 20v31.9H180V43.1h16.8c10.3 0 19.1-5.8 22.4-14h-58.4z"/><defs><path id="d" d="M158.7 0c1.9 14.8 16 26.3 33 26.3H220V16.2C217.3 6.9 208 0 196.8 0h-38.1z"/></defs><clipPath id="e"><use xlink:href="#d" overflow="visible"/></clipPath><linearGradient id="f" gradientUnits="userSpaceOnUse" x1="-180.489" y1="453.615" x2="-178.542" y2="453.615" gradientTransform="matrix(31.8691 0 0 -31.8691 5910.731 14469.473)"><stop offset="0" stop-color="#18a6df"/><stop offset=".201" stop-color="#16a0db"/><stop offset=".534" stop-color="#1291d0"/><stop offset=".954" stop-color="#0f7ac0"/><stop offset="1" stop-color="#0e78be"/></linearGradient><path clip-path="url(#e)" fill="url(#f)" d="M158.7 0H220v26.3h-61.3z"/><path fill="#3FA548" d="M124.8 6.5l-14.3 31.1h-1.2V0H90.1v60.9h17.8c4.4 0 8.3-2.5 10.1-6.5l13.7-29.9h1.1v36.4H152V0h-17c-4.4 0-8.3 2.5-10.2 6.5M46.9 9l-5.3 27.2h-1.2L34.5 8.8C33.4 3.7 28.9 0 23.6 0H0v60.9h18.8V15.1H20l11.4 45.8H49l11.4-45.8h1.2v45.8h19.6V0H57.9c-5.4 0-10 3.8-11 9m113.9 20v31.9H180V43.1h16.8c10.3 0 19.1-5.8 22.4-14h-58.4z"/></svg>