<svg width="90" height="84" viewBox="0 0 90 84" xmlns="http://www.w3.org/2000/svg" xmlns:xlink="http://www.w3.org/1999/xlink"><svg id="larrow" viewBox="-5 -5 45 41.9" width="45" height="41.9"><style>.ast0{fill:#fff}</style><path class="ast0" d="M14.7 31.3c.7.7 1.8.7 2.5 0s.7-1.8 0-2.4L5.9 17.7h27.3c1 0 1.7-.8 1.7-1.7 0-1-.8-1.8-1.7-1.8H5.9L17.2 3c.6-.7.7-1.8 0-2.5s-1.8-.7-2.5 0L.5 14.7c-.3.4-.5.8-.5 1.2 0 .5.2.9.5 1.2l14.2 14.2z"/></svg><svg id="rarrow" viewBox="-5 -5 45 41.9" width="45" height="41.9" x="45" y="42"><style>.bst0{fill:#fff}</style><path class="bst0" d="M20.3.5c-.7-.7-1.8-.7-2.5 0s-.7 1.8 0 2.4L29 14.1H1.7c-1 0-1.7.8-1.7 1.7 0 1 .8 1.8 1.7 1.8H29L17.8 28.9c-.6.7-.7 1.8 0 2.5s1.8.7 2.5 0l14.2-14.2c.3-.3.5-.8.5-1.2 0-.5-.2-.9-.5-1.2L20.3.5z"/></svg></svg>