<svg width="489" height="509" viewBox="0 0 489 509" xmlns="http://www.w3.org/2000/svg" xmlns:xlink="http://www.w3.org/1999/xlink"><svg width="99" height="71" viewBox="-5 -5 99 71" id="cards_green"><path fill="#3CA436" d="M35.3 13.9H11.1v18.5h24.2V13.9zm-5.7 12.9H16.7v-7.2h12.9v7.2zm4 14.5H76v5.6H33.6z"/><path fill="#3CA436" d="M78.7 0H10.3C4.7 0 0 4.7 0 10.3v40.4C0 56.3 4.7 61 10.4 61h68.4c5.1 0 9.5-3.8 10.2-8.9v-43C88.4 4 83.9 0 78.7 0zm4.7 49.8v.7c0 2.5-2.2 4.6-4.7 4.6H10.4c-2.5 0-4.7-2.2-4.7-4.6V10.3c0-2.5 2.2-4.6 4.7-4.6h68.4c2.5 0 4.7 2.2 4.7 4.6v39.5z"/></svg><svg id="larrow" viewBox="-5 -5 45 41.9" width="45" height="41.9" x="99" y="71"><style>.bst0{fill:#fff}</style><path class="bst0" d="M14.7 31.3c.7.7 1.8.7 2.5 0s.7-1.8 0-2.4L5.9 17.7h27.3c1 0 1.7-.8 1.7-1.7 0-1-.8-1.8-1.7-1.8H5.9L17.2 3c.6-.7.7-1.8 0-2.5s-1.8-.7-2.5 0L.5 14.7c-.3.4-.5.8-.5 1.2 0 .5.2.9.5 1.2l14.2 14.2z"/></svg><svg id="rarrow" viewBox="-5 -5 45 41.9" width="45" height="41.9" x="144" y="113"><style>.cst0{fill:#fff}</style><path class="cst0" d="M20.3.5c-.7-.7-1.8-.7-2.5 0s-.7 1.8 0 2.4L29 14.1H1.7c-1 0-1.7.8-1.7 1.7 0 1 .8 1.8 1.7 1.8H29L17.8 28.9c-.6.7-.7 1.8 0 2.5s1.8.7 2.5 0l14.2-14.2c.3-.3.5-.8.5-1.2 0-.5-.2-.9-.5-1.2L20.3.5z"/></svg><svg width="45" height="58" viewBox="-5 -5 45 58" id="transport_type_1" x="189" y="155"><path fill="#007AC3" d="M6.8 33.9h3.9v2.9H6.8zm19.3 0H30v2.9h-3.9z"/><path fill="#007AC3" d="M5.7 42.2h2.9v2.9H5.7v-2.9zm22.5 0h2.9v2.9h-2.9v-2.9zM4.7 29.3H32v10H4.7v-10zm0-12.8h12.2v10H4.7v-10zm15.2 0h12.2v10H19.9v-10zM1.8 13.6v28.7h1V48h8.8v-5.8h13.6V48H34v-5.8h1V13.6H1.8z"/><path fill="#007AC3" d="M0 0l15.6 15.5h4.1L4 0zm8.4 0l15.7 15.5h4L12.4 0z"/></svg><svg width="45" height="58" viewBox="-5 -5 45 58" id="transport_type_1_selected" x="234" y="213"><path fill="#3CA436" d="M6.8 33.9h3.9v2.9H6.8zm19.3 0H30v2.9h-3.9z"/><path fill="#3CA436" d="M5.7 42.2h2.9v2.9H5.7v-2.9zm22.5 0h2.9v2.9h-2.9v-2.9zM4.7 29.3H32v10H4.7v-10zm0-12.8h12.2v10H4.7v-10zm15.2 0h12.2v10H19.9v-10zM1.8 13.6v28.7h1V48h8.8v-5.8h13.6V48H34v-5.8h1V13.6H1.8z"/><path fill="#3CA436" d="M0 0l15.6 15.5h4.1L4 0zm8.4 0l15.7 15.5h4L12.4 0z"/></svg><svg width="47" height="50" viewBox="-5 -5 47 50" id="transport_type_2" x="279" y="271"><defs><path id="fa" d="M0 0h37v40H0z"/></defs><clipPath id="fb"><use xlink:href="#fa" overflow="visible"/></clipPath><path clip-path="url(#fb)" fill="#007AC3" d="M26.5 0h-16C4.7 0 0 4.7 0 10.5V40h2.5V10.5c0-4.4 3.6-8 8-8h16c4.4 0 8 3.6 8 8V40H37V10.5C37 4.7 32.3 0 26.5 0"/><path clip-path="url(#fb)" fill="#007AC3" d="M30.5 30.7L28.6 6.9H8.4L6.5 30.7h2.9l-6.3 6.8V40h30.7v-2.5l-6.3-6.8h3zM26.3 9.4l.7 8.9H10l.7-8.9h15.6zM9.8 20.8h17.4l.6 7.4H9.2l.6-7.4zM6.5 37.5l2-2.2h20l2 2.2h-24zm19.7-4.6H10.8l2-2.2h11.4l2 2.2z"/><path clip-path="url(#fb)" fill="#007AC3" d="M11.5 23.2h3.3v2.5h-3.3zm10.7 0h3.3v2.5h-3.3z"/></svg><svg width="47" height="50" viewBox="-5 -5 47 50" id="transport_type_2_selected" x="326" y="321"><defs><path id="ga" d="M0 0h37v40H0z"/></defs><clipPath id="gb"><use xlink:href="#ga" overflow="visible"/></clipPath><path clip-path="url(#gb)" fill="#3CA436" d="M26.5 0h-16C4.7 0 0 4.7 0 10.5V40h2.5V10.5c0-4.4 3.6-8 8-8h16c4.4 0 8 3.6 8 8V40H37V10.5C37 4.7 32.3 0 26.5 0"/><path clip-path="url(#gb)" fill="#3CA436" d="M30.5 30.7L28.6 6.9H8.4L6.5 30.7h2.9l-6.3 6.8V40h30.7v-2.5l-6.3-6.8h3zM26.3 9.4l.7 8.9H10l.7-8.9h15.6zM9.8 20.8h17.4l.6 7.4H9.2l.6-7.4zM6.5 37.5l2-2.2h20l2 2.2h-24zm19.7-4.6H10.8l2-2.2h11.4l2 2.2z"/><path clip-path="url(#gb)" fill="#3CA436" d="M11.5 23.2h3.3v2.5h-3.3zm10.7 0h3.3v2.5h-3.3z"/></svg><svg width="45" height="55" viewBox="-5 -5 45 55" id="transport_type_3" x="373" y="371"><path fill="#007AC3" d="M9.1 25.9h3.8v2.8H9.1zm13 0h3.8v2.8h-3.8z"/><path fill="#007AC3" d="M6.1 39.7h22.8l2.3 2.5H3.8l2.3-2.5zm4.9-5.3h13l2.3 2.5H8.7l2.3-2.5zM6.8 23.1h21.4v8.5H6.8v-8.5zm0-13h9.3v10.1H6.8V10.1zm12.1 0h9.3v10.1h-9.3V10.1zm-5.5-7.3h8.2v4.4h-8.2V2.8zM6.3 0v2.8h4.2v4.4H4v27.1h3.2L0 42.1V45h35v-2.9l-7.1-7.7H31V7.3h-6.6V2.8h4.2V0H6.3z"/></svg><svg width="45" height="55" viewBox="-5 -5 45 55" id="transport_type_3_selected" x="418" y="426"><path fill="#3CA436" d="M9.1 25.9h3.8v2.8H9.1zm13 0h3.8v2.8h-3.8z"/><path fill="#3CA436" d="M6.1 39.7h22.8l2.3 2.5H3.8l2.3-2.5zm4.9-5.3h13l2.3 2.5H8.7l2.3-2.5zM6.8 23.1h21.4v8.5H6.8v-8.5zm0-13h9.3v10.1H6.8V10.1zm12.1 0h9.3v10.1h-9.3V10.1zm-5.5-7.3h8.2v4.4h-8.2V2.8zM6.3 0v2.8h4.2v4.4H4v27.1h3.2L0 42.1V45h35v-2.9l-7.1-7.7H31V7.3h-6.6V2.8h4.2V0H6.3z"/></svg><svg width="26" height="28" viewBox="-5 -5 26 28" id="trash" x="463" y="481"><path fill="#FFF" d="M11.7 18H4.3c-1.5 0-2.7-1.2-2.7-2.7V7.1c0-.3.2-.5.5-.5s.5.2.5.5v8.3c0 1 .8 1.8 1.8 1.8h7.4c1 0 1.8-.8 1.8-1.8V7.1c0-.3.2-.5.5-.5s.5.2.5.5v8.3c-.2 1.4-1.5 2.6-2.9 2.6zm2.4-15.8h-3.5C10.4 1 9.3 0 8 0S5.6 1 5.3 2.2H1.9C.8 2.2 0 3.1 0 4.1s.8 1.8 1.9 1.8h12.3c1 0 1.9-.8 1.9-1.9s-1-1.8-2-1.8zM8 .9c.8 0 1.5.5 1.7 1.3H6.2C6.5 1.5 7.2.9 8 .9zM14.1 5H1.9c-.5 0-1-.4-1-1 0-.5.4-1 1-1h12.3c.5 0 1 .4 1 1-.2.6-.6 1-1.1 1z"/><path fill="#FFF" d="M4.8 15.8c-.3 0-.5-.2-.5-.5V7.7c0-.3.2-.5.5-.5s.5.2.5.5v7.6c-.1.2-.3.5-.5.5zm6.4 0c-.3 0-.5-.2-.5-.5V7.7c0-.3.2-.5.5-.5s.5.2.5.5v7.6c-.1.2-.3.5-.5.5zm-3.2 0c-.3 0-.5-.2-.5-.5V7.7c0-.3.2-.5.5-.5s.5.2.5.5v7.6c-.1.2-.3.5-.5.5z"/></svg></svg>