<svg width="285" height="251" viewBox="0 0 285 251" xmlns="http://www.w3.org/2000/svg" xmlns:xlink="http://www.w3.org/1999/xlink"><svg width="99" height="71" viewBox="-5 -5 99 71" id="cards_green"><path fill="#3CA436" d="M35.3 13.9H11.1v18.5h24.2V13.9zm-5.7 12.9H16.7v-7.2h12.9v7.2zm4 14.5H76v5.6H33.6z"/><path fill="#3CA436" d="M78.7 0H10.3C4.7 0 0 4.7 0 10.3v40.4C0 56.3 4.7 61 10.4 61h68.4c5.1 0 9.5-3.8 10.2-8.9v-43C88.4 4 83.9 0 78.7 0zm4.7 49.8v.7c0 2.5-2.2 4.6-4.7 4.6H10.4c-2.5 0-4.7-2.2-4.7-4.6V10.3c0-2.5 2.2-4.6 4.7-4.6h68.4c2.5 0 4.7 2.2 4.7 4.6v39.5z"/></svg><svg id="larrow" viewBox="-5 -5 45 41.9" width="45" height="41.9" x="99" y="71"><style>.bst0{fill:#fff}</style><path class="bst0" d="M14.7 31.3c.7.7 1.8.7 2.5 0s.7-1.8 0-2.4L5.9 17.7h27.3c1 0 1.7-.8 1.7-1.7 0-1-.8-1.8-1.7-1.8H5.9L17.2 3c.6-.7.7-1.8 0-2.5s-1.8-.7-2.5 0L.5 14.7c-.3.4-.5.8-.5 1.2 0 .5.2.9.5 1.2l14.2 14.2z"/></svg><svg id="rarrow" viewBox="-5 -5 45 41.9" width="45" height="41.9" x="144" y="113"><style>.cst0{fill:#fff}</style><path class="cst0" d="M20.3.5c-.7-.7-1.8-.7-2.5 0s-.7 1.8 0 2.4L29 14.1H1.7c-1 0-1.7.8-1.7 1.7 0 1 .8 1.8 1.7 1.8H29L17.8 28.9c-.6.7-.7 1.8 0 2.5s1.8.7 2.5 0l14.2-14.2c.3-.3.5-.8.5-1.2 0-.5-.2-.9-.5-1.2L20.3.5z"/></svg><svg width="32" height="32" viewBox="-5 -5 32 32" id="transport_type_1" x="189" y="155"><path fill="#007AC3" d="M7.1 14.4c-.9 0-1.5.7-1.5 1.5 0 .9.7 1.5 1.5 1.5s1.5-.7 1.5-1.5-.6-1.5-1.5-1.5zm0 2.1c-.3 0-.5-.2-.5-.5s.2-.5.5-.5.5.2.5.5c0 .2-.2.5-.5.5zm8.2-2.1c-.9 0-1.5.7-1.5 1.5 0 .9.7 1.5 1.5 1.5.9 0 1.5-.7 1.5-1.5s-.7-1.5-1.5-1.5zm0 2.1c-.3 0-.5-.2-.5-.5s.2-.5.5-.5.5.2.5.5c0 .2-.3.5-.5.5zm.4-13.3l-1.1 6.7H7.7l-1-6.7h-1l1.4 9.3c0 .2.3.4.5.4h7.1c.2 0 .5-.2.5-.4l1.5-9.3h-1zm-1.4 8.7H8l-.2-1h6.6l-.1 1z"/><path fill="#3CA436" d="M16.8 2.2H5.5c-1.1 0-2 .9-2 2.1v13.2c0 1.1.9 2 2 2h.7l-1.1 1.8c-.1.2-.1.6.2.7h.3c.2 0 .3-.1.4-.2l1.3-2.3H15l1.3 2.3c.1.1.3.2.4.2.1 0 .2 0 .3-.1.2-.1.3-.4.2-.7l-1.1-1.8h.6c1.1 0 2.1-.9 2.1-2V4.2c0-1.1-.9-2-2-2zm1 15.3c0 .6-.5 1-1.1 1H5.5c-.5 0-1-.5-1-1V4.2c0-.6.5-1.1 1-1.1h11.2c.6 0 1.1.5 1.1 1.1v13.3zM13.9 1c.3 0 .5-.2.5-.5s-.2-.5-.5-.5H8.7c-.3 0-.5.2-.5.5s.2.5.5.5h5.2z"/></svg><svg width="32" height="32" viewBox="-5 -5 32 32" id="transport_type_2" x="221" y="187"><path fill="#007AC3" d="M7.1 14.4c-.9 0-1.5.7-1.5 1.5 0 .9.7 1.5 1.5 1.5s1.5-.7 1.5-1.5-.6-1.5-1.5-1.5zm0 2.1c-.3 0-.5-.2-.5-.5s.2-.5.5-.5.5.2.5.5c0 .2-.2.5-.5.5zm8.2-2.1c-.9 0-1.5.7-1.5 1.5 0 .9.7 1.5 1.5 1.5.9 0 1.5-.7 1.5-1.5s-.7-1.5-1.5-1.5zm0 2.1c-.3 0-.5-.2-.5-.5s.2-.5.5-.5.5.2.5.5c0 .2-.3.5-.5.5zm.4-13.3l-1.1 6.7H7.7l-1-6.7h-1l1.4 9.3c0 .2.3.4.5.4h7.1c.2 0 .5-.2.5-.4l1.5-9.3h-1zm-1.4 8.7H8l-.2-1h6.6l-.1 1z"/><path fill="#3CA436" d="M16.8 2.2H5.5c-1.1 0-2 .9-2 2.1v13.2c0 1.1.9 2 2 2h.7l-1.1 1.8c-.1.2-.1.6.2.7h.3c.2 0 .3-.1.4-.2l1.3-2.3H15l1.3 2.3c.1.1.3.2.4.2.1 0 .2 0 .3-.1.2-.1.3-.4.2-.7l-1.1-1.8h.6c1.1 0 2.1-.9 2.1-2V4.2c0-1.1-.9-2-2-2zm1 15.3c0 .6-.5 1-1.1 1H5.5c-.5 0-1-.5-1-1V4.2c0-.6.5-1.1 1-1.1h11.2c.6 0 1.1.5 1.1 1.1v13.3zM13.9 1c.3 0 .5-.2.5-.5s-.2-.5-.5-.5H8.7c-.3 0-.5.2-.5.5s.2.5.5.5h5.2z"/></svg><svg width="32" height="32" viewBox="-5 -5 32 32" id="transport_type_3" x="253" y="219"><path fill="#007AC3" d="M7.1 14.4c-.9 0-1.5.7-1.5 1.5 0 .9.7 1.5 1.5 1.5s1.5-.7 1.5-1.5-.6-1.5-1.5-1.5zm0 2.1c-.3 0-.5-.2-.5-.5s.2-.5.5-.5.5.2.5.5c0 .2-.2.5-.5.5zm8.2-2.1c-.9 0-1.5.7-1.5 1.5 0 .9.7 1.5 1.5 1.5.9 0 1.5-.7 1.5-1.5s-.7-1.5-1.5-1.5zm0 2.1c-.3 0-.5-.2-.5-.5s.2-.5.5-.5.5.2.5.5c0 .2-.3.5-.5.5zm.4-13.3l-1.1 6.7H7.7l-1-6.7h-1l1.4 9.3c0 .2.3.4.5.4h7.1c.2 0 .5-.2.5-.4l1.5-9.3h-1zm-1.4 8.7H8l-.2-1h6.6l-.1 1z"/><path fill="#3CA436" d="M16.8 2.2H5.5c-1.1 0-2 .9-2 2.1v13.2c0 1.1.9 2 2 2h.7l-1.1 1.8c-.1.2-.1.6.2.7h.3c.2 0 .3-.1.4-.2l1.3-2.3H15l1.3 2.3c.1.1.3.2.4.2.1 0 .2 0 .3-.1.2-.1.3-.4.2-.7l-1.1-1.8h.6c1.1 0 2.1-.9 2.1-2V4.2c0-1.1-.9-2-2-2zm1 15.3c0 .6-.5 1-1.1 1H5.5c-.5 0-1-.5-1-1V4.2c0-.6.5-1.1 1-1.1h11.2c.6 0 1.1.5 1.1 1.1v13.3zM13.9 1c.3 0 .5-.2.5-.5s-.2-.5-.5-.5H8.7c-.3 0-.5.2-.5.5s.2.5.5.5h5.2z"/></svg></svg>