<svg xmlns="http://www.w3.org/2000/svg" width="640" height="460" viewBox="0 0 640 460"><path fill="#EEE" d="M223.5 0h193.4c5.4.4 10.8.9 16.2 1.3 25.1 2.1 50.4 2.8 75.3 6.5 35.9 5.3 66.2 21.7 87.5 51.9 20.1 28.5 32.6 60.2 38 94.6 2.2 14.3 4.1 28.7 6.1 43.1v65.3c-.5 2.6-1.2 5.3-1.4 7.9-3.2 36.9-11.1 72.5-28.1 105.9-19.7 38.8-49.6 64.8-92.6 72.9-25.7 4.9-51.9 8-78 8.7-60.4 1.7-120.9 2.1-181.3 1.6-41.8-.4-83.8.1-125.2-7.1-33.2-5.8-62.4-19.2-83.9-46-20.3-25.3-33-54.4-40-85.9-9.7-43.3-11.4-87.1-7.6-131.2C5 152.7 12.6 117.1 29.7 83.7 48.4 47.2 76 21.8 116 11.1c25.8-6.9 52.2-8.5 78.7-9.5 9.6-.4 19.2-1.1 28.8-1.6z"/><path fill="#819E67" stroke="#231F20" stroke-width=".216" stroke-miterlimit="22.926" d="M168.3 140.4h303.4v172.7H168.3z"/><path d="M391 353.2l3 42.2c-23.3 1.2-47.1 1.9-70.6 1.9V355c17.4 0 42-.6 67.6-1.8zm69.5-4.5l5.8 41.1c-21.8 2.3-44.7 4.1-68.1 5.4l-3-42.1c22.6-1.1 45.8-2.6 65.3-4.4zm-208.7 4.5l-3 42.2c23.2 1.2 46.9 1.9 70.3 1.9V355c-17.4 0-41.8-.6-67.3-1.8zm-69.5-4.5l-5.8 41.1c21.7 2.3 44.7 4.1 68.1 5.4l2.9-42.1c-22.5-1.1-45.7-2.6-65.2-4.4zm-10 40.7l5.8-41c-10.3-1-18.8-2.9-26-4.1l-22.2 22.3c-1.6-.9-3.6-2-5.1-3l-6.4 6.9c4.3 2.8 9.9 5.4 15.5 7l-2.4 4.7c8.8 2.7 26.7 5.6 40.8 7.2zm266.4 52v.1c-12.2.9-24.6 1.6-37.1 2.2l-3.2-44.6c23.5-1.3 46.5-3.1 68.4-5.4l6.3 44.8c-10.6 1-22.7 2-34.4 2.9zm-41.3 2.5c-22.4 1-44.8 1.6-67.2 1.7v-7h-6.8l-.1-37.3c23.6 0 47.5-.7 70.9-1.9l3.2 44.5zm-148.8-44.5c23.3 1.2 47.1 1.9 70.6 1.9v37.3h-6.8v7c-22.3-.1-44.6-.7-66.9-1.7l3.1-44.5zm-7.4 44.3c-12.3-.6-24.4-1.3-36.4-2.1v-.2c-11.9-.9-24.3-1.9-35.2-2.9l6.3-44.8c21.9 2.3 44.9 4.1 68.4 5.4l-3.1 44.6zM108 426c19.9 6.5 35.6 10.1 57.5 12.2l6.3-44.8c-15.3-1.6-28-3.2-38-6-6.6-1.9-14.5-4.9-21.7-9.9l-5.8 6.3c5.4 3.8 12.8 7.5 19.2 10l-2.8 5.9c-3.9-1.2-8-3.1-11.2-4.3l-8.7 9.5L108 426zm362.7-36.6l-5.8-41c10.3-1 18.8-2.9 26-4.1l22.2 22.3c1.6-.9 3.6-2 5.1-3l6.4 6.9c-4.3 2.8-9.9 5.4-15.5 7l2.4 4.7c-8.7 2.7-26.7 5.6-40.8 7.2zM535 426c-19.9 6.5-35.6 10.1-57.5 12.2l-6.3-44.8c15.3-1.6 28-3.2 38-6 6.6-1.9 14.5-4.9 21.7-9.9l5.8 6.3c-5.4 3.8-12.8 7.5-19.2 10l2.8 5.9c3.9-1.2 8-3.1 11.2-4.3l8.7 9.5L535 426z" fill-rule="evenodd" clip-rule="evenodd" fill="#67BF7E"/><path d="M574.7 264.3l46.7 3.3c-2.1 23.4-6 45.8-11.8 66.7l-46-13.2c5.5-17.5 9.2-36.5 11.1-56.8zm-52.5-3.7l48.1 3.4c-1.9 20-5.5 38.7-11 55.9l-45.8-13.1c4.4-14 7.2-29.6 8.7-46.2zm52.5-63.6l47-3.3c.7 9 1.1 18.1 1.3 27.3v15c-.1 9.2-.6 18.4-1.3 27.3L575 260c.6-8 1-16.2 1.2-24.5v-12c-.1-9-.6-17.8-1.5-26.5zm-52.1 3.6l47.7-3.3c.8 8.6 1.4 17.4 1.5 26.4v11.6c-.1 8.3-.5 16.4-1.2 24.3l-48.1-3.4c.7-9 1-18.4 1-27.9.1-9.3-.2-18.6-.9-27.7zm39.6-64.2l47.4-13.6c5.8 20.9 9.8 43.3 11.8 66.7l-47.1 3.3c-2.2-20-6.3-38.9-12.1-56.4zm-48.7 13.9l44.4-12.7c5.8 17.2 9.9 35.8 12.1 55.5l-47.7 3.3c-1.6-16.6-4.4-32.1-8.8-46.1zm49-18.7l46.1-13.2c-7.8-25.5-11.4-31.3-21.7-47.4l-26.2-.7-8.2 9c1.9 2.3 5.3 6.9 7 9.6l-5.4 3.5c-3.7-5.4-8.2-11-13.9-16.7l-5.8 6.3c3.2 3.2 6.6 6.9 9.7 11.1 2 2.7 3.7 5.4 5.3 8.4 5.1 9.4 9.4 19.5 13.1 30.1zM512.4 146l45.7-13.1c-4-11.6-9.1-23.3-15-33.4l-4.7 2.8c-2.5-3.8-6.8-10-10.4-13.4l-6.2 6.8c1.1 1.4 2.3 3.1 3.3 4.6l-20.6 24.4c1.6 3.4 4.4 11.2 7.9 21.3zm50.1 179.1l46.1 13.2c-7.8 25.5-11.4 31.3-21.7 47.4l-26.2.7-8.2-9c1.9-2.3 5.3-6.9 7-9.6l-5.4-3.5c-3.7 5.4-8.2 11-13.9 16.7l-5.8-6.3c3.2-3.2 6.6-6.9 9.7-11.1 2-2.7 3.7-5.4 5.3-8.4 5.1-9.3 9.4-19.4 13.1-30.1zm-50.1-14.3l45.7 13.1c-4 11.6-9.1 23.3-15 33.4l-4.7-2.8c-2.5 3.8-6.8 10-10.4 13.4l-6.2-6.8c1.1-1.4 2.3-3.1 3.3-4.6L504.4 332c1.7-3.4 4.5-11.1 8-21.2z" fill-rule="evenodd" clip-rule="evenodd" fill="#DF564B"/><path d="M394.4 57.4l2.2-31.3c-20.8-.9-39.3-1.5-60.5-1.6-.1.5-.3 4.1-.4 6.1h-12.2v24.9c23.7 0 47.5.7 70.9 1.9zm-3.2 46.1l3-42.2c-23.3-1.2-47.1-1.9-70.6-1.9v42.3c17.4.1 42 .7 67.6 1.8zM467 63l6.3-44.8c-14.9-1.4-32.8-2.9-48.3-3.8l-24.2 11.8-2.2 31.4c23.5 1.3 46.6 3.1 68.4 5.4zm-6.3 45l5.8-41.1c-21.8-2.3-44.7-4.1-68.1-5.4l-3 42.1c22.7 1.1 45.8 2.6 65.3 4.4zM248.4 57.4l-2.2-31.3c20.8-.9 39.3-1.5 60.5-1.6.1.5.3 4.1.4 6.1h12.1v24.9c-23.6 0-47.4.7-70.8 1.9zm3.2 46.1l-3-42.2c23.3-1.2 47-1.9 70.5-1.9v42.3c-17.4.1-41.9.7-67.5 1.8zM175.8 63l-6.3-44.8c14.9-1.4 32.8-2.9 48.3-3.8L242 26.2l2.2 31.4c-23.5 1.3-46.5 3.1-68.4 5.4zm6.3 45l-5.8-41.1c21.8-2.3 44.7-4.1 68.1-5.4l3 42.1c-22.6 1.1-45.8 2.6-65.3 4.4zm-9.8-40.6l5.8 41c-10.3 1-18.8 2.9-26 4.1l-22.2-22.3c-1.6.9-3.6 2-5.1 3l-6.4-6.9c4.3-2.8 9.9-5.4 15.5-7l-2.4-4.7c8.8-2.7 26.7-5.7 40.8-7.2zM108 30.8c19.9-6.5 35.6-10.1 57.5-12.2l6.3 44.8c-15.3 1.6-28 3.2-38 6-6.6 1.9-14.5 4.9-21.7 9.9l-5.8-6.3c5.4-3.8 12.8-7.5 19.2-10l-2.8-5.9c-3.9 1.2-8 3.1-11.2 4.3l-8.7-9.5 5.2-21.1zm362.7 36.6l-5.8 41c10.3 1 18.8 2.9 26 4.1l22.2-22.3c1.6.9 3.6 2 5.1 3l6.4-6.9c-4.3-2.8-9.9-5.4-15.5-7l2.4-4.7c-8.7-2.7-26.7-5.7-40.8-7.2zM535 30.8c-19.9-6.5-35.6-10.1-57.5-12.2l-6.3 44.8c15.3 1.6 28 3.2 38 6 6.6 1.9 14.5 4.9 21.7 9.9l5.8-6.3c-5.4-3.8-12.8-7.5-19.2-10l2.8-5.9c3.9 1.2 8 3.1 11.2 4.3l8.7-9.5-5.2-21.1z" fill-rule="evenodd" clip-rule="evenodd" fill="#30ACC1"/><path d="M80.5 325.1l-46.1 13.2c7.8 25.5 11.4 31.3 21.7 47.4l26.2.7 8.2-9c-1.9-2.3-5.3-6.9-7-9.6l5.4-3.5c3.7 5.4 8.2 11 13.9 16.7l5.8-6.3c-3.2-3.2-6.6-6.9-9.7-11.1-2-2.7-3.7-5.4-5.3-8.4-5.1-9.3-9.4-19.4-13.1-30.1zm50.1-14.3l-45.7 13.1c4 11.6 9.1 23.3 15 33.4l4.7-2.8c2.5 3.8 6.8 10 10.4 13.4l6.2-6.8c-1.1-1.4-2.3-3.1-3.3-4.6l20.6-24.4c-1.5-3.5-4.3-11.2-7.9-21.3zm-62.4-46.5l-46.7 3.3c2.1 23.4 6 45.8 11.8 66.7l46-13.2c-5.6-17.5-9.2-36.5-11.1-56.8zm52.4-3.7L72.5 264c1.9 20 5.5 38.7 11 55.9l45.8-13.1c-4.3-14-7.2-29.6-8.7-46.2zM68.1 197l-47-3.3c-.7 9-1.1 18.1-1.3 27.3 0 1.2-.1 2.5-.1 3.7v7.6c0 1.2 0 2.5.1 3.7.1 9.2.6 18.4 1.3 27.3l46.7-3.3c-.6-8-1-16.2-1.2-24.5v-12c.2-9 .7-17.8 1.5-26.5zm52.1 3.6l-47.7-3.3c-.8 8.6-1.3 17.4-1.5 26.4v11.6c.2 8.3.5 16.4 1.2 24.3l48.1-3.4c-.7-9-1-18.4-1-27.9-.1-9.3.2-18.6.9-27.7zm-39.6-64.2l-47.4-13.6c-5.8 20.9-9.8 43.3-11.8 66.7l47.1 3.3c2.2-20 6.3-38.9 12.1-56.4zm48.7 13.9L85 137.6c-5.8 17.2-9.8 35.8-12 55.5l47.7 3.3c1.4-16.6 4.2-32.1 8.6-46.1zm-48.8-18.7l-46.1-13.2C42.2 92.9 45.8 87.1 56.1 71l26.2-.7 8.2 9c-1.9 2.3-5.3 6.9-7 9.6l5.4 3.5c3.7-5.4 8.2-11 13.9-16.7l5.8 6.3c-3.2 3.2-6.6 6.9-9.7 11.1-2 2.7-3.7 5.4-5.3 8.4-5.1 9.4-9.4 19.5-13.1 30.1zm50.1 14.4l-45.7-13.1c4-11.6 9.1-23.3 15-33.4l4.7 2.8c2.5-3.8 6.8-10 10.4-13.4l6.2 6.8c-1.1 1.4-2.3 3.1-3.3 4.6l20.6 24.4c-1.5 3.4-4.3 11.2-7.9 21.3z" fill-rule="evenodd" clip-rule="evenodd" fill="#FAAC3A"/><path fill="#FFF" d="M473.3 138.8H166.7v175.9h306.7V138.8zM170 207h13v39.2h-13V207zm0-3.1v-26.2h42.4v97.8H170v-26h16.1v-45.6H170zm300.1 107.6H170v-32.7h45.5v-32.6l1.4-.2c5.9-.8 11-4.2 13.9-9.3 3.5-6.2 3.5-13.8 0-19.6-2.9-5.2-8.1-8.8-14-9.7l-1.4-.2v-32.7H170v-32.4h148.4v48.7l-1.5.1c-18.4 1.6-32.8 17.3-32.8 35.9 0 18.4 14.4 34.1 32.8 35.6l1.5.1V313h3.3v-50.5l1.5-.1c18.4-1.7 32.8-17.3 32.8-35.6 0-18.5-14.4-34.2-32.8-35.8l-1.5-.1v-48.7H470v32.4h-45.8v32.7l-1.4.2c-5.8.9-10.9 4.4-14 9.7-3.4 6.1-3.3 13.6.3 19.6 3 5 8 8.4 13.8 9.3l1.4.2v32.6h45.8v32.6zm-254.6-68.3v-32.7l2 .4c4.6 1 8.5 3.8 10.6 7.9 3 5.1 2.9 11.4-.1 16.3-2.2 3.9-6 6.7-10.6 7.7l-1.9.4zm102.8-49v65.1l-1.8-.2c-16.6-1.7-29.1-15.5-29.1-32.2 0-16.8 12.5-30.8 29.1-32.5l1.8-.2zm3.4 65.1v-65.1l1.8.2c16.6 1.8 29.1 15.8 29.1 32.5 0 16.6-12.5 30.4-29.1 32.2l-1.8.2zm102.6-48.8v32.6l-2-.5c-4.4-1-8.1-3.8-10.3-7.7-2.9-4.8-3-11-.3-16.2v-.1c2.3-4 6.2-6.8 10.6-7.7l2-.4zm45.8 35.7H457V207h13.1v39.2zm0-42.3h-16.4v45.6h16.4v26h-42.4v-97.8h42.4v26.2z"/></svg>