<svg xmlns="http://www.w3.org/2000/svg" width="154.529" height="200" viewBox="739.035 -309.171 154.529 200"><path fill="#B0B6BC" d="M889.581-309.171H743.019a3.984 3.984 0 0 0-3.984 3.984v172.95c0 2.2 1.784 3.984 3.984 3.984h4.542v15.098a3.986 3.986 0 0 0 6.628 2.982l20.386-18.078h83.451l20.386 18.078a3.983 3.983 0 0 0 6.628-2.982v-15.098h4.541c2.2 0 3.984-1.784 3.984-3.984v-172.95c0-2.2-1.784-3.984-3.984-3.984zM755.529-122.013v-6.239h7.036l-7.036 6.239zm121.542.001l-7.036-6.239h7.036v6.239zm8.526-14.208H747.004v-164.982h138.593v164.982z"/><path fill="#7C8287" d="M871.515-291.713H761.086a3.984 3.984 0 0 0-3.984 3.984v138.036a3.984 3.984 0 0 0 3.984 3.984h110.429c2.2 0 3.984-1.784 3.984-3.984v-138.036a3.984 3.984 0 0 0-3.984-3.984zm-3.984 138.035H765.07v-130.068h102.461v130.068z"/><path fill="#B0B6BC" d="M816.301-251.402c-17.355 0-31.474 14.119-31.474 31.474s14.119 31.474 31.474 31.474 31.474-14.119 31.474-31.474-14.12-31.474-31.474-31.474zm22.193 34.078a3.984 3.984 0 0 0-2.462 7.578l1.245.404a23.596 23.596 0 0 1-3.868 5.507l-.684-.942a3.984 3.984 0 1 0-6.446 4.684l.769 1.059a23.3 23.3 0 0 1-6.366 2.196v-1.177a3.984 3.984 0 0 0-7.968 0v1.32a23.287 23.287 0 0 1-6.44-1.978l.692-.952a3.985 3.985 0 0 0-6.447-4.683l-.767 1.056a23.614 23.614 0 0 1-4.055-5.374l1.118-.363a3.984 3.984 0 1 0-2.462-7.578l-1.252.407a23.634 23.634 0 0 1-.305-3.768c0-1.005.071-1.994.194-2.966l1.118.363a3.987 3.987 0 0 0 5.02-2.558 3.983 3.983 0 0 0-2.558-5.02l-1.245-.404a23.617 23.617 0 0 1 3.868-5.507l.684.942a3.98 3.98 0 0 0 5.566.882 3.984 3.984 0 0 0 .881-5.565l-.769-1.059a23.3 23.3 0 0 1 6.366-2.196v1.177a3.984 3.984 0 0 0 7.968 0v-1.32a23.277 23.277 0 0 1 6.44 1.978l-.692.952a3.985 3.985 0 0 0 6.447 4.683l.767-1.056a23.63 23.63 0 0 1 4.055 5.373l-1.117.363a3.984 3.984 0 1 0 2.461 7.579l1.252-.407c.199 1.227.306 2.484.306 3.767 0 1.005-.071 1.994-.194 2.966l-1.12-.363z"/><path fill="#7C8287" d="M816.301-234.27c-7.909 0-14.343 6.434-14.343 14.343s6.434 14.343 14.343 14.343 14.343-6.434 14.343-14.343-6.435-14.343-14.343-14.343zm0 20.717a6.382 6.382 0 0 1-6.375-6.375 6.382 6.382 0 0 1 6.375-6.375 6.382 6.382 0 0 1 6.375 6.375 6.384 6.384 0 0 1-6.375 6.375zm22.31 47.012h-3.984a3.984 3.984 0 0 0 0 7.968h3.984a3.984 3.984 0 0 0 0-7.968zm-18.326 0h-45.418a3.984 3.984 0 0 0 0 7.968h45.418a3.984 3.984 0 0 0 0-7.968z"/></svg>