<svg xmlns="http://www.w3.org/2000/svg" width="151.62" height="200" viewBox="2578.86 157.265 151.62 200"><path fill="#2884C6" d="M2719.845 157.265h-.014c-5.258 0-9.784 3.925-10.528 9.131l-15.49 108.43a10.126 10.126 0 0 0 7.587 11.284l5.193 1.298-2.792 55.842c-.184 3.687 1.115 7.191 3.66 9.866s5.979 4.149 9.671 4.149c7.36 0 13.348-5.988 13.348-13.348V167.9c-.001-5.865-4.771-10.635-10.635-10.635zM2724 343.916a6.876 6.876 0 0 1-6.868 6.868 6.81 6.81 0 0 1-4.977-2.134 6.802 6.802 0 0 1-1.883-5.077l2.925-58.501a3.24 3.24 0 0 0-2.45-3.305l-7.775-1.944a3.664 3.664 0 0 1-2.744-4.082l15.49-108.43a4.176 4.176 0 0 1 4.114-3.568h.014a4.16 4.16 0 0 1 4.156 4.156v176.017H2724z"/><path fill="#1EA64A" d="M2678.64 160.342a3.24 3.24 0 1 0-6.471.323l2.767 55.345h-10.115v-55.507a3.24 3.24 0 1 0-6.48 0v55.507h-10.115l2.767-55.345a3.24 3.24 0 1 0-6.471-.323l-3.26 65.195a10.2 10.2 0 0 0 4.508 8.953l3.915 2.609a3.651 3.651 0 0 1 1.633 3.164l-3.055 103.307a13.218 13.218 0 0 0 3.767 9.659c2.53 2.601 5.922 4.034 9.551 4.034s7.021-1.432 9.551-4.034a13.22 13.22 0 0 0 3.767-9.664l-3.054-103.302a3.651 3.651 0 0 1 1.633-3.164l3.914-2.61a10.2 10.2 0 0 0 4.508-8.953l-3.26-65.194zm-4.842 68.757l-3.915 2.609a10.092 10.092 0 0 0-4.516 8.746l3.054 103.296a6.786 6.786 0 0 1-1.935 4.961 6.791 6.791 0 0 1-4.906 2.072 6.791 6.791 0 0 1-4.906-2.072 6.781 6.781 0 0 1-1.935-4.955l3.054-103.302a10.092 10.092 0 0 0-4.516-8.746l-3.915-2.609a3.686 3.686 0 0 1-1.63-3.238l.168-3.37h27.357l.168 3.37a3.679 3.679 0 0 1-1.627 3.238z"/><path fill="#2884C6" d="M2606.29 157.265c-6.75 0-16.094 3.389-22.277 19.533-3.803 9.929-5.153 21.629-5.153 28.631 0 9.64 4.92 18.396 13.16 23.424 2.292 1.399 3.623 3.762 3.561 6.322l-2.644 108.407a13.252 13.252 0 0 0 3.794 9.655c2.535 2.597 5.929 4.028 9.559 4.028s7.025-1.431 9.559-4.028a13.25 13.25 0 0 0 3.794-9.655l-2.644-108.407c-.062-2.56 1.269-4.924 3.561-6.322 8.24-5.028 13.16-13.784 13.16-23.424 0-7.002-1.349-18.701-5.152-28.631-6.184-16.145-15.528-19.533-22.278-19.533zm10.894 66.056c-4.228 2.58-6.781 7.182-6.663 12.011l2.644 108.407a6.822 6.822 0 0 1-1.953 4.971 6.821 6.821 0 0 1-4.922 2.074c-1.869 0-3.617-.736-4.922-2.074s-1.999-3.103-1.953-4.971l2.644-108.407c.118-4.829-2.435-9.432-6.663-12.011-6.296-3.841-10.055-10.53-10.055-17.892 0-13.6 5.121-41.685 20.95-41.685s20.95 28.084 20.95 41.685c-.001 7.362-3.76 14.051-10.057 17.892z"/></svg>