<svg xmlns="http://www.w3.org/2000/svg" width="168.75" height="200" viewBox="2105.961 321.82 168.75 200"><path fill="#2884C6" d="M2259.345 321.82h-138.084c-8.437 0-15.3 6.828-15.3 15.222v169.266c0 4.089 1.668 8.09 4.573 10.971 2.896 2.887 6.912 4.541 11.02 4.541h137.686c4.129 0 8.012-1.599 10.934-4.501a15.464 15.464 0 0 0 4.537-10.892V337.106c0-8.429-6.893-15.286-15.366-15.286zm9.116 184.607a9.063 9.063 0 0 1-2.692 6.461 9.205 9.205 0 0 1-6.529 2.682h-137.686a9.441 9.441 0 0 1-6.615-2.722 9.153 9.153 0 0 1-2.728-6.54V337.042c0-4.947 4.06-8.972 9.05-8.972h138.084c5.026 0 9.116 4.054 9.116 9.036v169.321z"/><path fill="#2884C6" d="M2239.803 339.239h-97.272a11.056 11.056 0 0 0-7.771 3.221 11.058 11.058 0 0 0-3.229 7.779v24.339a11.23 11.23 0 0 0 3.303 7.977 11.217 11.217 0 0 0 7.971 3.298h96.997c2.897 0 5.733-1.176 7.774-3.221a11.07 11.07 0 0 0 3.226-7.779v-24.614c0-2.897-1.177-5.732-3.221-7.774a11.065 11.065 0 0 0-7.778-3.226zm4.75 35.614a4.77 4.77 0 0 1-1.396 3.358 4.766 4.766 0 0 1-3.354 1.392h-96.997a5.005 5.005 0 0 1-3.551-1.466 5.008 5.008 0 0 1-1.474-3.558V350.24a4.77 4.77 0 0 1 1.398-3.36 4.764 4.764 0 0 1 3.352-1.39h97.272a4.77 4.77 0 0 1 3.358 1.396 4.766 4.766 0 0 1 1.392 3.354v24.613z"/><path fill="#1EA64A" d="M2207.312 395.75h-72.656a3.125 3.125 0 0 0-3.125 3.125v96.873a3.124 3.124 0 0 0 3.125 3.125h72.656a3.124 3.124 0 0 0 3.125-3.125v-96.873a3.124 3.124 0 0 0-3.125-3.125zm-27.343 30.469v17.969H2162v-17.969h17.969zm-17.969-6.25V402h17.969v17.969H2162zm24.219 6.25h17.969v17.969h-17.969v-17.969zm-30.469 17.969h-17.056c-.323 0-.619.093-.913.184v-18.337c.294.091.589.184.913.184h17.056v17.969zm-17.969 6.065c.294.091.589.184.913.184h17.056v17.969h-17.056c-.323 0-.619.093-.913.184v-18.337zm24.219.185h17.969v17.969H2162v-17.969zm24.219 0h17.969v17.969h-17.969v-17.969zm17.969-30.469h-17.969V402h17.969v17.969zM2155.75 402v17.969h-17.056c-.323 0-.619.093-.913.184V402h17.969zm-17.969 72.473c.294.092.589.185.913.185h41.275v17.056c0 .323.093.617.184.909h-42.372v-18.15zm48.254 18.15c.091-.293.184-.587.184-.909v-17.056h17.969v17.966h-18.153z"/><path fill="#2884C6" d="M2247.678 395.75h-24.219a3.125 3.125 0 0 0-3.125 3.125v96.873a3.124 3.124 0 0 0 3.125 3.125h24.219a3.124 3.124 0 0 0 3.125-3.125v-96.873a3.125 3.125 0 0 0-3.125-3.125zm-21.094 30.469h17.969v17.969h-17.969v-17.969zM2244.553 402v17.969h-17.969V402h17.969zm0 90.623h-17.969v-42.186h17.969v42.186z"/><path fill="#1EA64A" d="M2211.35 351.348c-6.175 0-11.198 5.023-11.198 11.198 0 6.174 5.023 11.197 11.198 11.197 6.174 0 11.197-5.023 11.197-11.197 0-6.174-5.023-11.198-11.197-11.198zm0 16.146a4.953 4.953 0 0 1-4.948-4.947c0-2.728 2.22-4.948 4.948-4.948s4.947 2.22 4.947 4.948a4.952 4.952 0 0 1-4.947 4.947zm-20.183-16.146a3.125 3.125 0 0 0-3.125 3.125v16.145a3.125 3.125 0 1 0 6.25 0v-16.145a3.125 3.125 0 0 0-3.125-3.125zm40.364 0a3.125 3.125 0 0 0-3.125 3.125v16.145a3.125 3.125 0 1 0 6.25 0v-16.145a3.125 3.125 0 0 0-3.125-3.125z"/></svg>