<svg xmlns="http://www.w3.org/2000/svg" width="177.554" height="200" viewBox="39.426 -253 177.554 200"><path fill="#2884C6" d="M181.746-89.451a3.183 3.183 0 0 0 1.191-2.485v-145.106a3.19 3.19 0 0 0-3.191-3.191H87.411C85.134-247.618 78.247-253 70.126-253c-7.991 0-14.983 5.325-17.283 12.766H42.617a3.19 3.19 0 0 0-3.191 3.191v180.851a3.19 3.19 0 0 0 3.191 3.191h101.356a3.203 3.203 0 0 0 2.512-1.189l35.261-35.261zm-34.554 25.527v-24.82h24.82l-24.82 24.82zM70.126-246.617c4.537 0 8.477 2.598 10.418 6.383H59.707c1.959-3.808 5.947-6.383 10.419-6.383zm-24.317 12.766h36.02v22.34c0 2.933-2.386 5.319-5.319 5.319s-5.319-2.386-5.319-5.319v-12.766a3.19 3.19 0 1 0-6.382 0v12.766c0 6.452 5.25 11.702 11.702 11.702s11.702-5.25 11.702-11.702v-22.34h88.343v138.723h-32.553a3.19 3.19 0 0 0-3.191 3.191v32.553H45.809v-174.467z"/><path fill="#1EA64A" d="M154.214-105.979a3.19 3.19 0 1 0 0-6.382H68.149a3.19 3.19 0 1 0 0 6.382h86.065zm-86.065-19.149h86.065a3.19 3.19 0 1 0 0-6.382H68.149a3.19 3.19 0 1 0 0 6.382zm0-19.149h86.065a3.19 3.19 0 1 0 0-6.382H68.149a3.19 3.19 0 1 0 0 6.382zm0-19.149h86.065a3.19 3.19 0 1 0 0-6.382H68.149a3.19 3.19 0 1 0 0 6.382zm0-19.148h86.065a3.19 3.19 0 1 0 0-6.382H68.149a3.19 3.19 0 1 0 0 6.382zm128.618-57.66h-4.255a3.19 3.19 0 1 0 0 6.382h1.064v174.468h-34.073a3.192 3.192 0 1 0-.001 6.384h37.265a3.19 3.19 0 0 0 3.191-3.191v-180.851a3.19 3.19 0 0 0-3.191-3.192z"/><path fill="#2884C6" d="M213.788-240.234h-4.255a3.19 3.19 0 1 0 0 6.382h1.064v174.468h-1.064a3.193 3.193 0 0 0 0 6.384h4.255a3.19 3.19 0 0 0 3.191-3.191v-180.851a3.19 3.19 0 0 0-3.191-3.192z"/></svg>