<svg xmlns="http://www.w3.org/2000/svg" width="200" height="200" viewBox="411.615 -294.792 200 200"><path fill="#2884C6" d="M478.282-168.125c-7.7 0-15.193-1.437-22.277-4.27a3.33 3.33 0 0 0-4.33 1.857 3.335 3.335 0 0 0 1.857 4.333c7.873 3.15 16.2 4.746 24.75 4.746 36.76 0 66.667-29.907 66.667-66.667s-29.907-66.666-66.667-66.666-66.667 29.907-66.667 66.667c0 20.967 9.96 40.754 26.7 53.323-.013 1.11-.033 2.196-.033 3.343 0 14.067 0 33.333 13.333 33.333 10.546 0 13.333-9.88 13.333-15.104a3.327 3.327 0 0 0-3.317-3.327h-.016a3.338 3.338 0 0 0-3.333 3.31c-.007.866-.263 8.453-6.667 8.453-6.667 0-6.667-16.046-6.667-26.667 0-61.67 17.313-69.983 17.81-70.204a3.328 3.328 0 0 0 2.017-4.183 3.323 3.323 0 0 0-4.213-2.11c-.873.293-4.333 1.743-8.28 7.16a12.29 12.29 0 0 1-.667-3.996c0-5.513 4.487-10 10-10s10 4.487 10 10c0 4.583-3.1 8.57-7.537 9.693a3.334 3.334 0 0 0 1.64 6.463 16.649 16.649 0 0 0 12.563-16.157c0-9.19-7.477-16.667-16.667-16.667-9.19 0-16.667 7.477-16.667 16.667 0 4.057 1.25 7.77 3.413 10.623-4.557 9.373-8.854 24.983-9.86 50.933-12.757-11.323-20.22-27.667-20.22-44.89 0-33.083 26.917-60 60-60s60 26.917 60 60-26.915 60.004-59.998 60.004z"/><path fill="#1EA64A" d="M532.592-175.768l60 60c.65.65 1.504.977 2.357.977.854 0 1.707-.327 2.357-.977a3.33 3.33 0 0 0 0-4.713l-60-60a3.328 3.328 0 0 0-4.713 0 3.329 3.329 0 0 0-.001 4.713z"/><path fill="#1EA64A" d="M610.639-133.815l-60-60a3.33 3.33 0 0 0-4.713 0 3.328 3.328 0 0 0 0 4.713l59.023 59.023v28.62h-26.667v-10c0-1.84-1.49-3.333-3.333-3.333h-10v-10c0-1.84-1.49-3.333-3.333-3.333h-10v-10c0-1.84-1.49-3.333-3.333-3.333H536.33l-19.023-19.023a3.328 3.328 0 0 0-4.713 0 3.33 3.33 0 0 0 0 4.713l20 20c.623.627 1.47.977 2.357.977h10v10c0 1.84 1.49 3.333 3.333 3.333h10v10c0 1.84 1.49 3.333 3.333 3.333h10v10c0 1.84 1.49 3.333 3.333 3.333h33.333a3.332 3.332 0 0 0 3.333-3.333v-33.333a3.33 3.33 0 0 0-.977-2.357z"/></svg>