<svg xmlns="http://www.w3.org/2000/svg" width="200.005" height="199.9" viewBox="1477.5 345.4 200.005 199.9"><path fill="#1EA64A" d="M1550.9 468.7c0 1.8 1.5 3.3 3.3 3.3h13.3c1.8 0 3.3-1.5 3.3-3.3v-20c0-1.8-1.5-3.3-3.3-3.3h-13.3c-1.8 0-3.3 1.5-3.3 3.3v20zm6.7-16.7h6.7v13.3h-6.7V452zm-3.4-20h13.3c1.8 0 3.3-1.5 3.3-3.3v-20c0-1.8-1.5-3.3-3.3-3.3h-13.3c-1.8 0-3.3 1.5-3.3 3.3v20c0 1.8 1.5 3.3 3.3 3.3zm3.4-20h6.7v13.3h-6.7V412z"/><path fill="#2884C6" d="M1529.3 408.2l48.3-29 48.3 29c.5.3 1.1.5 1.7.5 1.1 0 2.2-.6 2.9-1.6.9-1.6.4-3.6-1.1-4.6l-48.4-29V352h16.7v6.7h-18.384c-1.8 0-3.3 1.5-3.3 3.3s1.5 3.3 3.3 3.3H1601c1.8 0 3.3-1.5 3.3-3.3v-13.3c0-1.8-1.5-3.3-3.3-3.3h-23.3c-1.8 0-3.3 1.5-3.3 3.3v24.8l-48.4 29c-1.6.9-2.1 3-1.1 4.6.8 1.5 2.8 2 4.4 1.1z"/><path fill="#1EA64A" d="M1514.2 472c1.8 0 3.3-1.5 3.3-3.3v-20c0-1.8-1.5-3.3-3.3-3.3h-13.3c-1.8 0-3.3 1.5-3.3 3.3v6.7c0 1.8 1.5 3.3 3.3 3.3s3.3-1.5 3.3-3.3V452h6.7v16.7c0 1.8 1.5 3.3 3.3 3.3z"/><path fill="#2884C6" d="M1537.6 526.05v-122.4c0-1.8-1.5-3.3-3.3-3.3s-3.3 1.5-3.3 3.3v122.4c0 1.8 1.5 3.3 3.3 3.3s3.3-1.4 3.3-3.3z"/><path fill="#2884C6" d="M1520.9 532h113.3c1.8 0 3.3-1.5 3.3-3.3s-1.5-3.3-3.3-3.3h-30V492h3.3c1.8 0 3.3-1.5 3.3-3.3s-1.5-3.3-3.3-3.3h-60c-1.8 0-3.3 1.5-3.3 3.3s1.5 3.3 3.3 3.3h3.3v33.3h-30c-1.8 0-3.3 1.5-3.3 3.3s1.6 3.4 3.4 3.4zm60-20c1.8 0 3.3-1.5 3.3-3.3s-1.5-3.3-3.3-3.3V492h16.7v33.3h-16.7V512zm-23.3-20h16.7v13.3c-1.8 0-3.3 1.5-3.3 3.3s1.5 3.3 3.3 3.3v13.3h-16.7V492z"/><path fill="#1EA64A" d="M1654.2 488.7h-13.3c-1.8 0-3.3 1.5-3.3 3.3v20c0 1.8 1.5 3.3 3.3 3.3h13.3c1.8 0 3.3-1.5 3.3-3.3v-20c.1-1.8-1.4-3.3-3.3-3.3zm-3.3 20h-6.7v-13.3h6.7v13.3zm3.3-60h-13.3c-1.8 0-3.3 1.5-3.3 3.3v20c0 1.8 1.5 3.3 3.3 3.3h13.3c1.8 0 3.3-1.5 3.3-3.3v-20c.1-1.8-1.4-3.3-3.3-3.3zm-3.3 20h-6.7v-13.3h6.7v13.3z"/><path fill="#2884C6" d="M1647.6 538.7h-140c-1.8 0-3.3 1.5-3.3 3.3s1.5 3.3 3.3 3.3h140c1.8 0 3.3-1.5 3.3-3.3s-1.5-3.3-3.3-3.3zm26.6-120c-1.8 0-3.3 1.5-3.3 3.3v3.3h-46.7c-1.8 0-3.3 1.5-3.3 3.3s1.5 3.3 3.3 3.3h46.7v110c0 1.8 1.5 3.3 3.3 3.3s3.3-1.5 3.3-3.3V422c.1-1.8-1.4-3.3-3.3-3.3z"/><path fill="#1EA64A" d="M1584.2 468.7c0 1.8 1.5 3.3 3.3 3.3h13.3c1.8 0 3.3-1.5 3.3-3.3v-20c0-1.8-1.5-3.3-3.3-3.3h-13.3c-1.8 0-3.3 1.5-3.3 3.3v20zm6.7-16.7h6.7v13.3h-6.7V452zm-80 56.7c0-.4-.2-43.3-16.7-43.3s-16.7 42.9-16.7 43.3c0 8.1 5.7 14.8 13.3 16.3v17c0 1.8 1.5 3.3 3.3 3.3s3.3-1.5 3.3-3.3v-17c7.8-1.6 13.5-8.3 13.5-16.3zm-16.7 10c-5.5 0-10-4.5-10-10 0-16.6 4.5-36.7 10-36.7s10 20.1 10 36.7c0 5.5-4.4 10-10 10z"/><path fill="#2884C6" d="M1624.2 526.05v-122.4c0-1.8-1.5-3.3-3.3-3.3s-3.3 1.5-3.3 3.3v122.4c0 1.8 1.5 3.3 3.3 3.3s3.3-1.4 3.3-3.3z"/><path fill="#1EA64A" d="M1587.6 432h13.3c1.8 0 3.3-1.5 3.3-3.3v-20c0-1.8-1.5-3.3-3.3-3.3h-13.3c-1.8 0-3.3 1.5-3.3 3.3v20c-.1 1.8 1.4 3.3 3.3 3.3zm3.3-20h6.7v13.3h-6.7V412z"/><path fill="#2884C6" d="M1480.9 462c1.8 0 3.3-1.5 3.3-3.3V432h48.45c1.8 0 3.3-1.5 3.3-3.3s-1.5-3.3-3.3-3.3h-48.45V422c0-1.8-1.5-3.3-3.3-3.3s-3.3 1.5-3.3 3.3v36.7c0 1.8 1.5 3.3 3.3 3.3z"/></svg>