<svg xmlns="http://www.w3.org/2000/svg" width="199.997" height="135.565" viewBox="1491.501 159.69 199.997 135.565"><path d="M1546.878 217.776V165.94h7.959a3.125 3.125 0 1 0 0-6.25h-51.725a3.125 3.125 0 1 0 0 6.25h7.959v51.836l-19.126 63.747a10.732 10.732 0 0 0 1.66 9.43 10.713 10.713 0 0 0 8.56 4.3h53.618c3.358 0 6.558-1.608 8.56-4.3a10.725 10.725 0 0 0 1.66-9.43l-19.125-63.747zm-29.688 1.357c.087-.29.131-.593.131-.897V165.94h23.307v52.295c0 .304.044.607.131.897l6.552 21.84h-36.674l6.553-21.839zm42.137 68.09a4.429 4.429 0 0 1-3.543 1.779h-53.618a4.429 4.429 0 0 1-3.543-1.779 4.441 4.441 0 0 1-.69-3.906l10.829-36.095h40.425l10.829 36.095a4.437 4.437 0 0 1-.689 3.906zm65.709-127.533h-44.337a3.125 3.125 0 1 0 0 6.25h4.265v110.44a18.974 18.974 0 0 0 11.783 17.599c2.071.852 4.15 1.276 6.227 1.276 1.912 0 3.821-.36 5.713-1.083 7.223-2.765 12.076-9.823 12.076-17.563.005-14.321.006-49.388.007-76.845l.001-.003-.001-.002.001-33.819h4.265a3.125 3.125 0 1 0 0-6.25zm-18.578 128.644c-2.443.934-4.843.888-7.332-.134a12.74 12.74 0 0 1-7.912-11.819v-73.494h23.306c-.001 26.937-.003 59.94-.007 73.723 0 5.166-3.239 9.881-8.055 11.724zm8.062-91.697h-23.306V165.94h23.307l-.001 30.697zm73.853-36.947h-44.336a3.125 3.125 0 1 0 0 6.25h4.263v110.44a18.975 18.975 0 0 0 11.786 17.599c2.071.852 4.15 1.276 6.226 1.276 1.913 0 3.821-.36 5.714-1.083 7.222-2.765 12.074-9.823 12.074-17.563.003-10.044.005-30.301.006-50.977l.002-.007-.002-.005.002-59.68h4.265a3.125 3.125 0 1 0 0-6.25zm-18.577 128.644c-2.444.934-4.843.888-7.332-.134a12.745 12.745 0 0 1-7.913-11.819v-47.63h23.306c-.001 19.57-.003 38.32-.005 47.859-.001 5.166-3.24 9.881-8.056 11.724zm8.061-65.834h-23.306v-56.56h23.308l-.002 56.56z"/></svg>