<svg xmlns="http://www.w3.org/2000/svg" width="200" height="200" viewBox="1786.7 318.8 200 200"><path fill="#1EA64A" d="M1930 385.3h-6.7c-1.8 0-3.3 1.5-3.3 3.3s1.5 3.3 3.3 3.3h6.7c1.8 0 3.3-1.5 3.3-3.3s-1.5-3.3-3.3-3.3zm0 13.4h-6.7c-1.8 0-3.3 1.5-3.3 3.3s1.5 3.3 3.3 3.3h6.7c1.8 0 3.3-1.5 3.3-3.3s-1.5-3.3-3.3-3.3zm0-26.7h-6.7c-1.8 0-3.3 1.5-3.3 3.3s1.5 3.3 3.3 3.3h6.7c1.8 0 3.3-1.5 3.3-3.3s-1.5-3.3-3.3-3.3z"/><path fill="#2884C6" d="M1930 478.7h-6.7c-1.8 0-3.3 1.5-3.3 3.3s1.5 3.3 3.3 3.3h6.7c1.8 0 3.3-1.5 3.3-3.3s-1.5-3.3-3.3-3.3z"/><path fill="#1EA64A" d="M1856.7 372h-20c-1.8 0-3.3 1.5-3.3 3.3V422c0 1.8 1.5 3.3 3.3 3.3h20c1.8 0 3.3-1.5 3.3-3.3v-46.7c0-1.8-1.5-3.3-3.3-3.3zm-3.4 46.7H1840v-40h13.3v40z"/><path fill="#2884C6" d="M1856.7 478.7h-20c-1.8 0-3.3 1.5-3.3 3.3s1.5 3.3 3.3 3.3h20c1.8 0 3.3-1.5 3.3-3.3s-1.5-3.3-3.3-3.3zm0 13.3h-20c-1.8 0-3.3 1.5-3.3 3.3s1.5 3.3 3.3 3.3h20c1.8 0 3.3-1.5 3.3-3.3s-1.5-3.3-3.3-3.3zm73.3 0h-6.7c-1.8 0-3.3 1.5-3.3 3.3s1.5 3.3 3.3 3.3h6.7c1.8 0 3.3-1.5 3.3-3.3s-1.5-3.3-3.3-3.3zm40 0h-13.3c-1.8 0-3.3 1.5-3.3 3.3s1.5 3.3 3.3 3.3h13.3c1.8 0 3.3-1.5 3.3-3.3s-1.5-3.3-3.3-3.3z"/><path fill="#1EA64A" d="M1900 375.3c0-1.8-1.5-3.3-3.3-3.3h-13.3c-1.8 0-3.3 1.5-3.3 3.3V422c0 1.8 1.5 3.3 3.3 3.3h13.3c1.8 0 3.3-1.5 3.3-3.3v-46.7zm-6.7 43.4h-6.7v-40h6.7v40z"/><path fill="#2884C6" d="M1970 478.7h-13.3c-1.8 0-3.3 1.5-3.3 3.3s1.5 3.3 3.3 3.3h13.3c1.8 0 3.3-1.5 3.3-3.3s-1.5-3.3-3.3-3.3zm-73.3 13.3h-13.3c-1.8 0-3.3 1.5-3.3 3.3s1.5 3.3 3.3 3.3h13.3c1.8 0 3.3-1.5 3.3-3.3s-1.5-3.3-3.3-3.3z"/><path fill="#1EA64A" d="M1956.7 438.7c1.8 0 3.3-1.5 3.3-3.3V402c0-1.8-1.5-3.3-3.3-3.3s-3.3 1.5-3.3 3.3v33.3c-.1 1.9 1.4 3.4 3.3 3.4zm16.6-36.7c0-1.8-1.5-3.3-3.3-3.3s-3.3 1.5-3.3 3.3v33.3c0 1.8 1.5 3.3 3.3 3.3s3.3-1.5 3.3-3.3V402z"/><path fill="#2884C6" d="M1976.7 345.3h-31.2c-1.8 0-3.3 1.5-3.3 3.3s1.5 3.3 3.3 3.3h31.2c1.8 0 3.3 1.5 3.3 3.3v153.3c0 1.8-1.5 3.3-3.3 3.3h-30V372h34.5c1.8 0 3.3-1.5 3.3-3.3s-1.5-3.3-3.3-3.3h-34.5v-30c0-5.6-4.4-10-10-10h-20c-5.5 0-10 4.5-10 10V512h-33.3V338.7h34.467c1.8 0 3.3-1.5 3.3-3.3s-1.5-3.3-3.3-3.3H1873.4v-3.3c0-5.6-4.4-10-10-10H1830c-5.5 0-10 4.5-10 10v30h-26.5c-1.8 0-3.3 1.5-3.3 3.3s1.5 3.3 3.3 3.3h26.5V512h-23.3c-1.8 0-3.3-1.5-3.3-3.3v-160c0-1.8 1.5-3.3 3.3-3.3h24.333c1.8 0 3.3-1.5 3.3-3.3s-1.5-3.3-3.3-3.3H1796.7c-5.5 0-10 4.5-10 10v160c0 5.5 4.5 10 10 10h180c5.5 0 10-4.5 10-10V355.3c0-5.5-4.5-10-10-10zm-110 166.7h-40V345.3h40.8c1.8 0 3.3-1.5 3.3-3.3s-1.5-3.3-3.3-3.3h-40.8v-10c0-1.9 1.5-3.3 3.3-3.3h33.3c1.9 0 3.3 1.4 3.3 3.3l.1 183.3zm73.3 0h-26.7V352h27.567c1.8 0 3.3-1.5 3.3-3.3s-1.5-3.3-3.3-3.3H1913.3v-10c0-1.9 1.5-3.3 3.3-3.3h20c1.9 0 3.3 1.4 3.3 3.3V512h.1z"/><path fill="#2884C6" d="M1810 478.7h-6.7c-1.8 0-3.3 1.5-3.3 3.3s1.5 3.3 3.3 3.3h6.7c1.8 0 3.3-1.5 3.3-3.3s-1.5-3.3-3.3-3.3zm0 13.3h-6.7c-1.8 0-3.3 1.5-3.3 3.3s1.5 3.3 3.3 3.3h6.7c1.8 0 3.3-1.5 3.3-3.3s-1.5-3.3-3.3-3.3zm86.7-13.3h-13.3c-1.8 0-3.3 1.5-3.3 3.3s1.5 3.3 3.3 3.3h13.3c1.8 0 3.3-1.5 3.3-3.3s-1.5-3.3-3.3-3.3z"/><path fill="#1EA64A" d="M1810 398.7h-6.7c-1.8 0-3.3 1.5-3.3 3.3s1.5 3.3 3.3 3.3h6.7c1.8 0 3.3-1.5 3.3-3.3s-1.5-3.3-3.3-3.3zm0 13.3h-6.7c-1.8 0-3.3 1.5-3.3 3.3s1.5 3.3 3.3 3.3h6.7c1.8 0 3.3-1.5 3.3-3.3s-1.5-3.3-3.3-3.3z"/></svg>