<svg xmlns="http://www.w3.org/2000/svg" width="254.939" height="208.958" viewBox="1159.904 159.091 254.939 208.958"><path fill="#2884C6" d="M1410.598 334.085h-27.334l9.504-2.547c.849-.424 2.123-.849 2.547-2.123.424-1.274.849-2.123.424-3.397l-6.303-23.396a4.376 4.376 0 0 0-.065-1.227l-4.245-16.557a9.015 9.015 0 0 0-.848-1.359l-21.24-78.833a4.52 4.52 0 0 0 .011-1.746l-4.245-16.557a8.648 8.648 0 0 0-1.17-1.755l-6.048-22.444c-.424-2.123-2.972-3.397-5.094-2.972l-41.181 11.038c-2.123.424-3.397 2.972-2.972 5.095l9.156 34.072a25.237 25.237 0 0 0-11.279-2.656h-123.118c-1.698 0-2.972.849-3.821 2.547a3.856 3.856 0 0 0 0 4.245l5.094 8.066c3.821 6.793 3.821 14.859 0 21.652l-3.754 5.944h-10.256c-1.698 0-2.972.849-3.821 2.547a3.856 3.856 0 0 0 0 4.245l5.094 8.066c3.821 6.793 3.821 14.859 0 21.652l-5.094 8.067a3.856 3.856 0 0 0 0 4.245c.849 1.274 2.123 2.123 3.821 2.123h9.988l4.022 6.368c3.821 6.793 3.821 14.859 0 21.652l-3.754 5.944h-10.256c-2.547 0-4.245 1.698-4.245 4.245v25.473c0 2.547 1.698 4.245 4.245 4.245h246.236c2.547 0 4.245-1.698 4.245-4.245V338.33c.002-2.547-1.697-4.245-4.244-4.245zm-104.772-41.821c4.405-4.585 7.126-10.796 7.126-17.616s-2.721-13.032-7.126-17.616c6.46-1.467 12.007-5.402 15.584-10.758l14.636 54.464 3.652 14.242c.099.197.209.387.329.571l4.981 18.534h-25.851c4.055-4.515 6.532-10.473 6.532-16.982 0-12.083-8.529-22.264-19.863-24.839zm47.458-91.062l-32.69 8.915-2.123-8.066 32.69-8.915 2.123 8.066zm2.274 8.038l19.516 73.84-32.833 8.801-16.734-62.667a25.207 25.207 0 0 0-1.87-7.001l-1.039-3.893 32.96-9.08zm-10.764 90.881l32.55-8.455 2.132 8.066-32.559 8.88-2.123-8.491zm8.49 33.115l-4.453-16.677 32.77-8.784 4.373 16.545-32.69 8.916zm-8.49-164.724l4.229 16.002-33.084 8.868-4.26-15.954 33.115-8.916zm-159.205 48.398l-.849-1.698h115.476c6.999 0 13.043 4.291 15.634 10.372l1.212 4.509c.086.689.135 1.389.135 2.101 0 9.34-7.642 16.982-16.982 16.982h-115.476l.849-1.698c5.52-9.341 5.52-21.228.001-30.568zm-12.736 42.455l-.849-1.698h115.477c9.34 0 16.982 7.642 16.982 16.982s-7.642 16.982-16.982 16.982h-115.477l.849-1.698c5.519-9.341 5.519-21.228 0-30.568zm12.736 42.454l-.849-1.698h115.476c9.34 0 16.982 7.642 16.982 16.982s-7.642 16.982-16.982 16.982H1184.74l.849-1.698c5.519-9.34 5.519-21.228 0-30.568zm220.763 57.738h-237.745v-16.982h237.745v16.982z"/><path fill="#1EA64A" d="M1206.816 321.348h93.4c2.547 0 4.245-1.698 4.245-4.245s-1.698-4.245-4.245-4.245h-93.4c-2.547 0-4.245 1.698-4.245 4.245s1.698 4.245 4.245 4.245zm-12.736-42.454h93.4c2.547 0 4.245-1.698 4.245-4.245s-1.698-4.245-4.245-4.245h-93.4c-2.547 0-4.245 1.698-4.245 4.245-.001 2.547 1.697 4.245 4.245 4.245zm12.736-42.455h93.4c2.547 0 4.245-1.698 4.245-4.245s-1.698-4.245-4.245-4.245h-93.4c-2.547 0-4.245 1.698-4.245 4.245s1.698 4.245 4.245 4.245zm131.609-8.915l13.161 49.247c.849 1.698 2.547 2.972 4.245 2.972 0 0 .424 0 .849-.424 2.123-.424 3.396-2.972 2.972-5.095l-13.161-48.822c-.424-2.123-2.972-3.397-5.095-2.972-2.122.425-3.396 2.971-2.971 5.094z"/></svg>