<svg xmlns="http://www.w3.org/2000/svg" width="200" height="196.66" viewBox="1760 -207.982 200 196.66"><path fill="#2884C6" d="M1956.868-207.982h-193.737a3.131 3.131 0 0 0-3.132 3.131v190.397a3.132 3.132 0 0 0 3.132 3.132h193.737a3.132 3.132 0 0 0 3.132-3.132v-190.397a3.131 3.131 0 0 0-3.132-3.131zm-3.131 190.396h-187.474v-144.05h187.474v144.05zm0-150.313h-187.474v-33.82h187.474v33.82z"/><path fill="#1EA64A" d="M1926.806-194.621h-36.743a3.132 3.132 0 1 0 0 6.264h36.743a3.132 3.132 0 1 0 0-6.264zm16.701 0h-6.681a3.132 3.132 0 1 0 0 6.264h6.681a3.132 3.132 0 1 0 0-6.264zm-80.167-3.341c-7.252 0-13.152 5.9-13.152 13.152s5.9 13.152 13.152 13.152 13.152-5.9 13.152-13.152c0-7.252-5.9-13.152-13.152-13.152zm0 20.042c-3.799 0-6.889-3.091-6.889-6.889s3.091-6.889 6.889-6.889 6.89 3.091 6.89 6.889-3.091 6.889-6.89 6.889zm-36.743-20.042c-7.252 0-13.152 5.9-13.152 13.152s5.9 13.152 13.152 13.152 13.152-5.9 13.152-13.152c0-7.252-5.9-13.152-13.152-13.152zm0 20.042c-3.799 0-6.89-3.091-6.89-6.889s3.091-6.889 6.89-6.889 6.889 3.091 6.889 6.889-3.09 6.889-6.889 6.889zm-36.743-20.042c-7.252 0-13.152 5.9-13.152 13.152s5.9 13.152 13.152 13.152 13.152-5.9 13.152-13.152c0-7.252-5.9-13.152-13.152-13.152zm0 20.042c-3.799 0-6.889-3.091-6.889-6.889s3.091-6.889 6.889-6.889 6.89 3.091 6.89 6.889-3.092 6.889-6.89 6.889z"/><path fill="#2884C6" d="M1825.967-119.003c.068-2.509-.845-4.893-2.571-6.715s-4.058-2.862-6.566-2.93a9.344 9.344 0 0 0-6.715 2.571l-31.733 30.062c-1.901 1.801-2.97 4.335-2.932 6.954s1.178 5.122 3.129 6.868l31.733 28.393a9.38 9.38 0 0 0 6.261 2.393h.001a9.411 9.411 0 0 0 7.004-3.13c3.454-3.861 3.123-9.811-.737-13.266l-24.129-21.589 24.326-23.045a9.336 9.336 0 0 0 2.929-6.566zm-7.238 2.019L1791.935-91.6a3.135 3.135 0 0 0 .066 4.607l26.663 23.857a3.135 3.135 0 0 1 .246 4.422 3.097 3.097 0 0 1-2.337 1.044c-.77 0-1.511-.283-2.086-.798l-31.733-28.393a3.14 3.14 0 0 1-1.043-2.289 3.143 3.143 0 0 1 .977-2.318l31.733-30.062a3.111 3.111 0 0 1 2.239-.858c.836.023 1.613.37 2.189.977a3.11 3.11 0 0 1 .857 2.238 3.104 3.104 0 0 1-.977 2.189zm122.889 20.97l-31.733-30.062c-3.76-3.562-9.718-3.402-13.282.359-3.562 3.76-3.401 9.718.359 13.281l24.326 23.045-24.129 21.589c-3.86 3.454-4.191 9.405-.737 13.266a9.41 9.41 0 0 0 7.003 3.13h.001c2.313 0 4.537-.85 6.262-2.393l31.733-28.393a9.414 9.414 0 0 0 3.129-6.868 9.42 9.42 0 0 0-2.932-6.954zm-4.374 9.153l-31.733 28.393a3.126 3.126 0 0 1-2.086.798 3.1 3.1 0 0 1-2.336-1.043 3.136 3.136 0 0 1 .245-4.422l26.663-23.857a3.131 3.131 0 0 0 .066-4.607l-26.795-25.384a3.135 3.135 0 0 1-.12-4.427 3.123 3.123 0 0 1 2.274-.976 3.12 3.12 0 0 1 2.153.857l31.733 30.062c.634.6.99 1.445.977 2.318v.001a3.121 3.121 0 0 1-1.041 2.287z"/><path fill="#1EA64A" d="M1884.103-118.359a9.328 9.328 0 0 0-4.384-5.699c-4.49-2.584-10.245-1.034-12.829 3.454l-31.733 55.115c-2.585 4.489-1.035 10.244 3.454 12.829a9.402 9.402 0 0 0 4.681 1.254 9.423 9.423 0 0 0 8.147-4.708l31.733-55.114a9.339 9.339 0 0 0 .931-7.131zm-6.358 4.005l-31.732 55.115a3.146 3.146 0 0 1-2.72 1.57 3.137 3.137 0 0 1-2.709-4.695l31.733-55.115a3.132 3.132 0 0 1 5.428 3.125z"/></svg>