<svg xmlns="http://www.w3.org/2000/svg" width="197.701" height="200" viewBox="832.449 186 197.701 200"><path fill="#2884C6" d="M832.449 379.104V211.287c0-3.793 3.103-6.896 6.896-6.896h24.138c3.793 0 6.896 3.103 6.896 6.896s-3.103 6.896-6.896 6.896h-17.241v154.023h170.115V218.184h-14.942c-3.793 0-6.896-3.103-6.896-6.896s3.103-6.896 6.896-6.896h21.839c3.793 0 6.896 3.103 6.896 6.896v167.816c0 3.793-3.103 6.896-6.896 6.896H839.345c-3.793 0-6.896-3.104-6.896-6.896z"/><path fill="#2884C6" d="M947.392 211.287c0-3.793-3.103-6.896-6.896-6.896h-19.54c-3.793 0-6.896 3.103-6.896 6.896s3.103 6.896 6.896 6.896h19.54c3.792.001 6.896-3.103 6.896-6.896z"/><path fill="#1EA64A" d="M880.725 330.828h-11.494c-3.793 0-6.896 3.103-6.896 6.896v11.494c0 3.793 3.103 6.896 6.896 6.896h11.494c3.793 0 6.896-3.103 6.896-6.896v-11.494c0-3.793-3.103-6.896-6.896-6.896zm25.287 25.287h12.644c3.793 0 6.896-3.103 6.896-6.896v-11.494c0-3.793-3.103-6.896-6.896-6.896h-12.644c-3.793 0-6.896 3.103-6.896 6.896v11.494c0 3.793 3.103 6.896 6.896 6.896zm37.931 0h11.494c3.793 0 6.896-3.103 6.896-6.896v-11.494c0-3.793-3.103-6.896-6.896-6.896h-11.494c-3.793 0-6.896 3.103-6.896 6.896v11.494c0 3.793 3.103 6.896 6.896 6.896zm-56.322-55.172c0-3.793-3.103-6.896-6.896-6.896h-11.494c-3.793 0-6.896 3.103-6.896 6.896v11.494c0 3.793 3.103 6.896 6.896 6.896h11.494c3.793 0 6.896-3.103 6.896-6.896v-11.494zm37.931 0c0-3.793-3.103-6.896-6.896-6.896h-12.644c-3.793 0-6.896 3.103-6.896 6.896v11.494c0 3.793 3.103 6.896 6.896 6.896h12.644c3.793 0 6.896-3.103 6.896-6.896v-11.494zm36.782 0c0-3.793-3.103-6.896-6.896-6.896h-11.494c-3.793 0-6.896 3.103-6.896 6.896v11.494c0 3.793 3.103 6.896 6.896 6.896h11.494c3.793 0 6.896-3.103 6.896-6.896v-11.494zm19.54 18.39h11.494c3.793 0 6.896-3.103 6.896-6.896v-11.494c0-3.793-3.103-6.896-6.896-6.896h-11.494c-3.793 0-6.896 3.103-6.896 6.896v11.494c0 3.793 3.103 6.896 6.896 6.896zm-56.322-55.172c0-3.793-3.103-6.896-6.896-6.896h-12.644c-3.793 0-6.896 3.103-6.896 6.896v11.494c0 3.793 3.103 6.896 6.896 6.896h12.644c3.793 0 6.896-3.103 6.896-6.896v-11.494zm-31.034-32.184c3.793 0 6.896-3.103 6.896-6.896v-32.184c0-3.793-3.103-6.896-6.896-6.896h-6.896c-3.793 0-6.896 3.103-6.896 6.896v32.184c0 3.793 3.103 6.896 6.896 6.896h6.896zm79.31 0c3.793 0 6.896-3.103 6.896-6.896v-32.184c0-3.793-3.103-6.896-6.896-6.896h-6.896c-3.793 0-6.896 3.103-6.896 6.896v32.184c0 3.793 3.103 6.896 6.896 6.896h6.896zm-11.494 32.184c0-3.793-3.103-6.896-6.896-6.896h-11.494c-3.793 0-6.896 3.103-6.896 6.896v11.494c0 3.793 3.103 6.896 6.896 6.896h11.494c3.793 0 6.896-3.103 6.896-6.896v-11.494zm37.931 0c0-3.793-3.103-6.896-6.896-6.896h-11.494c-3.793 0-6.896 3.103-6.896 6.896v11.494c0 3.793 3.103 6.896 6.896 6.896h11.494c3.793 0 6.896-3.103 6.896-6.896v-11.494z"/></svg>