<svg xmlns="http://www.w3.org/2000/svg" width="339.343" height="235.499" viewBox="2001.313 21.766 339.343 235.499"><path fill="#2884C6" d="M2335.494 21.766h-329.436c-.069 0-.173 0-.243.035-.069 0-.173.035-.242.035-.104 0-.173.035-.277.069-.069 0-.139.035-.208.069-.104.035-.173.035-.277.069-.069.035-.139.035-.208.069-.069.035-.173.069-.242.104l-.208.104-.208.104c-.069.035-.173.104-.242.139-.069.035-.139.069-.173.139-.069.069-.139.104-.242.173-.069.035-.104.104-.173.139a.908.908 0 0 1-.208.173l-.173.173c-.069.069-.104.139-.173.173-.069.069-.104.139-.173.208-.035.035-.069.069-.069.104-.035.035-.035.069-.069.069-.069.069-.104.173-.173.242-.035.069-.069.139-.104.173-.035.069-.104.173-.139.242l-.104.208c-.035.069-.069.173-.104.242a.497.497 0 0 0-.069.242c-.035.069-.035.173-.069.242-.035.069-.035.173-.069.242 0 .069-.035.139-.035.242s-.035.173-.035.277c0 .069 0 .139-.035.208V219.3c0 2.009 1.178 3.879 3.013 4.711a5.144 5.144 0 0 0 5.542-.762l30.723-26.082h12.262a51.956 51.956 0 0 1 1.005-5.161 49.305 49.305 0 0 1 1.074-3.879c.138-.45.277-.901.416-1.316h-11.465c-.035-4.607-.104-9.144-.173-13.612l5.681-5.681 9.976 9.976c1.663-3.152 3.637-6.096 5.819-8.902l-8.521-8.417 12.261-12.261 8.694 8.694c2.909-2.078 5.992-3.914 9.248-5.438l-10.599-10.599 13.058-13.058 13.058 13.058-7.447 7.447a59.082 59.082 0 0 1 12.435-2.46c1.628-.138 3.291-.242 4.953-.242h.624c3.256 0 6.477.277 9.629.762l-5.507-5.508 13.058-13.058 13.058 13.058-8.59 8.659a59.168 59.168 0 0 1 9.872 4.814l6.131-6.13 13.058 13.058-4.988 4.988a59.705 59.705 0 0 1 6.235 8.452l6.096-6.097 13.058 13.058-5.438 5.438h-7.932a61.196 61.196 0 0 1 1.732 6.235l.208.935c.208 1.074.416 2.148.554 3.221h128.193l30.723 26.082c.97.797 2.147 1.247 3.36 1.247a5.39 5.39 0 0 0 2.182-.485c1.836-.866 3.013-2.702 3.013-4.711V26.961c.034-2.875-2.287-5.195-5.162-5.195zm-37.374 165.081h-12.227l-6.235-6.235 13.058-13.058 5.577 5.577c-.069 4.468-.138 9.04-.173 13.716zm-99.305-5.438l13.058-13.058 13.058 13.058-5.438 5.438h-15.275l-5.403-5.438zM2075.679 32.157l6.339 6.339-13.058 13.058-13.058-13.058 6.339-6.339h13.438zm40.838 0l6.339 6.339-13.058 13.058-13.058-13.058 6.339-6.339h13.438zm40.837 0l6.339 6.339-13.058 13.058-13.058-13.058 6.339-6.339h13.438zm40.837 0l6.339 6.339-13.058 13.058-13.058-13.058 6.339-6.339h13.438zm40.838 0l6.339 6.339-13.093 13.024-13.058-13.058 6.339-6.339 13.473.034zm40.837 0l6.339 6.339-13.058 13.024-13.058-13.058 6.339-6.339 13.438.034zm-108.83 39.798l-13.058-13.058 13.058-13.058 13.058 13.058-13.058 13.058zm20.401-5.715l13.058 13.058-13.058 13.058-13.058-13.059 13.058-13.057zm112.225 36.438l-10.114 10.114-13.058-13.058 13.058-13.058 10.876 10.876c-.242 1.697-.519 3.394-.762 5.126zm-50.951 10.115l-13.058-13.059 13.058-13.058 13.058 13.058-13.058 13.059zm20.436-5.716l13.058 13.058-13.058 13.093-13.058-13.059 13.058-13.092zm0-14.686l-13.058-13.058 13.058-13.058 13.058 13.058-13.058 13.058zm-20.436-20.436l-13.058-13.058 13.058-13.058 13.058 13.058-13.058 13.058zm-7.343 7.343l-13.093 13.093-13.058-13.058 13.058-13.058 13.093 13.023zm-33.495-7.343l-13.058-13.058 13.058-13.058 13.058 13.058-13.058 13.058zm0 14.686l13.058 13.058-13.058 13.093-13.058-13.059 13.058-13.092zm20.402 20.436l13.058 13.058-13.058 13.093-13.058-13.059 13.058-13.092zm7.378 33.495l13.058-13.058 13.058 13.058-13.058 13.058-13.058-13.058zm5.715 20.401l-13.093 13.093-13.058-13.058 13.058-13.058 13.093 13.023zm27.779-13.058l12.261 12.261-13.058 13.058-12.262-12.262 13.059-13.057zm7.343-7.343l13.058-13.058 6.65 6.65a628.703 628.703 0 0 0-.831 12.054l-6.65 6.65-12.227-12.296zm20.401-61.274l9.041-9.04a317.71 317.71 0 0 0-3.325 14.79l-5.716-5.75zm-7.343-7.343l-13.058-13.058 13.058-13.058 13.058 13.058-13.058 13.058zm-150.291-13.058l-13.058 13.058-13.058-13.058 13.058-13.058 13.058 13.058zm-40.838 0l-13.058 13.058-13.058-13.058 13.058-13.058 13.058 13.058zm-70.487 11.188l9.214 9.213-5.854 5.854a250.38 250.38 0 0 0-3.36-15.067zm3.499-11.188l13.058-13.058 13.058 13.058-13.058 13.058-13.058-13.058zm5.75-20.436l-13.058 13.058-2.91-2.91c-2.84-7.239-5.611-12.573-8.036-16.453h17.665l6.339 6.305zm-2.91 64.079a788.502 788.502 0 0 0-.727-4.884l10.98-10.98 13.058 13.058-13.058 13.058-10.253-10.252zm17.596-23.242l13.058-13.058 13.058 13.058-13.058 13.058-13.058-13.058zm33.494 7.343l13.058 13.058-13.058 13.093-13.058-13.059 13.058-13.092zm7.343-7.343l13.058-13.058 13.058 13.058-13.058 13.058-13.058-13.058zm33.494 7.343l13.058 13.058-13.058 13.093-13.058-13.058 13.058-13.093zm7.344-7.343L2150.6 66.24l13.058 13.058-13.058 13.058-13.058-13.058zm33.494 7.343l13.058 13.058-13.058 13.093-13.058-13.059 13.058-13.092zm20.401 20.436l13.058 13.058-13.058 13.093-13.058-13.059 13.058-13.092zm20.436 20.402l13.058 13.058-13.058 13.058-13.058-13.058 13.058-13.058zm27.78 53.93l13.058-13.058 12.261 12.261-6.235 6.235h-13.682l-5.402-5.438zm76.998-132.557l-2.702 2.702-13.058-13.058 6.339-6.339h17.527a84.646 84.646 0 0 0-2.875 5.057c-1.663 3.186-3.429 7.031-5.231 11.638zm-305.016 159.263V43.552c1.87 3.775 3.914 8.555 5.992 14.617 12.816 37.582 15.691 91.754 15.795 131.449l-21.787 18.497zm37.685-55.282l-6.789-6.789c-.243-4.018-.52-7.932-.797-11.777l6.789-6.789 13.058 13.058-12.261 12.297zm19.605-19.604l-13.058-13.059 13.058-13.058 13.058 13.058-13.058 13.059zm40.837 0l-13.058-13.059 13.058-13.058 13.058 13.058-13.058 13.059zm27.78-13.093l13.058-13.058 13.058 13.058-13.058 13.093-13.058-13.093zm20.401 20.436l13.058-13.058 13.058 13.058-13.058 13.058-13.058-13.058zm20.436 20.401l13.058-13.058 13.058 13.058-13.058 13.058-13.058-13.058zm151.92 47.142l-21.787-18.496c.104-38.725 2.875-91.72 15.102-129.301 2.286-7.066 4.607-12.539 6.685-16.73v164.527z"/><path fill="#1EA64A" d="M2162.55 193.982a49.015 49.015 0 0 0-2.321-7.136 44.996 44.996 0 0 0-2.494-5.196c-.173-.346-.381-.658-.554-1.004-1.594-2.736-3.395-5.3-5.438-7.655a52.038 52.038 0 0 0-13.162-10.945c-.45-.242-.866-.485-1.316-.728-3.291-1.766-6.789-3.221-10.46-4.225a51.506 51.506 0 0 0-9.595-1.732 55.685 55.685 0 0 0-4.191-.173c-4.087 0-8.036.485-11.846 1.385a51.312 51.312 0 0 0-6.789 2.113 51.285 51.285 0 0 0-9.664 5.057 51.055 51.055 0 0 0-12.608 11.95 48.241 48.241 0 0 0-5.473 9.214c-.312.658-.589 1.316-.866 1.974a49.767 49.767 0 0 0-1.87 5.403 58.248 58.248 0 0 0-1.143 4.988 50.788 50.788 0 0 0-.797 8.971c0 28.195 22.861 51.021 51.021 51.021 28.195-.035 51.055-22.895 51.055-51.09 0-3.048-.277-6.062-.797-8.971-.208-1.073-.415-2.147-.692-3.221zm-8.902 12.192c0 8.417-2.528 16.418-7.239 23.172l-12.677 1.87c-.658.104-1.42.693-1.697 1.316l-5.022 11.811c-4.434 1.628-9.144 2.46-14.028 2.46s-9.595-.866-14.028-2.46l-5.022-11.811c-.277-.623-1.005-1.212-1.697-1.316l-12.677-1.87c-4.711-6.754-7.239-14.755-7.239-23.172v-.45l9.248-8.521.139-.139c.485-.45.797-1.35.658-2.043l-.485-2.494-1.108-5.715-.623-3.083-.243-1.247a42.025 42.025 0 0 1 4.295-5.057 41.815 41.815 0 0 1 8.001-6.235 40.545 40.545 0 0 1 8.486-3.81l5.438 3.048 4.607 2.598 1.143.623c.588.346 1.559.346 2.147 0l11.188-6.27c1.455.451 2.875 1.004 4.26 1.594.901.416 1.836.866 2.702 1.316 3.464 1.87 6.685 4.226 9.525 7.101.935.935 1.801 1.87 2.598 2.875.589.693 1.143 1.42 1.663 2.182l-.277 1.385-.589 2.944-1.351 6.823-.277 1.42c-.138.658.173 1.559.658 2.043l.139.139 9.248 8.521c.136.175.136.314.136.452z"/><path fill="#1EA64A" d="M2131.653 199.351l-2.909-2.113-5.438-3.948-8.867-6.443-.45-.346c-.52-.381-1.385-.381-1.94-.035 0 0-.035 0-.035.035l-.45.346-2.147 1.559-6.235 4.538-5.923 4.295-2.91 2.113c-.554.381-.831 1.247-.624 1.87l6.754 20.782c.208.658.935 1.178 1.593 1.178h21.856c.658 0 1.385-.52 1.593-1.178l6.754-20.782c.21-.658-.068-1.49-.622-1.871z"/></svg>