<svg xmlns="http://www.w3.org/2000/svg" width="200.001" height="180.155" viewBox="351.726 -46.152 200.001 180.155"><path fill="#2884C6" d="M547.2-29.448a4.526 4.526 0 0 0-4.525 4.525V96.166l-86.425 13.759v-8.694l74.375-15.938a4.525 4.525 0 0 0 3.577-4.424V-41.627a4.524 4.524 0 0 0-5.473-4.424l-77.003 16.5-77.005-16.501a4.528 4.528 0 0 0-5.473 4.424V80.869a4.525 4.525 0 0 0 3.577 4.424l74.375 15.938v8.694l-86.425-13.759V-24.923a4.526 4.526 0 0 0-9.05 0v124.951a4.526 4.526 0 0 0 3.814 4.469l95.475 15.2c.051.008.103.012.154.018l.142.017c.138.013.277.021.416.021.139 0 .277-.009.416-.021l.142-.017c.052-.006.103-.01.154-.018l95.475-15.2a4.526 4.526 0 0 0 3.814-4.469V-24.923a4.527 4.527 0 0 0-4.527-4.525zm-22.046 106.66l-68.902 14.764V-21.265l68.902-14.765V77.212zM378.299-36.03l68.902 14.765V91.976l-68.903-14.764.001-113.242z"/><path fill="#1EA64A" d="M435.17-2.475l-44.673-9.573a4.526 4.526 0 0 0-1.895 8.85l44.673 9.572a4.527 4.527 0 0 0 5.372-3.476 4.528 4.528 0 0 0-3.477-5.373zm-.001 30.625l-44.907-9.623a4.525 4.525 0 1 0-1.895 8.85L433.274 37a4.527 4.527 0 0 0 1.895-8.85zm0 30.624L390.027 49.1a4.525 4.525 0 1 0-1.895 8.85l45.142 9.673a4.527 4.527 0 0 0 5.372-3.476 4.526 4.526 0 0 0-3.477-5.373zm34.057-52.299a4.5 4.5 0 0 0 .952-.101l44.673-9.573a4.526 4.526 0 0 0-1.896-8.85l-44.673 9.572a4.526 4.526 0 0 0 .944 8.952zm43.964 12.052l-44.907 9.623a4.526 4.526 0 0 0 .943 8.95 4.5 4.5 0 0 0 .952-.101l44.907-9.623a4.524 4.524 0 1 0-1.895-8.849zm0 30.624l-44.907 9.623a4.526 4.526 0 0 0 .943 8.95 4.5 4.5 0 0 0 .952-.101L515.086 58a4.526 4.526 0 0 0-1.896-8.849zm33.299 60.658l-94.763 15.087-94.763-15.087a4.525 4.525 0 1 0-1.423 8.937l95.475 15.2a4.464 4.464 0 0 0 1.422 0l95.475-15.2a4.525 4.525 0 1 0-1.423-8.937z"/></svg>