<svg xmlns="http://www.w3.org/2000/svg" xmlns:xlink="http://www.w3.org/1999/xlink" width="511.573" height="375.467" viewBox="0 0 511.573 375.467"><defs><path id="a" d="M0 0h511.573v375.467H0z"/></defs><clipPath id="b"><use xlink:href="#a" overflow="visible"/></clipPath><path clip-path="url(#b)" fill="#3CA436" d="M255.787 375.467c-103.253 0-187.733-84.48-187.733-187.733C68.054 84.48 152.534 0 255.787 0S443.52 84.48 443.52 187.734c0 103.253-84.48 187.733-187.733 187.733m0-358.4c-93.867 0-170.667 76.8-170.667 170.667 0 93.866 76.8 170.666 170.667 170.666s170.667-76.8 170.667-170.666c0-93.867-76.8-170.667-170.667-170.667"/><path clip-path="url(#b)" fill="#3CA436" d="M80.853 371.2c-2.56 0-4.267-.853-5.973-2.56-99.84-99.84-99.84-261.973 0-361.813 3.413-3.414 8.533-3.414 11.946 0 3.414 3.413 3.414 8.533 0 11.946-93.013 93.014-93.013 244.907 0 337.92 3.414 3.414 3.414 8.534 0 11.947-1.706 1.707-3.413 2.56-5.973 2.56m349.867 0c-2.56 0-4.267-.853-5.973-2.56-3.414-3.413-3.414-8.533 0-11.947 93.013-93.013 93.013-244.906 0-337.92-3.414-3.413-3.414-8.533 0-11.946 3.413-3.414 8.533-3.414 11.946 0 99.84 99.84 99.84 261.973 0 361.813-1.706 1.707-3.413 2.56-5.973 2.56"/><path clip-path="url(#b)" fill="#2884C6" d="M324.053 307.201H204.587c-5.12 0-8.534-3.414-8.534-8.534v-34.133c0-5.12 3.414-8.533 8.534-8.533h25.6v-76.8H213.12c-5.12 0-8.533-3.414-8.533-8.534v-34.133c0-5.12 3.413-8.533 8.533-8.533h76.8c5.12 0 8.533 3.413 8.533 8.533v119.467h25.6c5.12 0 8.534 3.413 8.534 8.533v34.133c0 5.12-3.414 8.534-8.534 8.534M213.12 290.134h102.4v-17.067h-25.6c-5.12 0-8.533-3.413-8.533-8.533V145.067h-59.734v17.067h17.067c5.12 0 8.533 3.413 8.533 8.533v93.867c0 5.12-3.413 8.533-8.533 8.533h-25.6v17.067z"/><path clip-path="url(#b)" fill="#3CA436" d="M255.787 110.934c-18.773 0-34.133-15.36-34.133-34.133 0-18.774 15.36-34.134 34.133-34.134s34.133 15.36 34.133 34.134c0 18.773-15.36 34.133-34.133 34.133m0-51.2c-9.387 0-17.067 7.68-17.067 17.067 0 9.386 7.68 17.066 17.067 17.066s17.067-7.68 17.067-17.066c0-9.387-7.68-17.067-17.067-17.067"/></svg>