<svg xmlns="http://www.w3.org/2000/svg" xmlns:xlink="http://www.w3.org/1999/xlink" width="46.398" height="46.398" viewBox="0 0 46.398 46.398"><defs><path id="a" d="M0 0h46.398v46.398H0z"/></defs><clipPath id="b"><use xlink:href="#a" overflow="visible"/></clipPath><path clip-path="url(#b)" fill="#2A83B8" d="M16.801 11.199h-4v-4c0-.441-.36-.801-.801-.801s-.801.36-.801.801v4h-4a.803.803 0 0 0-.801.801c0 .441.36.801.801.801h4v4c0 .441.36.801.801.801s.801-.36.801-.801v-4h4c.441 0 .801-.36.801-.801a.803.803 0 0 0-.801-.801m22.398 0h-9.597a.802.802 0 0 0 0 1.602h9.597a.802.802 0 0 0 0-1.602"/><path clip-path="url(#b)" fill="#189341" d="M24 0H0v46.398h46.398V0H24zM1.602 1.602h20.796v20.796H1.602V1.602zm0 22.398h20.796v20.801H1.602V24zm43.199 20.801H24V24h20.801v20.801zM24 1.602h20.801v20.796H24V1.602z"/><path clip-path="url(#b)" fill="#2A83B8" d="M29.602 37.602h9.597a.802.802 0 0 0 0-1.602h-9.597a.801.801 0 0 0 0 1.602m0-4.801h9.597a.802.802 0 0 0 0-1.602h-9.597a.802.802 0 0 0 0 1.602m-13.036-2.965a.8.8 0 0 0-1.132 0L12 33.27l-3.434-3.434a.8.8 0 0 0-1.132 1.129l3.433 3.433-3.433 3.438A.796.796 0 0 0 8 39.199c.203 0 .41-.078.566-.234L12 35.531l3.434 3.434a.801.801 0 0 0 1.132 0 .796.796 0 0 0 0-1.129l-3.433-3.438 3.433-3.433a.796.796 0 0 0 0-1.129"/></svg>